<?xml version="1.0" encoding="utf-8" standalone="no"?>
<!DOCTYPE svg PUBLIC "-//W3C//DTD SVG 1.1//EN"
  "http://www.w3.org/Graphics/SVG/1.1/DTD/svg11.dtd">
<!-- Created with matplotlib (https://matplotlib.org/) -->
<svg height="345.6pt" version="1.1" viewBox="0 0 460.8 345.6" width="460.8pt" xmlns="http://www.w3.org/2000/svg" xmlns:xlink="http://www.w3.org/1999/xlink">
 <metadata>
  <rdf:RDF xmlns:cc="http://creativecommons.org/ns#" xmlns:dc="http://purl.org/dc/elements/1.1/" xmlns:rdf="http://www.w3.org/1999/02/22-rdf-syntax-ns#">
   <cc:Work>
    <dc:type rdf:resource="http://purl.org/dc/dcmitype/StillImage"/>
    <dc:date>2021-05-25T20:12:54.315908</dc:date>
    <dc:format>image/svg+xml</dc:format>
    <dc:creator>
     <cc:Agent>
      <dc:title>Matplotlib v3.3.4, https://matplotlib.org/</dc:title>
     </cc:Agent>
    </dc:creator>
   </cc:Work>
  </rdf:RDF>
 </metadata>
 <defs>
  <style type="text/css">*{stroke-linecap:butt;stroke-linejoin:round;}</style>
 </defs>
 <g id="figure_1">
  <g id="patch_1">
   <path d="M 0 345.6 
L 460.8 345.6 
L 460.8 0 
L 0 0 
z
" style="fill:none;"/>
  </g>
  <g id="axes_1">
   <g id="patch_2">
    <path d="M 57.6 307.584 
L 414.72 307.584 
L 414.72 41.472 
L 57.6 41.472 
z
" style="fill:none;"/>
   </g>
   <g id="matplotlib.axis_1">
    <g id="xtick_1">
     <g id="line2d_1">
      <path clip-path="url(#p1171d511c9)" d="M 73.832727 307.584 
L 73.832727 41.472 
" style="fill:none;stroke:#b0b0b0;stroke-linecap:square;stroke-width:0.8;"/>
     </g>
     <g id="line2d_2">
      <defs>
       <path d="M 0 0 
L 0 3.5 
" id="maaf21a2cef" style="stroke:#000000;stroke-width:0.8;"/>
      </defs>
      <g>
       <use style="stroke:#000000;stroke-width:0.8;" x="73.832727" xlink:href="#maaf21a2cef" y="307.584"/>
      </g>
     </g>
     <g id="text_1">
      <!-- 0 -->
      <g transform="translate(70.651477 322.182437)scale(0.1 -0.1)">
       <defs>
        <path d="M 31.78125 66.40625 
Q 24.171875 66.40625 20.328125 58.90625 
Q 16.5 51.421875 16.5 36.375 
Q 16.5 21.390625 20.328125 13.890625 
Q 24.171875 6.390625 31.78125 6.390625 
Q 39.453125 6.390625 43.28125 13.890625 
Q 47.125 21.390625 47.125 36.375 
Q 47.125 51.421875 43.28125 58.90625 
Q 39.453125 66.40625 31.78125 66.40625 
z
M 31.78125 74.21875 
Q 44.046875 74.21875 50.515625 64.515625 
Q 56.984375 54.828125 56.984375 36.375 
Q 56.984375 17.96875 50.515625 8.265625 
Q 44.046875 -1.421875 31.78125 -1.421875 
Q 19.53125 -1.421875 13.0625 8.265625 
Q 6.59375 17.96875 6.59375 36.375 
Q 6.59375 54.828125 13.0625 64.515625 
Q 19.53125 74.21875 31.78125 74.21875 
z
" id="DejaVuSans-48"/>
       </defs>
       <use xlink:href="#DejaVuSans-48"/>
      </g>
     </g>
    </g>
    <g id="xtick_2">
     <g id="line2d_3">
      <path clip-path="url(#p1171d511c9)" d="M 139.419504 307.584 
L 139.419504 41.472 
" style="fill:none;stroke:#b0b0b0;stroke-linecap:square;stroke-width:0.8;"/>
     </g>
     <g id="line2d_4">
      <g>
       <use style="stroke:#000000;stroke-width:0.8;" x="139.419504" xlink:href="#maaf21a2cef" y="307.584"/>
      </g>
     </g>
     <g id="text_2">
      <!-- 20 -->
      <g transform="translate(133.057004 322.182437)scale(0.1 -0.1)">
       <defs>
        <path d="M 19.1875 8.296875 
L 53.609375 8.296875 
L 53.609375 0 
L 7.328125 0 
L 7.328125 8.296875 
Q 12.9375 14.109375 22.625 23.890625 
Q 32.328125 33.6875 34.8125 36.53125 
Q 39.546875 41.84375 41.421875 45.53125 
Q 43.3125 49.21875 43.3125 52.78125 
Q 43.3125 58.59375 39.234375 62.25 
Q 35.15625 65.921875 28.609375 65.921875 
Q 23.96875 65.921875 18.8125 64.3125 
Q 13.671875 62.703125 7.8125 59.421875 
L 7.8125 69.390625 
Q 13.765625 71.78125 18.9375 73 
Q 24.125 74.21875 28.421875 74.21875 
Q 39.75 74.21875 46.484375 68.546875 
Q 53.21875 62.890625 53.21875 53.421875 
Q 53.21875 48.921875 51.53125 44.890625 
Q 49.859375 40.875 45.40625 35.40625 
Q 44.1875 33.984375 37.640625 27.21875 
Q 31.109375 20.453125 19.1875 8.296875 
z
" id="DejaVuSans-50"/>
       </defs>
       <use xlink:href="#DejaVuSans-50"/>
       <use x="63.623047" xlink:href="#DejaVuSans-48"/>
      </g>
     </g>
    </g>
    <g id="xtick_3">
     <g id="line2d_5">
      <path clip-path="url(#p1171d511c9)" d="M 205.006281 307.584 
L 205.006281 41.472 
" style="fill:none;stroke:#b0b0b0;stroke-linecap:square;stroke-width:0.8;"/>
     </g>
     <g id="line2d_6">
      <g>
       <use style="stroke:#000000;stroke-width:0.8;" x="205.006281" xlink:href="#maaf21a2cef" y="307.584"/>
      </g>
     </g>
     <g id="text_3">
      <!-- 40 -->
      <g transform="translate(198.643781 322.182437)scale(0.1 -0.1)">
       <defs>
        <path d="M 37.796875 64.3125 
L 12.890625 25.390625 
L 37.796875 25.390625 
z
M 35.203125 72.90625 
L 47.609375 72.90625 
L 47.609375 25.390625 
L 58.015625 25.390625 
L 58.015625 17.1875 
L 47.609375 17.1875 
L 47.609375 0 
L 37.796875 0 
L 37.796875 17.1875 
L 4.890625 17.1875 
L 4.890625 26.703125 
z
" id="DejaVuSans-52"/>
       </defs>
       <use xlink:href="#DejaVuSans-52"/>
       <use x="63.623047" xlink:href="#DejaVuSans-48"/>
      </g>
     </g>
    </g>
    <g id="xtick_4">
     <g id="line2d_7">
      <path clip-path="url(#p1171d511c9)" d="M 270.593058 307.584 
L 270.593058 41.472 
" style="fill:none;stroke:#b0b0b0;stroke-linecap:square;stroke-width:0.8;"/>
     </g>
     <g id="line2d_8">
      <g>
       <use style="stroke:#000000;stroke-width:0.8;" x="270.593058" xlink:href="#maaf21a2cef" y="307.584"/>
      </g>
     </g>
     <g id="text_4">
      <!-- 60 -->
      <g transform="translate(264.230558 322.182437)scale(0.1 -0.1)">
       <defs>
        <path d="M 33.015625 40.375 
Q 26.375 40.375 22.484375 35.828125 
Q 18.609375 31.296875 18.609375 23.390625 
Q 18.609375 15.53125 22.484375 10.953125 
Q 26.375 6.390625 33.015625 6.390625 
Q 39.65625 6.390625 43.53125 10.953125 
Q 47.40625 15.53125 47.40625 23.390625 
Q 47.40625 31.296875 43.53125 35.828125 
Q 39.65625 40.375 33.015625 40.375 
z
M 52.59375 71.296875 
L 52.59375 62.3125 
Q 48.875 64.0625 45.09375 64.984375 
Q 41.3125 65.921875 37.59375 65.921875 
Q 27.828125 65.921875 22.671875 59.328125 
Q 17.53125 52.734375 16.796875 39.40625 
Q 19.671875 43.65625 24.015625 45.921875 
Q 28.375 48.1875 33.59375 48.1875 
Q 44.578125 48.1875 50.953125 41.515625 
Q 57.328125 34.859375 57.328125 23.390625 
Q 57.328125 12.15625 50.6875 5.359375 
Q 44.046875 -1.421875 33.015625 -1.421875 
Q 20.359375 -1.421875 13.671875 8.265625 
Q 6.984375 17.96875 6.984375 36.375 
Q 6.984375 53.65625 15.1875 63.9375 
Q 23.390625 74.21875 37.203125 74.21875 
Q 40.921875 74.21875 44.703125 73.484375 
Q 48.484375 72.75 52.59375 71.296875 
z
" id="DejaVuSans-54"/>
       </defs>
       <use xlink:href="#DejaVuSans-54"/>
       <use x="63.623047" xlink:href="#DejaVuSans-48"/>
      </g>
     </g>
    </g>
    <g id="xtick_5">
     <g id="line2d_9">
      <path clip-path="url(#p1171d511c9)" d="M 336.179835 307.584 
L 336.179835 41.472 
" style="fill:none;stroke:#b0b0b0;stroke-linecap:square;stroke-width:0.8;"/>
     </g>
     <g id="line2d_10">
      <g>
       <use style="stroke:#000000;stroke-width:0.8;" x="336.179835" xlink:href="#maaf21a2cef" y="307.584"/>
      </g>
     </g>
     <g id="text_5">
      <!-- 80 -->
      <g transform="translate(329.817335 322.182437)scale(0.1 -0.1)">
       <defs>
        <path d="M 31.78125 34.625 
Q 24.75 34.625 20.71875 30.859375 
Q 16.703125 27.09375 16.703125 20.515625 
Q 16.703125 13.921875 20.71875 10.15625 
Q 24.75 6.390625 31.78125 6.390625 
Q 38.8125 6.390625 42.859375 10.171875 
Q 46.921875 13.96875 46.921875 20.515625 
Q 46.921875 27.09375 42.890625 30.859375 
Q 38.875 34.625 31.78125 34.625 
z
M 21.921875 38.8125 
Q 15.578125 40.375 12.03125 44.71875 
Q 8.5 49.078125 8.5 55.328125 
Q 8.5 64.0625 14.71875 69.140625 
Q 20.953125 74.21875 31.78125 74.21875 
Q 42.671875 74.21875 48.875 69.140625 
Q 55.078125 64.0625 55.078125 55.328125 
Q 55.078125 49.078125 51.53125 44.71875 
Q 48 40.375 41.703125 38.8125 
Q 48.828125 37.15625 52.796875 32.3125 
Q 56.78125 27.484375 56.78125 20.515625 
Q 56.78125 9.90625 50.3125 4.234375 
Q 43.84375 -1.421875 31.78125 -1.421875 
Q 19.734375 -1.421875 13.25 4.234375 
Q 6.78125 9.90625 6.78125 20.515625 
Q 6.78125 27.484375 10.78125 32.3125 
Q 14.796875 37.15625 21.921875 38.8125 
z
M 18.3125 54.390625 
Q 18.3125 48.734375 21.84375 45.5625 
Q 25.390625 42.390625 31.78125 42.390625 
Q 38.140625 42.390625 41.71875 45.5625 
Q 45.3125 48.734375 45.3125 54.390625 
Q 45.3125 60.0625 41.71875 63.234375 
Q 38.140625 66.40625 31.78125 66.40625 
Q 25.390625 66.40625 21.84375 63.234375 
Q 18.3125 60.0625 18.3125 54.390625 
z
" id="DejaVuSans-56"/>
       </defs>
       <use xlink:href="#DejaVuSans-56"/>
       <use x="63.623047" xlink:href="#DejaVuSans-48"/>
      </g>
     </g>
    </g>
    <g id="xtick_6">
     <g id="line2d_11">
      <path clip-path="url(#p1171d511c9)" d="M 401.766612 307.584 
L 401.766612 41.472 
" style="fill:none;stroke:#b0b0b0;stroke-linecap:square;stroke-width:0.8;"/>
     </g>
     <g id="line2d_12">
      <g>
       <use style="stroke:#000000;stroke-width:0.8;" x="401.766612" xlink:href="#maaf21a2cef" y="307.584"/>
      </g>
     </g>
     <g id="text_6">
      <!-- 100 -->
      <g transform="translate(392.222862 322.182437)scale(0.1 -0.1)">
       <defs>
        <path d="M 12.40625 8.296875 
L 28.515625 8.296875 
L 28.515625 63.921875 
L 10.984375 60.40625 
L 10.984375 69.390625 
L 28.421875 72.90625 
L 38.28125 72.90625 
L 38.28125 8.296875 
L 54.390625 8.296875 
L 54.390625 0 
L 12.40625 0 
z
" id="DejaVuSans-49"/>
       </defs>
       <use xlink:href="#DejaVuSans-49"/>
       <use x="63.623047" xlink:href="#DejaVuSans-48"/>
       <use x="127.246094" xlink:href="#DejaVuSans-48"/>
      </g>
     </g>
    </g>
    <g id="text_7">
     <!-- $\mathrm{Time \ steps}$ -->
     <g transform="translate(208.71 335.862125)scale(0.1 -0.1)">
      <defs>
       <path d="M -0.296875 72.90625 
L 61.375 72.90625 
L 61.375 64.59375 
L 35.5 64.59375 
L 35.5 0 
L 25.59375 0 
L 25.59375 64.59375 
L -0.296875 64.59375 
z
" id="DejaVuSans-84"/>
       <path d="M 9.421875 54.6875 
L 18.40625 54.6875 
L 18.40625 0 
L 9.421875 0 
z
M 9.421875 75.984375 
L 18.40625 75.984375 
L 18.40625 64.59375 
L 9.421875 64.59375 
z
" id="DejaVuSans-105"/>
       <path d="M 52 44.1875 
Q 55.375 50.25 60.0625 53.125 
Q 64.75 56 71.09375 56 
Q 79.640625 56 84.28125 50.015625 
Q 88.921875 44.046875 88.921875 33.015625 
L 88.921875 0 
L 79.890625 0 
L 79.890625 32.71875 
Q 79.890625 40.578125 77.09375 44.375 
Q 74.3125 48.1875 68.609375 48.1875 
Q 61.625 48.1875 57.5625 43.546875 
Q 53.515625 38.921875 53.515625 30.90625 
L 53.515625 0 
L 44.484375 0 
L 44.484375 32.71875 
Q 44.484375 40.625 41.703125 44.40625 
Q 38.921875 48.1875 33.109375 48.1875 
Q 26.21875 48.1875 22.15625 43.53125 
Q 18.109375 38.875 18.109375 30.90625 
L 18.109375 0 
L 9.078125 0 
L 9.078125 54.6875 
L 18.109375 54.6875 
L 18.109375 46.1875 
Q 21.1875 51.21875 25.484375 53.609375 
Q 29.78125 56 35.6875 56 
Q 41.65625 56 45.828125 52.96875 
Q 50 49.953125 52 44.1875 
z
" id="DejaVuSans-109"/>
       <path d="M 56.203125 29.59375 
L 56.203125 25.203125 
L 14.890625 25.203125 
Q 15.484375 15.921875 20.484375 11.0625 
Q 25.484375 6.203125 34.421875 6.203125 
Q 39.59375 6.203125 44.453125 7.46875 
Q 49.3125 8.734375 54.109375 11.28125 
L 54.109375 2.78125 
Q 49.265625 0.734375 44.1875 -0.34375 
Q 39.109375 -1.421875 33.890625 -1.421875 
Q 20.796875 -1.421875 13.15625 6.1875 
Q 5.515625 13.8125 5.515625 26.8125 
Q 5.515625 40.234375 12.765625 48.109375 
Q 20.015625 56 32.328125 56 
Q 43.359375 56 49.78125 48.890625 
Q 56.203125 41.796875 56.203125 29.59375 
z
M 47.21875 32.234375 
Q 47.125 39.59375 43.09375 43.984375 
Q 39.0625 48.390625 32.421875 48.390625 
Q 24.90625 48.390625 20.390625 44.140625 
Q 15.875 39.890625 15.1875 32.171875 
z
" id="DejaVuSans-101"/>
       <path d="M 44.28125 53.078125 
L 44.28125 44.578125 
Q 40.484375 46.53125 36.375 47.5 
Q 32.28125 48.484375 27.875 48.484375 
Q 21.1875 48.484375 17.84375 46.4375 
Q 14.5 44.390625 14.5 40.28125 
Q 14.5 37.15625 16.890625 35.375 
Q 19.28125 33.59375 26.515625 31.984375 
L 29.59375 31.296875 
Q 39.15625 29.25 43.1875 25.515625 
Q 47.21875 21.78125 47.21875 15.09375 
Q 47.21875 7.46875 41.1875 3.015625 
Q 35.15625 -1.421875 24.609375 -1.421875 
Q 20.21875 -1.421875 15.453125 -0.5625 
Q 10.6875 0.296875 5.421875 2 
L 5.421875 11.28125 
Q 10.40625 8.6875 15.234375 7.390625 
Q 20.0625 6.109375 24.8125 6.109375 
Q 31.15625 6.109375 34.5625 8.28125 
Q 37.984375 10.453125 37.984375 14.40625 
Q 37.984375 18.0625 35.515625 20.015625 
Q 33.0625 21.96875 24.703125 23.78125 
L 21.578125 24.515625 
Q 13.234375 26.265625 9.515625 29.90625 
Q 5.8125 33.546875 5.8125 39.890625 
Q 5.8125 47.609375 11.28125 51.796875 
Q 16.75 56 26.8125 56 
Q 31.78125 56 36.171875 55.265625 
Q 40.578125 54.546875 44.28125 53.078125 
z
" id="DejaVuSans-115"/>
       <path d="M 18.3125 70.21875 
L 18.3125 54.6875 
L 36.8125 54.6875 
L 36.8125 47.703125 
L 18.3125 47.703125 
L 18.3125 18.015625 
Q 18.3125 11.328125 20.140625 9.421875 
Q 21.96875 7.515625 27.59375 7.515625 
L 36.8125 7.515625 
L 36.8125 0 
L 27.59375 0 
Q 17.1875 0 13.234375 3.875 
Q 9.28125 7.765625 9.28125 18.015625 
L 9.28125 47.703125 
L 2.6875 47.703125 
L 2.6875 54.6875 
L 9.28125 54.6875 
L 9.28125 70.21875 
z
" id="DejaVuSans-116"/>
       <path d="M 18.109375 8.203125 
L 18.109375 -20.796875 
L 9.078125 -20.796875 
L 9.078125 54.6875 
L 18.109375 54.6875 
L 18.109375 46.390625 
Q 20.953125 51.265625 25.265625 53.625 
Q 29.59375 56 35.59375 56 
Q 45.5625 56 51.78125 48.09375 
Q 58.015625 40.1875 58.015625 27.296875 
Q 58.015625 14.40625 51.78125 6.484375 
Q 45.5625 -1.421875 35.59375 -1.421875 
Q 29.59375 -1.421875 25.265625 0.953125 
Q 20.953125 3.328125 18.109375 8.203125 
z
M 48.6875 27.296875 
Q 48.6875 37.203125 44.609375 42.84375 
Q 40.53125 48.484375 33.40625 48.484375 
Q 26.265625 48.484375 22.1875 42.84375 
Q 18.109375 37.203125 18.109375 27.296875 
Q 18.109375 17.390625 22.1875 11.75 
Q 26.265625 6.109375 33.40625 6.109375 
Q 40.53125 6.109375 44.609375 11.75 
Q 48.6875 17.390625 48.6875 27.296875 
z
" id="DejaVuSans-112"/>
      </defs>
      <use transform="translate(0 0.015625)" xlink:href="#DejaVuSans-84"/>
      <use transform="translate(61.083984 0.015625)" xlink:href="#DejaVuSans-105"/>
      <use transform="translate(88.867188 0.015625)" xlink:href="#DejaVuSans-109"/>
      <use transform="translate(186.279297 0.015625)" xlink:href="#DejaVuSans-101"/>
      <use transform="translate(280.273113 0.015625)" xlink:href="#DejaVuSans-115"/>
      <use transform="translate(332.372722 0.015625)" xlink:href="#DejaVuSans-116"/>
      <use transform="translate(371.581707 0.015625)" xlink:href="#DejaVuSans-101"/>
      <use transform="translate(433.105144 0.015625)" xlink:href="#DejaVuSans-112"/>
      <use transform="translate(496.581707 0.015625)" xlink:href="#DejaVuSans-115"/>
     </g>
    </g>
   </g>
   <g id="matplotlib.axis_2">
    <g id="ytick_1">
     <g id="line2d_13">
      <path clip-path="url(#p1171d511c9)" d="M 57.6 282.272258 
L 414.72 282.272258 
" style="fill:none;stroke:#b0b0b0;stroke-linecap:square;stroke-width:0.8;"/>
     </g>
     <g id="line2d_14">
      <defs>
       <path d="M 0 0 
L -3.5 0 
" id="m3accc0d445" style="stroke:#000000;stroke-width:0.8;"/>
      </defs>
      <g>
       <use style="stroke:#000000;stroke-width:0.8;" x="57.6" xlink:href="#m3accc0d445" y="282.272258"/>
      </g>
     </g>
     <g id="text_8">
      <!-- −10 -->
      <g transform="translate(29.495313 286.071477)scale(0.1 -0.1)">
       <defs>
        <path d="M 10.59375 35.5 
L 73.1875 35.5 
L 73.1875 27.203125 
L 10.59375 27.203125 
z
" id="DejaVuSans-8722"/>
       </defs>
       <use xlink:href="#DejaVuSans-8722"/>
       <use x="83.789062" xlink:href="#DejaVuSans-49"/>
       <use x="147.412109" xlink:href="#DejaVuSans-48"/>
      </g>
     </g>
    </g>
    <g id="ytick_2">
     <g id="line2d_15">
      <path clip-path="url(#p1171d511c9)" d="M 57.6 249.89886 
L 414.72 249.89886 
" style="fill:none;stroke:#b0b0b0;stroke-linecap:square;stroke-width:0.8;"/>
     </g>
     <g id="line2d_16">
      <g>
       <use style="stroke:#000000;stroke-width:0.8;" x="57.6" xlink:href="#m3accc0d445" y="249.89886"/>
      </g>
     </g>
     <g id="text_9">
      <!-- 0 -->
      <g transform="translate(44.2375 253.698079)scale(0.1 -0.1)">
       <use xlink:href="#DejaVuSans-48"/>
      </g>
     </g>
    </g>
    <g id="ytick_3">
     <g id="line2d_17">
      <path clip-path="url(#p1171d511c9)" d="M 57.6 217.525463 
L 414.72 217.525463 
" style="fill:none;stroke:#b0b0b0;stroke-linecap:square;stroke-width:0.8;"/>
     </g>
     <g id="line2d_18">
      <g>
       <use style="stroke:#000000;stroke-width:0.8;" x="57.6" xlink:href="#m3accc0d445" y="217.525463"/>
      </g>
     </g>
     <g id="text_10">
      <!-- 10 -->
      <g transform="translate(37.875 221.324681)scale(0.1 -0.1)">
       <use xlink:href="#DejaVuSans-49"/>
       <use x="63.623047" xlink:href="#DejaVuSans-48"/>
      </g>
     </g>
    </g>
    <g id="ytick_4">
     <g id="line2d_19">
      <path clip-path="url(#p1171d511c9)" d="M 57.6 185.152065 
L 414.72 185.152065 
" style="fill:none;stroke:#b0b0b0;stroke-linecap:square;stroke-width:0.8;"/>
     </g>
     <g id="line2d_20">
      <g>
       <use style="stroke:#000000;stroke-width:0.8;" x="57.6" xlink:href="#m3accc0d445" y="185.152065"/>
      </g>
     </g>
     <g id="text_11">
      <!-- 20 -->
      <g transform="translate(37.875 188.951284)scale(0.1 -0.1)">
       <use xlink:href="#DejaVuSans-50"/>
       <use x="63.623047" xlink:href="#DejaVuSans-48"/>
      </g>
     </g>
    </g>
    <g id="ytick_5">
     <g id="line2d_21">
      <path clip-path="url(#p1171d511c9)" d="M 57.6 152.778667 
L 414.72 152.778667 
" style="fill:none;stroke:#b0b0b0;stroke-linecap:square;stroke-width:0.8;"/>
     </g>
     <g id="line2d_22">
      <g>
       <use style="stroke:#000000;stroke-width:0.8;" x="57.6" xlink:href="#m3accc0d445" y="152.778667"/>
      </g>
     </g>
     <g id="text_12">
      <!-- 30 -->
      <g transform="translate(37.875 156.577886)scale(0.1 -0.1)">
       <defs>
        <path d="M 40.578125 39.3125 
Q 47.65625 37.796875 51.625 33 
Q 55.609375 28.21875 55.609375 21.1875 
Q 55.609375 10.40625 48.1875 4.484375 
Q 40.765625 -1.421875 27.09375 -1.421875 
Q 22.515625 -1.421875 17.65625 -0.515625 
Q 12.796875 0.390625 7.625 2.203125 
L 7.625 11.71875 
Q 11.71875 9.328125 16.59375 8.109375 
Q 21.484375 6.890625 26.8125 6.890625 
Q 36.078125 6.890625 40.9375 10.546875 
Q 45.796875 14.203125 45.796875 21.1875 
Q 45.796875 27.640625 41.28125 31.265625 
Q 36.765625 34.90625 28.71875 34.90625 
L 20.21875 34.90625 
L 20.21875 43.015625 
L 29.109375 43.015625 
Q 36.375 43.015625 40.234375 45.921875 
Q 44.09375 48.828125 44.09375 54.296875 
Q 44.09375 59.90625 40.109375 62.90625 
Q 36.140625 65.921875 28.71875 65.921875 
Q 24.65625 65.921875 20.015625 65.03125 
Q 15.375 64.15625 9.8125 62.3125 
L 9.8125 71.09375 
Q 15.4375 72.65625 20.34375 73.4375 
Q 25.25 74.21875 29.59375 74.21875 
Q 40.828125 74.21875 47.359375 69.109375 
Q 53.90625 64.015625 53.90625 55.328125 
Q 53.90625 49.265625 50.4375 45.09375 
Q 46.96875 40.921875 40.578125 39.3125 
z
" id="DejaVuSans-51"/>
       </defs>
       <use xlink:href="#DejaVuSans-51"/>
       <use x="63.623047" xlink:href="#DejaVuSans-48"/>
      </g>
     </g>
    </g>
    <g id="ytick_6">
     <g id="line2d_23">
      <path clip-path="url(#p1171d511c9)" d="M 57.6 120.405269 
L 414.72 120.405269 
" style="fill:none;stroke:#b0b0b0;stroke-linecap:square;stroke-width:0.8;"/>
     </g>
     <g id="line2d_24">
      <g>
       <use style="stroke:#000000;stroke-width:0.8;" x="57.6" xlink:href="#m3accc0d445" y="120.405269"/>
      </g>
     </g>
     <g id="text_13">
      <!-- 40 -->
      <g transform="translate(37.875 124.204488)scale(0.1 -0.1)">
       <use xlink:href="#DejaVuSans-52"/>
       <use x="63.623047" xlink:href="#DejaVuSans-48"/>
      </g>
     </g>
    </g>
    <g id="ytick_7">
     <g id="line2d_25">
      <path clip-path="url(#p1171d511c9)" d="M 57.6 88.031871 
L 414.72 88.031871 
" style="fill:none;stroke:#b0b0b0;stroke-linecap:square;stroke-width:0.8;"/>
     </g>
     <g id="line2d_26">
      <g>
       <use style="stroke:#000000;stroke-width:0.8;" x="57.6" xlink:href="#m3accc0d445" y="88.031871"/>
      </g>
     </g>
     <g id="text_14">
      <!-- 50 -->
      <g transform="translate(37.875 91.83109)scale(0.1 -0.1)">
       <defs>
        <path d="M 10.796875 72.90625 
L 49.515625 72.90625 
L 49.515625 64.59375 
L 19.828125 64.59375 
L 19.828125 46.734375 
Q 21.96875 47.46875 24.109375 47.828125 
Q 26.265625 48.1875 28.421875 48.1875 
Q 40.625 48.1875 47.75 41.5 
Q 54.890625 34.8125 54.890625 23.390625 
Q 54.890625 11.625 47.5625 5.09375 
Q 40.234375 -1.421875 26.90625 -1.421875 
Q 22.3125 -1.421875 17.546875 -0.640625 
Q 12.796875 0.140625 7.71875 1.703125 
L 7.71875 11.625 
Q 12.109375 9.234375 16.796875 8.0625 
Q 21.484375 6.890625 26.703125 6.890625 
Q 35.15625 6.890625 40.078125 11.328125 
Q 45.015625 15.765625 45.015625 23.390625 
Q 45.015625 31 40.078125 35.4375 
Q 35.15625 39.890625 26.703125 39.890625 
Q 22.75 39.890625 18.8125 39.015625 
Q 14.890625 38.140625 10.796875 36.28125 
z
" id="DejaVuSans-53"/>
       </defs>
       <use xlink:href="#DejaVuSans-53"/>
       <use x="63.623047" xlink:href="#DejaVuSans-48"/>
      </g>
     </g>
    </g>
    <g id="ytick_8">
     <g id="line2d_27">
      <path clip-path="url(#p1171d511c9)" d="M 57.6 55.658474 
L 414.72 55.658474 
" style="fill:none;stroke:#b0b0b0;stroke-linecap:square;stroke-width:0.8;"/>
     </g>
     <g id="line2d_28">
      <g>
       <use style="stroke:#000000;stroke-width:0.8;" x="57.6" xlink:href="#m3accc0d445" y="55.658474"/>
      </g>
     </g>
     <g id="text_15">
      <!-- 60 -->
      <g transform="translate(37.875 59.457692)scale(0.1 -0.1)">
       <use xlink:href="#DejaVuSans-54"/>
       <use x="63.623047" xlink:href="#DejaVuSans-48"/>
      </g>
     </g>
    </g>
    <g id="text_16">
     <!-- $\mathrm{Mean \ accumulated \ reward}$ -->
     <g transform="translate(23.415625 241.378)rotate(-90)scale(0.1 -0.1)">
      <defs>
       <path d="M 9.8125 72.90625 
L 24.515625 72.90625 
L 43.109375 23.296875 
L 61.8125 72.90625 
L 76.515625 72.90625 
L 76.515625 0 
L 66.890625 0 
L 66.890625 64.015625 
L 48.09375 14.015625 
L 38.1875 14.015625 
L 19.390625 64.015625 
L 19.390625 0 
L 9.8125 0 
z
" id="DejaVuSans-77"/>
       <path d="M 34.28125 27.484375 
Q 23.390625 27.484375 19.1875 25 
Q 14.984375 22.515625 14.984375 16.5 
Q 14.984375 11.71875 18.140625 8.90625 
Q 21.296875 6.109375 26.703125 6.109375 
Q 34.1875 6.109375 38.703125 11.40625 
Q 43.21875 16.703125 43.21875 25.484375 
L 43.21875 27.484375 
z
M 52.203125 31.203125 
L 52.203125 0 
L 43.21875 0 
L 43.21875 8.296875 
Q 40.140625 3.328125 35.546875 0.953125 
Q 30.953125 -1.421875 24.3125 -1.421875 
Q 15.921875 -1.421875 10.953125 3.296875 
Q 6 8.015625 6 15.921875 
Q 6 25.140625 12.171875 29.828125 
Q 18.359375 34.515625 30.609375 34.515625 
L 43.21875 34.515625 
L 43.21875 35.40625 
Q 43.21875 41.609375 39.140625 45 
Q 35.0625 48.390625 27.6875 48.390625 
Q 23 48.390625 18.546875 47.265625 
Q 14.109375 46.140625 10.015625 43.890625 
L 10.015625 52.203125 
Q 14.9375 54.109375 19.578125 55.046875 
Q 24.21875 56 28.609375 56 
Q 40.484375 56 46.34375 49.84375 
Q 52.203125 43.703125 52.203125 31.203125 
z
" id="DejaVuSans-97"/>
       <path d="M 54.890625 33.015625 
L 54.890625 0 
L 45.90625 0 
L 45.90625 32.71875 
Q 45.90625 40.484375 42.875 44.328125 
Q 39.84375 48.1875 33.796875 48.1875 
Q 26.515625 48.1875 22.3125 43.546875 
Q 18.109375 38.921875 18.109375 30.90625 
L 18.109375 0 
L 9.078125 0 
L 9.078125 54.6875 
L 18.109375 54.6875 
L 18.109375 46.1875 
Q 21.34375 51.125 25.703125 53.5625 
Q 30.078125 56 35.796875 56 
Q 45.21875 56 50.046875 50.171875 
Q 54.890625 44.34375 54.890625 33.015625 
z
" id="DejaVuSans-110"/>
       <path d="M 48.78125 52.59375 
L 48.78125 44.1875 
Q 44.96875 46.296875 41.140625 47.34375 
Q 37.3125 48.390625 33.40625 48.390625 
Q 24.65625 48.390625 19.8125 42.84375 
Q 14.984375 37.3125 14.984375 27.296875 
Q 14.984375 17.28125 19.8125 11.734375 
Q 24.65625 6.203125 33.40625 6.203125 
Q 37.3125 6.203125 41.140625 7.25 
Q 44.96875 8.296875 48.78125 10.40625 
L 48.78125 2.09375 
Q 45.015625 0.34375 40.984375 -0.53125 
Q 36.96875 -1.421875 32.421875 -1.421875 
Q 20.0625 -1.421875 12.78125 6.34375 
Q 5.515625 14.109375 5.515625 27.296875 
Q 5.515625 40.671875 12.859375 48.328125 
Q 20.21875 56 33.015625 56 
Q 37.15625 56 41.109375 55.140625 
Q 45.0625 54.296875 48.78125 52.59375 
z
" id="DejaVuSans-99"/>
       <path d="M 8.5 21.578125 
L 8.5 54.6875 
L 17.484375 54.6875 
L 17.484375 21.921875 
Q 17.484375 14.15625 20.5 10.265625 
Q 23.53125 6.390625 29.59375 6.390625 
Q 36.859375 6.390625 41.078125 11.03125 
Q 45.3125 15.671875 45.3125 23.6875 
L 45.3125 54.6875 
L 54.296875 54.6875 
L 54.296875 0 
L 45.3125 0 
L 45.3125 8.40625 
Q 42.046875 3.421875 37.71875 1 
Q 33.40625 -1.421875 27.6875 -1.421875 
Q 18.265625 -1.421875 13.375 4.4375 
Q 8.5 10.296875 8.5 21.578125 
z
M 31.109375 56 
z
" id="DejaVuSans-117"/>
       <path d="M 9.421875 75.984375 
L 18.40625 75.984375 
L 18.40625 0 
L 9.421875 0 
z
" id="DejaVuSans-108"/>
       <path d="M 45.40625 46.390625 
L 45.40625 75.984375 
L 54.390625 75.984375 
L 54.390625 0 
L 45.40625 0 
L 45.40625 8.203125 
Q 42.578125 3.328125 38.25 0.953125 
Q 33.9375 -1.421875 27.875 -1.421875 
Q 17.96875 -1.421875 11.734375 6.484375 
Q 5.515625 14.40625 5.515625 27.296875 
Q 5.515625 40.1875 11.734375 48.09375 
Q 17.96875 56 27.875 56 
Q 33.9375 56 38.25 53.625 
Q 42.578125 51.265625 45.40625 46.390625 
z
M 14.796875 27.296875 
Q 14.796875 17.390625 18.875 11.75 
Q 22.953125 6.109375 30.078125 6.109375 
Q 37.203125 6.109375 41.296875 11.75 
Q 45.40625 17.390625 45.40625 27.296875 
Q 45.40625 37.203125 41.296875 42.84375 
Q 37.203125 48.484375 30.078125 48.484375 
Q 22.953125 48.484375 18.875 42.84375 
Q 14.796875 37.203125 14.796875 27.296875 
z
" id="DejaVuSans-100"/>
       <path d="M 41.109375 46.296875 
Q 39.59375 47.171875 37.8125 47.578125 
Q 36.03125 48 33.890625 48 
Q 26.265625 48 22.1875 43.046875 
Q 18.109375 38.09375 18.109375 28.8125 
L 18.109375 0 
L 9.078125 0 
L 9.078125 54.6875 
L 18.109375 54.6875 
L 18.109375 46.1875 
Q 20.953125 51.171875 25.484375 53.578125 
Q 30.03125 56 36.53125 56 
Q 37.453125 56 38.578125 55.875 
Q 39.703125 55.765625 41.0625 55.515625 
z
" id="DejaVuSans-114"/>
       <path d="M 4.203125 54.6875 
L 13.1875 54.6875 
L 24.421875 12.015625 
L 35.59375 54.6875 
L 46.1875 54.6875 
L 57.421875 12.015625 
L 68.609375 54.6875 
L 77.59375 54.6875 
L 63.28125 0 
L 52.6875 0 
L 40.921875 44.828125 
L 29.109375 0 
L 18.5 0 
z
" id="DejaVuSans-119"/>
      </defs>
      <use transform="translate(0 0.015625)" xlink:href="#DejaVuSans-77"/>
      <use transform="translate(86.279297 0.015625)" xlink:href="#DejaVuSans-101"/>
      <use transform="translate(147.802734 0.015625)" xlink:href="#DejaVuSans-97"/>
      <use transform="translate(209.082031 0.015625)" xlink:href="#DejaVuSans-110"/>
      <use transform="translate(304.931316 0.015625)" xlink:href="#DejaVuSans-97"/>
      <use transform="translate(366.210613 0.015625)" xlink:href="#DejaVuSans-99"/>
      <use transform="translate(421.191082 0.015625)" xlink:href="#DejaVuSans-99"/>
      <use transform="translate(476.17155 0.015625)" xlink:href="#DejaVuSans-117"/>
      <use transform="translate(539.550457 0.015625)" xlink:href="#DejaVuSans-109"/>
      <use transform="translate(636.962566 0.015625)" xlink:href="#DejaVuSans-117"/>
      <use transform="translate(700.341472 0.015625)" xlink:href="#DejaVuSans-108"/>
      <use transform="translate(728.124675 0.015625)" xlink:href="#DejaVuSans-97"/>
      <use transform="translate(789.403972 0.015625)" xlink:href="#DejaVuSans-116"/>
      <use transform="translate(828.612957 0.015625)" xlink:href="#DejaVuSans-101"/>
      <use transform="translate(890.136394 0.015625)" xlink:href="#DejaVuSans-100"/>
      <use transform="translate(986.083335 0.015625)" xlink:href="#DejaVuSans-114"/>
      <use transform="translate(1027.196616 0.015625)" xlink:href="#DejaVuSans-101"/>
      <use transform="translate(1088.720054 0.015625)" xlink:href="#DejaVuSans-119"/>
      <use transform="translate(1170.507163 0.015625)" xlink:href="#DejaVuSans-97"/>
      <use transform="translate(1231.78646 0.015625)" xlink:href="#DejaVuSans-114"/>
      <use transform="translate(1272.899741 0.015625)" xlink:href="#DejaVuSans-100"/>
     </g>
    </g>
   </g>
   <g id="LineCollection_1">
    <path clip-path="url(#p1171d511c9)" d="M 73.832727 249.89886 
L 73.832727 249.89886 
" style="fill:none;stroke:#0000ff;stroke-width:1.5;"/>
    <path clip-path="url(#p1171d511c9)" d="M 90.229421 278.966051 
L 90.229421 129.208804 
" style="fill:none;stroke:#0000ff;stroke-width:1.5;"/>
    <path clip-path="url(#p1171d511c9)" d="M 106.626116 193.086996 
L 106.626116 56.984924 
" style="fill:none;stroke:#0000ff;stroke-width:1.5;"/>
    <path clip-path="url(#p1171d511c9)" d="M 123.02281 135.698273 
L 123.02281 61.644828 
" style="fill:none;stroke:#0000ff;stroke-width:1.5;"/>
    <path clip-path="url(#p1171d511c9)" d="M 139.419504 117.207082 
L 139.419504 70.31652 
" style="fill:none;stroke:#0000ff;stroke-width:1.5;"/>
    <path clip-path="url(#p1171d511c9)" d="M 155.816198 114.214574 
L 155.816198 72.183081 
" style="fill:none;stroke:#0000ff;stroke-width:1.5;"/>
    <path clip-path="url(#p1171d511c9)" d="M 172.212893 113.396866 
L 172.212893 72.678674 
" style="fill:none;stroke:#0000ff;stroke-width:1.5;"/>
    <path clip-path="url(#p1171d511c9)" d="M 188.609587 113.396866 
L 188.609587 72.678674 
" style="fill:none;stroke:#0000ff;stroke-width:1.5;"/>
    <path clip-path="url(#p1171d511c9)" d="M 205.006281 113.396866 
L 205.006281 72.678674 
" style="fill:none;stroke:#0000ff;stroke-width:1.5;"/>
    <path clip-path="url(#p1171d511c9)" d="M 221.402975 113.396866 
L 221.402975 72.678674 
" style="fill:none;stroke:#0000ff;stroke-width:1.5;"/>
    <path clip-path="url(#p1171d511c9)" d="M 237.799669 113.396866 
L 237.799669 72.678674 
" style="fill:none;stroke:#0000ff;stroke-width:1.5;"/>
    <path clip-path="url(#p1171d511c9)" d="M 254.196364 113.396866 
L 254.196364 72.678674 
" style="fill:none;stroke:#0000ff;stroke-width:1.5;"/>
    <path clip-path="url(#p1171d511c9)" d="M 270.593058 113.396866 
L 270.593058 72.678674 
" style="fill:none;stroke:#0000ff;stroke-width:1.5;"/>
    <path clip-path="url(#p1171d511c9)" d="M 286.989752 113.396866 
L 286.989752 72.678674 
" style="fill:none;stroke:#0000ff;stroke-width:1.5;"/>
    <path clip-path="url(#p1171d511c9)" d="M 303.386446 113.396866 
L 303.386446 72.678674 
" style="fill:none;stroke:#0000ff;stroke-width:1.5;"/>
    <path clip-path="url(#p1171d511c9)" d="M 319.78314 113.396866 
L 319.78314 72.678674 
" style="fill:none;stroke:#0000ff;stroke-width:1.5;"/>
    <path clip-path="url(#p1171d511c9)" d="M 336.179835 113.396866 
L 336.179835 72.678674 
" style="fill:none;stroke:#0000ff;stroke-width:1.5;"/>
    <path clip-path="url(#p1171d511c9)" d="M 352.576529 113.396866 
L 352.576529 72.678674 
" style="fill:none;stroke:#0000ff;stroke-width:1.5;"/>
    <path clip-path="url(#p1171d511c9)" d="M 368.973223 113.396866 
L 368.973223 72.678674 
" style="fill:none;stroke:#0000ff;stroke-width:1.5;"/>
    <path clip-path="url(#p1171d511c9)" d="M 385.369917 113.396866 
L 385.369917 72.678674 
" style="fill:none;stroke:#0000ff;stroke-width:1.5;"/>
   </g>
   <g id="LineCollection_2">
    <path clip-path="url(#p1171d511c9)" d="M 73.832727 249.89886 
L 73.832727 249.89886 
" style="fill:none;stroke:#4b0082;stroke-width:1.5;"/>
    <path clip-path="url(#p1171d511c9)" d="M 90.229421 270.811745 
L 90.229421 228.518828 
" style="fill:none;stroke:#4b0082;stroke-width:1.5;"/>
    <path clip-path="url(#p1171d511c9)" d="M 106.626116 277.21792 
L 106.626116 122.373775 
" style="fill:none;stroke:#4b0082;stroke-width:1.5;"/>
    <path clip-path="url(#p1171d511c9)" d="M 123.02281 237.410391 
L 123.02281 74.959925 
" style="fill:none;stroke:#4b0082;stroke-width:1.5;"/>
    <path clip-path="url(#p1171d511c9)" d="M 139.419504 202.519197 
L 139.419504 59.094487 
" style="fill:none;stroke:#4b0082;stroke-width:1.5;"/>
    <path clip-path="url(#p1171d511c9)" d="M 155.816198 181.810403 
L 155.816198 55.058351 
" style="fill:none;stroke:#4b0082;stroke-width:1.5;"/>
    <path clip-path="url(#p1171d511c9)" d="M 172.212893 165.877782 
L 172.212893 54.76413 
" style="fill:none;stroke:#4b0082;stroke-width:1.5;"/>
    <path clip-path="url(#p1171d511c9)" d="M 188.609587 161.25411 
L 188.609587 53.844505 
" style="fill:none;stroke:#4b0082;stroke-width:1.5;"/>
    <path clip-path="url(#p1171d511c9)" d="M 205.006281 156.495784 
L 205.006281 54.22789 
" style="fill:none;stroke:#4b0082;stroke-width:1.5;"/>
    <path clip-path="url(#p1171d511c9)" d="M 221.402975 152.844653 
L 221.402975 54.137951 
" style="fill:none;stroke:#4b0082;stroke-width:1.5;"/>
    <path clip-path="url(#p1171d511c9)" d="M 237.799669 152.062118 
L 237.799669 53.797777 
" style="fill:none;stroke:#4b0082;stroke-width:1.5;"/>
    <path clip-path="url(#p1171d511c9)" d="M 254.196364 149.734624 
L 254.196364 54.664583 
" style="fill:none;stroke:#4b0082;stroke-width:1.5;"/>
    <path clip-path="url(#p1171d511c9)" d="M 270.593058 149.71336 
L 270.593058 54.478657 
" style="fill:none;stroke:#4b0082;stroke-width:1.5;"/>
    <path clip-path="url(#p1171d511c9)" d="M 286.989752 149.046202 
L 286.989752 54.836973 
" style="fill:none;stroke:#4b0082;stroke-width:1.5;"/>
    <path clip-path="url(#p1171d511c9)" d="M 303.386446 147.387779 
L 303.386446 55.890337 
" style="fill:none;stroke:#4b0082;stroke-width:1.5;"/>
    <path clip-path="url(#p1171d511c9)" d="M 319.78314 148.086153 
L 319.78314 55.295557 
" style="fill:none;stroke:#4b0082;stroke-width:1.5;"/>
    <path clip-path="url(#p1171d511c9)" d="M 336.179835 147.640817 
L 336.179835 55.649925 
" style="fill:none;stroke:#4b0082;stroke-width:1.5;"/>
    <path clip-path="url(#p1171d511c9)" d="M 352.576529 148.537031 
L 352.576529 54.88806 
" style="fill:none;stroke:#4b0082;stroke-width:1.5;"/>
    <path clip-path="url(#p1171d511c9)" d="M 368.973223 149.219944 
L 368.973223 54.307124 
" style="fill:none;stroke:#4b0082;stroke-width:1.5;"/>
    <path clip-path="url(#p1171d511c9)" d="M 385.369917 150.061044 
L 385.369917 53.568 
" style="fill:none;stroke:#4b0082;stroke-width:1.5;"/>
   </g>
   <g id="LineCollection_3">
    <path clip-path="url(#p1171d511c9)" d="M 73.832727 249.89886 
L 73.832727 249.89886 
" style="fill:none;stroke:#008000;stroke-width:1.5;"/>
    <path clip-path="url(#p1171d511c9)" d="M 90.229421 267.568906 
L 90.229421 234.332439 
" style="fill:none;stroke:#008000;stroke-width:1.5;"/>
    <path clip-path="url(#p1171d511c9)" d="M 106.626116 285.678782 
L 106.626116 147.445278 
" style="fill:none;stroke:#008000;stroke-width:1.5;"/>
    <path clip-path="url(#p1171d511c9)" d="M 123.02281 205.307409 
L 123.02281 61.655979 
" style="fill:none;stroke:#008000;stroke-width:1.5;"/>
    <path clip-path="url(#p1171d511c9)" d="M 139.419504 175.276709 
L 139.419504 57.221636 
" style="fill:none;stroke:#008000;stroke-width:1.5;"/>
    <path clip-path="url(#p1171d511c9)" d="M 155.816198 164.290688 
L 155.816198 57.305592 
" style="fill:none;stroke:#008000;stroke-width:1.5;"/>
    <path clip-path="url(#p1171d511c9)" d="M 172.212893 156.622445 
L 172.212893 57.887945 
" style="fill:none;stroke:#008000;stroke-width:1.5;"/>
    <path clip-path="url(#p1171d511c9)" d="M 188.609587 148.705935 
L 188.609587 59.747069 
" style="fill:none;stroke:#008000;stroke-width:1.5;"/>
    <path clip-path="url(#p1171d511c9)" d="M 205.006281 142.045698 
L 205.006281 61.883447 
" style="fill:none;stroke:#008000;stroke-width:1.5;"/>
    <path clip-path="url(#p1171d511c9)" d="M 221.402975 138.551681 
L 221.402975 63.214598 
" style="fill:none;stroke:#008000;stroke-width:1.5;"/>
    <path clip-path="url(#p1171d511c9)" d="M 237.799669 135.255631 
L 237.799669 64.391161 
" style="fill:none;stroke:#008000;stroke-width:1.5;"/>
    <path clip-path="url(#p1171d511c9)" d="M 254.196364 133.208736 
L 254.196364 65.139883 
" style="fill:none;stroke:#008000;stroke-width:1.5;"/>
    <path clip-path="url(#p1171d511c9)" d="M 270.593058 130.888257 
L 270.593058 66.374882 
" style="fill:none;stroke:#008000;stroke-width:1.5;"/>
    <path clip-path="url(#p1171d511c9)" d="M 286.989752 127.635822 
L 286.989752 68.20483 
" style="fill:none;stroke:#008000;stroke-width:1.5;"/>
    <path clip-path="url(#p1171d511c9)" d="M 303.386446 127.396384 
L 303.386446 68.307976 
" style="fill:none;stroke:#008000;stroke-width:1.5;"/>
    <path clip-path="url(#p1171d511c9)" d="M 319.78314 126.176228 
L 319.78314 69.064868 
" style="fill:none;stroke:#008000;stroke-width:1.5;"/>
    <path clip-path="url(#p1171d511c9)" d="M 336.179835 124.612834 
L 336.179835 69.999247 
" style="fill:none;stroke:#008000;stroke-width:1.5;"/>
    <path clip-path="url(#p1171d511c9)" d="M 352.576529 123.425778 
L 352.576529 70.711062 
" style="fill:none;stroke:#008000;stroke-width:1.5;"/>
    <path clip-path="url(#p1171d511c9)" d="M 368.973223 123.461595 
L 368.973223 70.683338 
" style="fill:none;stroke:#008000;stroke-width:1.5;"/>
    <path clip-path="url(#p1171d511c9)" d="M 385.369917 122.696671 
L 385.369917 71.130355 
" style="fill:none;stroke:#008000;stroke-width:1.5;"/>
   </g>
   <g id="LineCollection_4">
    <path clip-path="url(#p1171d511c9)" d="M 73.832727 249.89886 
L 73.832727 249.89886 
" style="fill:none;stroke:#ff0000;stroke-width:1.5;"/>
    <path clip-path="url(#p1171d511c9)" d="M 90.229421 271.81965 
L 90.229421 226.306956 
" style="fill:none;stroke:#ff0000;stroke-width:1.5;"/>
    <path clip-path="url(#p1171d511c9)" d="M 106.626116 279.419195 
L 106.626116 215.641326 
" style="fill:none;stroke:#ff0000;stroke-width:1.5;"/>
    <path clip-path="url(#p1171d511c9)" d="M 123.02281 226.199268 
L 123.02281 70.217761 
" style="fill:none;stroke:#ff0000;stroke-width:1.5;"/>
    <path clip-path="url(#p1171d511c9)" d="M 139.419504 160.055007 
L 139.419504 58.648386 
" style="fill:none;stroke:#ff0000;stroke-width:1.5;"/>
    <path clip-path="url(#p1171d511c9)" d="M 155.816198 139.088782 
L 155.816198 63.552549 
" style="fill:none;stroke:#ff0000;stroke-width:1.5;"/>
    <path clip-path="url(#p1171d511c9)" d="M 172.212893 132.07901 
L 172.212893 66.108713 
" style="fill:none;stroke:#ff0000;stroke-width:1.5;"/>
    <path clip-path="url(#p1171d511c9)" d="M 188.609587 128.266789 
L 188.609587 67.901481 
" style="fill:none;stroke:#ff0000;stroke-width:1.5;"/>
    <path clip-path="url(#p1171d511c9)" d="M 205.006281 126.121443 
L 205.006281 68.950017 
" style="fill:none;stroke:#ff0000;stroke-width:1.5;"/>
    <path clip-path="url(#p1171d511c9)" d="M 221.402975 125.142986 
L 221.402975 69.469095 
" style="fill:none;stroke:#ff0000;stroke-width:1.5;"/>
    <path clip-path="url(#p1171d511c9)" d="M 237.799669 123.414499 
L 237.799669 70.409614 
" style="fill:none;stroke:#ff0000;stroke-width:1.5;"/>
    <path clip-path="url(#p1171d511c9)" d="M 254.196364 122.75488 
L 254.196364 70.759095 
" style="fill:none;stroke:#ff0000;stroke-width:1.5;"/>
    <path clip-path="url(#p1171d511c9)" d="M 270.593058 122.06148 
L 270.593058 71.138474 
" style="fill:none;stroke:#ff0000;stroke-width:1.5;"/>
    <path clip-path="url(#p1171d511c9)" d="M 286.989752 121.611264 
L 286.989752 71.433944 
" style="fill:none;stroke:#ff0000;stroke-width:1.5;"/>
    <path clip-path="url(#p1171d511c9)" d="M 303.386446 121.639189 
L 303.386446 71.412495 
" style="fill:none;stroke:#ff0000;stroke-width:1.5;"/>
    <path clip-path="url(#p1171d511c9)" d="M 319.78314 121.667297 
L 319.78314 71.390861 
" style="fill:none;stroke:#ff0000;stroke-width:1.5;"/>
    <path clip-path="url(#p1171d511c9)" d="M 336.179835 120.675621 
L 336.179835 72.063659 
" style="fill:none;stroke:#ff0000;stroke-width:1.5;"/>
    <path clip-path="url(#p1171d511c9)" d="M 352.576529 120.689239 
L 352.576529 72.053278 
" style="fill:none;stroke:#ff0000;stroke-width:1.5;"/>
    <path clip-path="url(#p1171d511c9)" d="M 368.973223 120.279912 
L 368.973223 72.302681 
" style="fill:none;stroke:#ff0000;stroke-width:1.5;"/>
    <path clip-path="url(#p1171d511c9)" d="M 385.369917 120.286913 
L 385.369917 72.297298 
" style="fill:none;stroke:#ff0000;stroke-width:1.5;"/>
   </g>
   <g id="LineCollection_5">
    <path clip-path="url(#p1171d511c9)" d="M 73.832727 249.89886 
L 73.832727 249.89886 
" style="fill:none;stroke:#808080;stroke-width:1.5;"/>
    <path clip-path="url(#p1171d511c9)" d="M 90.229421 286.087909 
L 90.229421 204.735582 
" style="fill:none;stroke:#808080;stroke-width:1.5;"/>
    <path clip-path="url(#p1171d511c9)" d="M 106.626116 295.488 
L 106.626116 171.631042 
" style="fill:none;stroke:#808080;stroke-width:1.5;"/>
    <path clip-path="url(#p1171d511c9)" d="M 123.02281 294.825707 
L 123.02281 143.798594 
" style="fill:none;stroke:#808080;stroke-width:1.5;"/>
    <path clip-path="url(#p1171d511c9)" d="M 139.419504 287.655688 
L 139.419504 119.865547 
" style="fill:none;stroke:#808080;stroke-width:1.5;"/>
    <path clip-path="url(#p1171d511c9)" d="M 155.816198 276.212344 
L 155.816198 100.668442 
" style="fill:none;stroke:#808080;stroke-width:1.5;"/>
    <path clip-path="url(#p1171d511c9)" d="M 172.212893 264.636871 
L 172.212893 87.911098 
" style="fill:none;stroke:#808080;stroke-width:1.5;"/>
    <path clip-path="url(#p1171d511c9)" d="M 188.609587 254.877833 
L 188.609587 79.68639 
" style="fill:none;stroke:#808080;stroke-width:1.5;"/>
    <path clip-path="url(#p1171d511c9)" d="M 205.006281 245.621204 
L 205.006281 73.168109 
" style="fill:none;stroke:#808080;stroke-width:1.5;"/>
    <path clip-path="url(#p1171d511c9)" d="M 221.402975 237.529287 
L 221.402975 68.505878 
" style="fill:none;stroke:#808080;stroke-width:1.5;"/>
    <path clip-path="url(#p1171d511c9)" d="M 237.799669 230.66917 
L 237.799669 65.559122 
" style="fill:none;stroke:#808080;stroke-width:1.5;"/>
    <path clip-path="url(#p1171d511c9)" d="M 254.196364 223.535952 
L 254.196364 63.452972 
" style="fill:none;stroke:#808080;stroke-width:1.5;"/>
    <path clip-path="url(#p1171d511c9)" d="M 270.593058 216.828147 
L 270.593058 61.867036 
" style="fill:none;stroke:#808080;stroke-width:1.5;"/>
    <path clip-path="url(#p1171d511c9)" d="M 286.989752 210.279951 
L 286.989752 60.610006 
" style="fill:none;stroke:#808080;stroke-width:1.5;"/>
    <path clip-path="url(#p1171d511c9)" d="M 303.386446 204.947811 
L 303.386446 59.833286 
" style="fill:none;stroke:#808080;stroke-width:1.5;"/>
    <path clip-path="url(#p1171d511c9)" d="M 319.78314 198.869037 
L 319.78314 59.710612 
" style="fill:none;stroke:#808080;stroke-width:1.5;"/>
    <path clip-path="url(#p1171d511c9)" d="M 336.179835 195.411002 
L 336.179835 59.628616 
" style="fill:none;stroke:#808080;stroke-width:1.5;"/>
    <path clip-path="url(#p1171d511c9)" d="M 352.576529 192.128012 
L 352.576529 59.49686 
" style="fill:none;stroke:#808080;stroke-width:1.5;"/>
    <path clip-path="url(#p1171d511c9)" d="M 368.973223 189.8441 
L 368.973223 59.524669 
" style="fill:none;stroke:#808080;stroke-width:1.5;"/>
    <path clip-path="url(#p1171d511c9)" d="M 385.369917 186.982538 
L 385.369917 60.007435 
" style="fill:none;stroke:#808080;stroke-width:1.5;"/>
   </g>
   <g id="line2d_29">
    <path clip-path="url(#p1171d511c9)" d="M 73.832727 249.89886 
L 77.112066 250.222594 
L 80.391405 237.904517 
L 83.670744 227.354512 
L 86.950083 219.096704 
L 90.229421 204.087426 
L 93.50876 188.238222 
L 96.788099 169.831675 
L 100.067438 152.504787 
L 103.346777 138.056541 
L 106.626116 125.035963 
L 109.905455 116.035829 
L 113.184793 109.040915 
L 116.464132 104.540842 
L 119.743471 100.841052 
L 123.02281 98.671546 
L 126.302149 96.335804 
L 129.581488 95.047507 
L 136.140165 94.083433 
L 142.698843 93.358594 
L 149.257521 93.278952 
L 155.816198 93.198828 
L 162.374876 93.118545 
L 168.933554 93.037767 
L 398.487273 93.037767 
" style="fill:none;stroke:#0000ff;stroke-linecap:square;stroke-width:2;"/>
   </g>
   <g id="line2d_30">
    <defs>
     <path d="M 6 0 
L -6 -0 
" id="me7cae64758" style="stroke:#0000ff;"/>
    </defs>
    <g clip-path="url(#p1171d511c9)">
     <use style="fill:#0000ff;stroke:#0000ff;" x="73.832727" xlink:href="#me7cae64758" y="249.89886"/>
     <use style="fill:#0000ff;stroke:#0000ff;" x="90.229421" xlink:href="#me7cae64758" y="278.966052"/>
     <use style="fill:#0000ff;stroke:#0000ff;" x="106.626116" xlink:href="#me7cae64758" y="193.086995"/>
     <use style="fill:#0000ff;stroke:#0000ff;" x="123.02281" xlink:href="#me7cae64758" y="135.698274"/>
     <use style="fill:#0000ff;stroke:#0000ff;" x="139.419504" xlink:href="#me7cae64758" y="117.207077"/>
     <use style="fill:#0000ff;stroke:#0000ff;" x="155.816198" xlink:href="#me7cae64758" y="114.214578"/>
     <use style="fill:#0000ff;stroke:#0000ff;" x="172.212893" xlink:href="#me7cae64758" y="113.39687"/>
     <use style="fill:#0000ff;stroke:#0000ff;" x="188.609587" xlink:href="#me7cae64758" y="113.39687"/>
     <use style="fill:#0000ff;stroke:#0000ff;" x="205.006281" xlink:href="#me7cae64758" y="113.39687"/>
     <use style="fill:#0000ff;stroke:#0000ff;" x="221.402975" xlink:href="#me7cae64758" y="113.39687"/>
     <use style="fill:#0000ff;stroke:#0000ff;" x="237.799669" xlink:href="#me7cae64758" y="113.39687"/>
     <use style="fill:#0000ff;stroke:#0000ff;" x="254.196364" xlink:href="#me7cae64758" y="113.39687"/>
     <use style="fill:#0000ff;stroke:#0000ff;" x="270.593058" xlink:href="#me7cae64758" y="113.39687"/>
     <use style="fill:#0000ff;stroke:#0000ff;" x="286.989752" xlink:href="#me7cae64758" y="113.39687"/>
     <use style="fill:#0000ff;stroke:#0000ff;" x="303.386446" xlink:href="#me7cae64758" y="113.39687"/>
     <use style="fill:#0000ff;stroke:#0000ff;" x="319.78314" xlink:href="#me7cae64758" y="113.39687"/>
     <use style="fill:#0000ff;stroke:#0000ff;" x="336.179835" xlink:href="#me7cae64758" y="113.39687"/>
     <use style="fill:#0000ff;stroke:#0000ff;" x="352.576529" xlink:href="#me7cae64758" y="113.39687"/>
     <use style="fill:#0000ff;stroke:#0000ff;" x="368.973223" xlink:href="#me7cae64758" y="113.39687"/>
     <use style="fill:#0000ff;stroke:#0000ff;" x="385.369917" xlink:href="#me7cae64758" y="113.39687"/>
    </g>
   </g>
   <g id="line2d_31">
    <g clip-path="url(#p1171d511c9)">
     <use style="fill:#0000ff;stroke:#0000ff;" x="73.832727" xlink:href="#me7cae64758" y="249.89886"/>
     <use style="fill:#0000ff;stroke:#0000ff;" x="90.229421" xlink:href="#me7cae64758" y="129.2088"/>
     <use style="fill:#0000ff;stroke:#0000ff;" x="106.626116" xlink:href="#me7cae64758" y="56.98493"/>
     <use style="fill:#0000ff;stroke:#0000ff;" x="123.02281" xlink:href="#me7cae64758" y="61.64483"/>
     <use style="fill:#0000ff;stroke:#0000ff;" x="139.419504" xlink:href="#me7cae64758" y="70.316518"/>
     <use style="fill:#0000ff;stroke:#0000ff;" x="155.816198" xlink:href="#me7cae64758" y="72.183079"/>
     <use style="fill:#0000ff;stroke:#0000ff;" x="172.212893" xlink:href="#me7cae64758" y="72.678675"/>
     <use style="fill:#0000ff;stroke:#0000ff;" x="188.609587" xlink:href="#me7cae64758" y="72.678675"/>
     <use style="fill:#0000ff;stroke:#0000ff;" x="205.006281" xlink:href="#me7cae64758" y="72.678675"/>
     <use style="fill:#0000ff;stroke:#0000ff;" x="221.402975" xlink:href="#me7cae64758" y="72.678675"/>
     <use style="fill:#0000ff;stroke:#0000ff;" x="237.799669" xlink:href="#me7cae64758" y="72.678675"/>
     <use style="fill:#0000ff;stroke:#0000ff;" x="254.196364" xlink:href="#me7cae64758" y="72.678675"/>
     <use style="fill:#0000ff;stroke:#0000ff;" x="270.593058" xlink:href="#me7cae64758" y="72.678675"/>
     <use style="fill:#0000ff;stroke:#0000ff;" x="286.989752" xlink:href="#me7cae64758" y="72.678675"/>
     <use style="fill:#0000ff;stroke:#0000ff;" x="303.386446" xlink:href="#me7cae64758" y="72.678675"/>
     <use style="fill:#0000ff;stroke:#0000ff;" x="319.78314" xlink:href="#me7cae64758" y="72.678675"/>
     <use style="fill:#0000ff;stroke:#0000ff;" x="336.179835" xlink:href="#me7cae64758" y="72.678675"/>
     <use style="fill:#0000ff;stroke:#0000ff;" x="352.576529" xlink:href="#me7cae64758" y="72.678675"/>
     <use style="fill:#0000ff;stroke:#0000ff;" x="368.973223" xlink:href="#me7cae64758" y="72.678675"/>
     <use style="fill:#0000ff;stroke:#0000ff;" x="385.369917" xlink:href="#me7cae64758" y="72.678675"/>
    </g>
   </g>
   <g id="line2d_32">
    <path clip-path="url(#p1171d511c9)" d="M 73.832727 249.89886 
L 77.112066 250.222594 
L 80.391405 249.267579 
L 83.670744 249.196358 
L 90.229421 249.665286 
L 93.50876 242.89002 
L 96.788099 234.967278 
L 106.626116 199.795849 
L 109.905455 189.27514 
L 116.464132 170.37215 
L 119.743471 163.027277 
L 123.02281 156.185158 
L 126.302149 150.267624 
L 129.581488 145.260272 
L 132.860826 140.630875 
L 136.140165 135.424746 
L 139.419504 130.806846 
L 145.978182 124.425726 
L 149.257521 122.163463 
L 162.374876 114.769712 
L 165.654215 113.425076 
L 168.933554 111.591773 
L 172.212893 110.32095 
L 175.492231 109.597728 
L 178.77157 109.050943 
L 182.050909 108.923398 
L 185.330248 108.406881 
L 188.609587 107.549309 
L 191.888926 107.369637 
L 195.168264 106.59057 
L 198.447603 106.020309 
L 201.726942 105.562069 
L 208.28562 105.080032 
L 211.564959 104.732827 
L 218.123636 103.873798 
L 224.682314 103.140375 
L 227.961653 102.99906 
L 237.799669 102.929952 
L 247.637686 102.340747 
L 250.917025 102.181315 
L 257.475702 102.201704 
L 267.313719 102.094387 
L 277.151736 102.099241 
L 280.431074 101.938994 
L 293.54843 101.879272 
L 300.107107 101.638408 
L 362.414545 101.730189 
L 375.531901 101.780686 
L 388.649256 101.815005 
L 395.207934 101.751072 
L 398.487273 101.767583 
" style="fill:none;stroke:#4b0082;stroke-linecap:square;stroke-width:2;"/>
   </g>
   <g id="line2d_33">
    <defs>
     <path d="M 6 0 
L -6 -0 
" id="m2b3b2b5bfc" style="stroke:#4b0082;"/>
    </defs>
    <g clip-path="url(#p1171d511c9)">
     <use style="fill:#4b0082;stroke:#4b0082;" x="73.832727" xlink:href="#m2b3b2b5bfc" y="249.89886"/>
     <use style="fill:#4b0082;stroke:#4b0082;" x="90.229421" xlink:href="#m2b3b2b5bfc" y="270.811745"/>
     <use style="fill:#4b0082;stroke:#4b0082;" x="106.626116" xlink:href="#m2b3b2b5bfc" y="277.217919"/>
     <use style="fill:#4b0082;stroke:#4b0082;" x="123.02281" xlink:href="#m2b3b2b5bfc" y="237.410391"/>
     <use style="fill:#4b0082;stroke:#4b0082;" x="139.419504" xlink:href="#m2b3b2b5bfc" y="202.519197"/>
     <use style="fill:#4b0082;stroke:#4b0082;" x="155.816198" xlink:href="#m2b3b2b5bfc" y="181.810403"/>
     <use style="fill:#4b0082;stroke:#4b0082;" x="172.212893" xlink:href="#m2b3b2b5bfc" y="165.877782"/>
     <use style="fill:#4b0082;stroke:#4b0082;" x="188.609587" xlink:href="#m2b3b2b5bfc" y="161.254109"/>
     <use style="fill:#4b0082;stroke:#4b0082;" x="205.006281" xlink:href="#m2b3b2b5bfc" y="156.495784"/>
     <use style="fill:#4b0082;stroke:#4b0082;" x="221.402975" xlink:href="#m2b3b2b5bfc" y="152.84465"/>
     <use style="fill:#4b0082;stroke:#4b0082;" x="237.799669" xlink:href="#m2b3b2b5bfc" y="152.06212"/>
     <use style="fill:#4b0082;stroke:#4b0082;" x="254.196364" xlink:href="#m2b3b2b5bfc" y="149.734621"/>
     <use style="fill:#4b0082;stroke:#4b0082;" x="270.593058" xlink:href="#m2b3b2b5bfc" y="149.713362"/>
     <use style="fill:#4b0082;stroke:#4b0082;" x="286.989752" xlink:href="#m2b3b2b5bfc" y="149.0462"/>
     <use style="fill:#4b0082;stroke:#4b0082;" x="303.386446" xlink:href="#m2b3b2b5bfc" y="147.387777"/>
     <use style="fill:#4b0082;stroke:#4b0082;" x="319.78314" xlink:href="#m2b3b2b5bfc" y="148.086152"/>
     <use style="fill:#4b0082;stroke:#4b0082;" x="336.179835" xlink:href="#m2b3b2b5bfc" y="147.640818"/>
     <use style="fill:#4b0082;stroke:#4b0082;" x="352.576529" xlink:href="#m2b3b2b5bfc" y="148.537031"/>
     <use style="fill:#4b0082;stroke:#4b0082;" x="368.973223" xlink:href="#m2b3b2b5bfc" y="149.219945"/>
     <use style="fill:#4b0082;stroke:#4b0082;" x="385.369917" xlink:href="#m2b3b2b5bfc" y="150.061042"/>
    </g>
   </g>
   <g id="line2d_34">
    <g clip-path="url(#p1171d511c9)">
     <use style="fill:#4b0082;stroke:#4b0082;" x="73.832727" xlink:href="#m2b3b2b5bfc" y="249.89886"/>
     <use style="fill:#4b0082;stroke:#4b0082;" x="90.229421" xlink:href="#m2b3b2b5bfc" y="228.518828"/>
     <use style="fill:#4b0082;stroke:#4b0082;" x="106.626116" xlink:href="#m2b3b2b5bfc" y="122.373775"/>
     <use style="fill:#4b0082;stroke:#4b0082;" x="123.02281" xlink:href="#m2b3b2b5bfc" y="74.959919"/>
     <use style="fill:#4b0082;stroke:#4b0082;" x="139.419504" xlink:href="#m2b3b2b5bfc" y="59.094492"/>
     <use style="fill:#4b0082;stroke:#4b0082;" x="155.816198" xlink:href="#m2b3b2b5bfc" y="55.058351"/>
     <use style="fill:#4b0082;stroke:#4b0082;" x="172.212893" xlink:href="#m2b3b2b5bfc" y="54.764125"/>
     <use style="fill:#4b0082;stroke:#4b0082;" x="188.609587" xlink:href="#m2b3b2b5bfc" y="53.844509"/>
     <use style="fill:#4b0082;stroke:#4b0082;" x="205.006281" xlink:href="#m2b3b2b5bfc" y="54.227886"/>
     <use style="fill:#4b0082;stroke:#4b0082;" x="221.402975" xlink:href="#m2b3b2b5bfc" y="54.137945"/>
     <use style="fill:#4b0082;stroke:#4b0082;" x="237.799669" xlink:href="#m2b3b2b5bfc" y="53.797779"/>
     <use style="fill:#4b0082;stroke:#4b0082;" x="254.196364" xlink:href="#m2b3b2b5bfc" y="54.664588"/>
     <use style="fill:#4b0082;stroke:#4b0082;" x="270.593058" xlink:href="#m2b3b2b5bfc" y="54.478655"/>
     <use style="fill:#4b0082;stroke:#4b0082;" x="286.989752" xlink:href="#m2b3b2b5bfc" y="54.836974"/>
     <use style="fill:#4b0082;stroke:#4b0082;" x="303.386446" xlink:href="#m2b3b2b5bfc" y="55.890335"/>
     <use style="fill:#4b0082;stroke:#4b0082;" x="319.78314" xlink:href="#m2b3b2b5bfc" y="55.29556"/>
     <use style="fill:#4b0082;stroke:#4b0082;" x="336.179835" xlink:href="#m2b3b2b5bfc" y="55.649928"/>
     <use style="fill:#4b0082;stroke:#4b0082;" x="352.576529" xlink:href="#m2b3b2b5bfc" y="54.888064"/>
     <use style="fill:#4b0082;stroke:#4b0082;" x="368.973223" xlink:href="#m2b3b2b5bfc" y="54.30712"/>
     <use style="fill:#4b0082;stroke:#4b0082;" x="385.369917" xlink:href="#m2b3b2b5bfc" y="53.568005"/>
    </g>
   </g>
   <g id="line2d_35">
    <path clip-path="url(#p1171d511c9)" d="M 73.832727 249.89886 
L 77.112066 250.222594 
L 80.391405 249.915047 
L 90.229421 250.950672 
L 93.50876 250.895475 
L 96.788099 251.066083 
L 100.067438 250.815513 
L 103.346777 250.725677 
L 106.626116 216.562031 
L 109.905455 191.717711 
L 113.184793 167.972475 
L 116.464132 153.551423 
L 119.743471 142.047211 
L 123.02281 133.481692 
L 126.302149 127.359232 
L 129.581488 124.348344 
L 132.860826 120.894271 
L 139.419504 116.249178 
L 149.257521 112.399972 
L 152.53686 111.672711 
L 155.816198 110.798134 
L 159.095537 109.549331 
L 162.374876 108.767362 
L 165.654215 108.469197 
L 172.212893 107.255194 
L 175.492231 105.901667 
L 178.77157 105.613702 
L 182.050909 105.147041 
L 185.330248 104.45279 
L 188.609587 104.226499 
L 195.168264 102.96232 
L 198.447603 102.571089 
L 201.726942 102.340907 
L 205.006281 101.96457 
L 227.961653 100.43137 
L 231.240992 100.374711 
L 237.799669 99.823394 
L 244.358347 99.626086 
L 247.637686 99.551298 
L 254.196364 99.174305 
L 260.755041 99.022641 
L 264.03438 98.784692 
L 267.313719 98.789064 
L 286.989752 97.920328 
L 306.665785 97.854604 
L 309.945124 97.695172 
L 326.341818 97.624434 
L 352.576529 97.068424 
L 372.252562 96.992339 
L 378.81124 96.912537 
L 398.487273 96.915451 
" style="fill:none;stroke:#008000;stroke-linecap:square;stroke-width:2;"/>
   </g>
   <g id="line2d_36">
    <defs>
     <path d="M 6 0 
L -6 -0 
" id="maab9e3ac34" style="stroke:#008000;"/>
    </defs>
    <g clip-path="url(#p1171d511c9)">
     <use style="fill:#008000;stroke:#008000;" x="73.832727" xlink:href="#maab9e3ac34" y="249.89886"/>
     <use style="fill:#008000;stroke:#008000;" x="90.229421" xlink:href="#maab9e3ac34" y="267.568905"/>
     <use style="fill:#008000;stroke:#008000;" x="106.626116" xlink:href="#maab9e3ac34" y="285.678783"/>
     <use style="fill:#008000;stroke:#008000;" x="123.02281" xlink:href="#maab9e3ac34" y="205.307408"/>
     <use style="fill:#008000;stroke:#008000;" x="139.419504" xlink:href="#maab9e3ac34" y="175.276711"/>
     <use style="fill:#008000;stroke:#008000;" x="155.816198" xlink:href="#maab9e3ac34" y="164.29069"/>
     <use style="fill:#008000;stroke:#008000;" x="172.212893" xlink:href="#maab9e3ac34" y="156.622446"/>
     <use style="fill:#008000;stroke:#008000;" x="188.609587" xlink:href="#maab9e3ac34" y="148.705935"/>
     <use style="fill:#008000;stroke:#008000;" x="205.006281" xlink:href="#maab9e3ac34" y="142.045705"/>
     <use style="fill:#008000;stroke:#008000;" x="221.402975" xlink:href="#maab9e3ac34" y="138.551681"/>
     <use style="fill:#008000;stroke:#008000;" x="237.799669" xlink:href="#maab9e3ac34" y="135.255632"/>
     <use style="fill:#008000;stroke:#008000;" x="254.196364" xlink:href="#maab9e3ac34" y="133.208732"/>
     <use style="fill:#008000;stroke:#008000;" x="270.593058" xlink:href="#maab9e3ac34" y="130.888254"/>
     <use style="fill:#008000;stroke:#008000;" x="286.989752" xlink:href="#maab9e3ac34" y="127.635823"/>
     <use style="fill:#008000;stroke:#008000;" x="303.386446" xlink:href="#maab9e3ac34" y="127.396379"/>
     <use style="fill:#008000;stroke:#008000;" x="319.78314" xlink:href="#maab9e3ac34" y="126.176227"/>
     <use style="fill:#008000;stroke:#008000;" x="336.179835" xlink:href="#maab9e3ac34" y="124.612833"/>
     <use style="fill:#008000;stroke:#008000;" x="352.576529" xlink:href="#maab9e3ac34" y="123.425777"/>
     <use style="fill:#008000;stroke:#008000;" x="368.973223" xlink:href="#maab9e3ac34" y="123.46159"/>
     <use style="fill:#008000;stroke:#008000;" x="385.369917" xlink:href="#maab9e3ac34" y="122.696677"/>
    </g>
   </g>
   <g id="line2d_37">
    <g clip-path="url(#p1171d511c9)">
     <use style="fill:#008000;stroke:#008000;" x="73.832727" xlink:href="#maab9e3ac34" y="249.89886"/>
     <use style="fill:#008000;stroke:#008000;" x="90.229421" xlink:href="#maab9e3ac34" y="234.332438"/>
     <use style="fill:#008000;stroke:#008000;" x="106.626116" xlink:href="#maab9e3ac34" y="147.445276"/>
     <use style="fill:#008000;stroke:#008000;" x="123.02281" xlink:href="#maab9e3ac34" y="61.655982"/>
     <use style="fill:#008000;stroke:#008000;" x="139.419504" xlink:href="#maab9e3ac34" y="57.221633"/>
     <use style="fill:#008000;stroke:#008000;" x="155.816198" xlink:href="#maab9e3ac34" y="57.305597"/>
     <use style="fill:#008000;stroke:#008000;" x="172.212893" xlink:href="#maab9e3ac34" y="57.887948"/>
     <use style="fill:#008000;stroke:#008000;" x="188.609587" xlink:href="#maab9e3ac34" y="59.747062"/>
     <use style="fill:#008000;stroke:#008000;" x="205.006281" xlink:href="#maab9e3ac34" y="61.883447"/>
     <use style="fill:#008000;stroke:#008000;" x="221.402975" xlink:href="#maab9e3ac34" y="63.214596"/>
     <use style="fill:#008000;stroke:#008000;" x="237.799669" xlink:href="#maab9e3ac34" y="64.391155"/>
     <use style="fill:#008000;stroke:#008000;" x="254.196364" xlink:href="#maab9e3ac34" y="65.139879"/>
     <use style="fill:#008000;stroke:#008000;" x="270.593058" xlink:href="#maab9e3ac34" y="66.374888"/>
     <use style="fill:#008000;stroke:#008000;" x="286.989752" xlink:href="#maab9e3ac34" y="68.204832"/>
     <use style="fill:#008000;stroke:#008000;" x="303.386446" xlink:href="#maab9e3ac34" y="68.307975"/>
     <use style="fill:#008000;stroke:#008000;" x="319.78314" xlink:href="#maab9e3ac34" y="69.064862"/>
     <use style="fill:#008000;stroke:#008000;" x="336.179835" xlink:href="#maab9e3ac34" y="69.999248"/>
     <use style="fill:#008000;stroke:#008000;" x="352.576529" xlink:href="#maab9e3ac34" y="70.711059"/>
     <use style="fill:#008000;stroke:#008000;" x="368.973223" xlink:href="#maab9e3ac34" y="70.683334"/>
     <use style="fill:#008000;stroke:#008000;" x="385.369917" xlink:href="#maab9e3ac34" y="71.13036"/>
    </g>
   </g>
   <g id="line2d_38">
    <path clip-path="url(#p1171d511c9)" d="M 73.832727 249.89886 
L 77.112066 250.222594 
L 80.391405 248.992405 
L 83.670744 248.920374 
L 90.229421 249.063303 
L 93.50876 248.988197 
L 96.788099 249.138895 
L 100.067438 249.062655 
L 103.346777 248.192458 
L 106.626116 247.530261 
L 109.905455 247.513589 
L 113.184793 209.376593 
L 116.464132 182.833322 
L 119.743471 160.202212 
L 123.02281 148.208517 
L 126.302149 135.704943 
L 132.860826 119.031341 
L 136.140165 112.765306 
L 139.419504 109.351702 
L 142.698843 106.562241 
L 149.257521 103.623388 
L 152.53686 102.521716 
L 155.816198 101.320668 
L 159.095537 100.440916 
L 162.374876 99.802189 
L 165.654215 99.32403 
L 185.330248 98.38715 
L 188.609587 98.084131 
L 195.168264 98.010973 
L 205.006281 97.535728 
L 214.844298 97.463051 
L 218.123636 97.30378 
L 231.240992 97.231746 
L 234.520331 97.152919 
L 237.799669 96.912055 
L 250.917025 96.836625 
L 260.755041 96.678156 
L 273.872397 96.600787 
L 280.431074 96.521305 
L 326.341818 96.449444 
L 332.900496 96.369321 
L 398.487273 96.292754 
" style="fill:none;stroke:#ff0000;stroke-linecap:square;stroke-width:2;"/>
   </g>
   <g id="line2d_39">
    <defs>
     <path d="M 6 0 
L -6 -0 
" id="mbad245261b" style="stroke:#ff0000;"/>
    </defs>
    <g clip-path="url(#p1171d511c9)">
     <use style="fill:#ff0000;stroke:#ff0000;" x="73.832727" xlink:href="#mbad245261b" y="249.89886"/>
     <use style="fill:#ff0000;stroke:#ff0000;" x="90.229421" xlink:href="#mbad245261b" y="271.81965"/>
     <use style="fill:#ff0000;stroke:#ff0000;" x="106.626116" xlink:href="#mbad245261b" y="279.419194"/>
     <use style="fill:#ff0000;stroke:#ff0000;" x="123.02281" xlink:href="#mbad245261b" y="226.199268"/>
     <use style="fill:#ff0000;stroke:#ff0000;" x="139.419504" xlink:href="#mbad245261b" y="160.055006"/>
     <use style="fill:#ff0000;stroke:#ff0000;" x="155.816198" xlink:href="#mbad245261b" y="139.088784"/>
     <use style="fill:#ff0000;stroke:#ff0000;" x="172.212893" xlink:href="#mbad245261b" y="132.079014"/>
     <use style="fill:#ff0000;stroke:#ff0000;" x="188.609587" xlink:href="#mbad245261b" y="128.266794"/>
     <use style="fill:#ff0000;stroke:#ff0000;" x="205.006281" xlink:href="#mbad245261b" y="126.121444"/>
     <use style="fill:#ff0000;stroke:#ff0000;" x="221.402975" xlink:href="#mbad245261b" y="125.142983"/>
     <use style="fill:#ff0000;stroke:#ff0000;" x="237.799669" xlink:href="#mbad245261b" y="123.414502"/>
     <use style="fill:#ff0000;stroke:#ff0000;" x="254.196364" xlink:href="#mbad245261b" y="122.75488"/>
     <use style="fill:#ff0000;stroke:#ff0000;" x="270.593058" xlink:href="#mbad245261b" y="122.061482"/>
     <use style="fill:#ff0000;stroke:#ff0000;" x="286.989752" xlink:href="#mbad245261b" y="121.611269"/>
     <use style="fill:#ff0000;stroke:#ff0000;" x="303.386446" xlink:href="#mbad245261b" y="121.639191"/>
     <use style="fill:#ff0000;stroke:#ff0000;" x="319.78314" xlink:href="#mbad245261b" y="121.667299"/>
     <use style="fill:#ff0000;stroke:#ff0000;" x="336.179835" xlink:href="#mbad245261b" y="120.675624"/>
     <use style="fill:#ff0000;stroke:#ff0000;" x="352.576529" xlink:href="#mbad245261b" y="120.689245"/>
     <use style="fill:#ff0000;stroke:#ff0000;" x="368.973223" xlink:href="#mbad245261b" y="120.27991"/>
     <use style="fill:#ff0000;stroke:#ff0000;" x="385.369917" xlink:href="#mbad245261b" y="120.286912"/>
    </g>
   </g>
   <g id="line2d_40">
    <g clip-path="url(#p1171d511c9)">
     <use style="fill:#ff0000;stroke:#ff0000;" x="73.832727" xlink:href="#mbad245261b" y="249.89886"/>
     <use style="fill:#ff0000;stroke:#ff0000;" x="90.229421" xlink:href="#mbad245261b" y="226.306957"/>
     <use style="fill:#ff0000;stroke:#ff0000;" x="106.626116" xlink:href="#mbad245261b" y="215.641325"/>
     <use style="fill:#ff0000;stroke:#ff0000;" x="123.02281" xlink:href="#mbad245261b" y="70.217759"/>
     <use style="fill:#ff0000;stroke:#ff0000;" x="139.419504" xlink:href="#mbad245261b" y="58.648392"/>
     <use style="fill:#ff0000;stroke:#ff0000;" x="155.816198" xlink:href="#mbad245261b" y="63.552552"/>
     <use style="fill:#ff0000;stroke:#ff0000;" x="172.212893" xlink:href="#mbad245261b" y="66.108707"/>
     <use style="fill:#ff0000;stroke:#ff0000;" x="188.609587" xlink:href="#mbad245261b" y="67.90148"/>
     <use style="fill:#ff0000;stroke:#ff0000;" x="205.006281" xlink:href="#mbad245261b" y="68.950012"/>
     <use style="fill:#ff0000;stroke:#ff0000;" x="221.402975" xlink:href="#mbad245261b" y="69.469097"/>
     <use style="fill:#ff0000;stroke:#ff0000;" x="237.799669" xlink:href="#mbad245261b" y="70.409608"/>
     <use style="fill:#ff0000;stroke:#ff0000;" x="254.196364" xlink:href="#mbad245261b" y="70.759098"/>
     <use style="fill:#ff0000;stroke:#ff0000;" x="270.593058" xlink:href="#mbad245261b" y="71.138474"/>
     <use style="fill:#ff0000;stroke:#ff0000;" x="286.989752" xlink:href="#mbad245261b" y="71.433947"/>
     <use style="fill:#ff0000;stroke:#ff0000;" x="303.386446" xlink:href="#mbad245261b" y="71.412496"/>
     <use style="fill:#ff0000;stroke:#ff0000;" x="319.78314" xlink:href="#mbad245261b" y="71.39086"/>
     <use style="fill:#ff0000;stroke:#ff0000;" x="336.179835" xlink:href="#mbad245261b" y="72.063659"/>
     <use style="fill:#ff0000;stroke:#ff0000;" x="352.576529" xlink:href="#mbad245261b" y="72.053273"/>
     <use style="fill:#ff0000;stroke:#ff0000;" x="368.973223" xlink:href="#mbad245261b" y="72.302683"/>
     <use style="fill:#ff0000;stroke:#ff0000;" x="385.369917" xlink:href="#mbad245261b" y="72.297299"/>
    </g>
   </g>
   <g id="line2d_41">
    <path clip-path="url(#p1171d511c9)" d="M 73.832727 249.89886 
L 77.112066 250.222594 
L 80.391405 248.377311 
L 83.670744 247.891224 
L 86.950083 247.091601 
L 90.229421 245.411746 
L 93.50876 243.564682 
L 96.788099 241.922541 
L 100.067438 238.559754 
L 103.346777 236.386365 
L 106.626116 233.559521 
L 109.905455 230.952167 
L 113.184793 228.840127 
L 116.464132 226.221119 
L 119.743471 222.883583 
L 126.302149 215.652174 
L 129.581488 213.408538 
L 132.860826 210.576835 
L 139.419504 203.760619 
L 142.698843 199.694033 
L 145.978182 197.415596 
L 149.257521 194.096027 
L 152.53686 191.562323 
L 155.816198 188.440396 
L 159.095537 186.363801 
L 162.374876 184.039717 
L 165.654215 181.289595 
L 172.212893 176.273987 
L 175.492231 173.523377 
L 178.77157 171.559934 
L 182.050909 170.272119 
L 185.330248 168.479606 
L 188.609587 167.282108 
L 191.888926 165.175251 
L 195.168264 163.371241 
L 198.447603 161.887087 
L 201.726942 160.561396 
L 205.006281 159.394655 
L 208.28562 158.59746 
L 211.564959 156.341681 
L 214.844298 155.230469 
L 218.123636 154.440554 
L 221.402975 153.01758 
L 224.682314 152.384521 
L 227.961653 151.021603 
L 234.520331 148.90244 
L 241.079008 147.37247 
L 247.637686 145.187595 
L 250.917025 143.953846 
L 254.196364 143.494458 
L 260.755041 142.329014 
L 264.03438 141.574399 
L 267.313719 140.591542 
L 270.593058 139.347592 
L 273.872397 138.748519 
L 277.151736 137.775863 
L 280.431074 137.092295 
L 290.269091 134.675145 
L 293.54843 134.227415 
L 300.107107 132.599841 
L 303.386446 132.390555 
L 309.945124 131.257478 
L 313.224463 130.737726 
L 319.78314 129.289825 
L 323.062479 129.235277 
L 329.621157 128.007517 
L 339.459174 127.396465 
L 342.738512 127.013817 
L 346.017851 126.792218 
L 349.29719 126.084532 
L 352.576529 125.812436 
L 359.135207 125.088078 
L 362.414545 124.862119 
L 365.693884 124.910838 
L 368.973223 124.684386 
L 372.252562 124.295575 
L 375.531901 124.00309 
L 378.81124 124.017329 
L 385.369917 123.494983 
L 388.649256 123.103271 
L 398.487273 122.65312 
" style="fill:none;stroke:#808080;stroke-linecap:square;stroke-width:2;"/>
   </g>
   <g id="line2d_42">
    <defs>
     <path d="M 6 0 
L -6 -0 
" id="m4a818f7636" style="stroke:#808080;"/>
    </defs>
    <g clip-path="url(#p1171d511c9)">
     <use style="fill:#808080;stroke:#808080;" x="73.832727" xlink:href="#m4a818f7636" y="249.89886"/>
     <use style="fill:#808080;stroke:#808080;" x="90.229421" xlink:href="#m4a818f7636" y="286.087908"/>
     <use style="fill:#808080;stroke:#808080;" x="106.626116" xlink:href="#m4a818f7636" y="295.487999"/>
     <use style="fill:#808080;stroke:#808080;" x="123.02281" xlink:href="#m4a818f7636" y="294.825709"/>
     <use style="fill:#808080;stroke:#808080;" x="139.419504" xlink:href="#m4a818f7636" y="287.655689"/>
     <use style="fill:#808080;stroke:#808080;" x="155.816198" xlink:href="#m4a818f7636" y="276.212345"/>
     <use style="fill:#808080;stroke:#808080;" x="172.212893" xlink:href="#m4a818f7636" y="264.636871"/>
     <use style="fill:#808080;stroke:#808080;" x="188.609587" xlink:href="#m4a818f7636" y="254.877833"/>
     <use style="fill:#808080;stroke:#808080;" x="205.006281" xlink:href="#m4a818f7636" y="245.621204"/>
     <use style="fill:#808080;stroke:#808080;" x="221.402975" xlink:href="#m4a818f7636" y="237.529287"/>
     <use style="fill:#808080;stroke:#808080;" x="237.799669" xlink:href="#m4a818f7636" y="230.66917"/>
     <use style="fill:#808080;stroke:#808080;" x="254.196364" xlink:href="#m4a818f7636" y="223.535953"/>
     <use style="fill:#808080;stroke:#808080;" x="270.593058" xlink:href="#m4a818f7636" y="216.828147"/>
     <use style="fill:#808080;stroke:#808080;" x="286.989752" xlink:href="#m4a818f7636" y="210.279951"/>
     <use style="fill:#808080;stroke:#808080;" x="303.386446" xlink:href="#m4a818f7636" y="204.94781"/>
     <use style="fill:#808080;stroke:#808080;" x="319.78314" xlink:href="#m4a818f7636" y="198.869036"/>
     <use style="fill:#808080;stroke:#808080;" x="336.179835" xlink:href="#m4a818f7636" y="195.411005"/>
     <use style="fill:#808080;stroke:#808080;" x="352.576529" xlink:href="#m4a818f7636" y="192.128009"/>
     <use style="fill:#808080;stroke:#808080;" x="368.973223" xlink:href="#m4a818f7636" y="189.844098"/>
     <use style="fill:#808080;stroke:#808080;" x="385.369917" xlink:href="#m4a818f7636" y="186.98254"/>
    </g>
   </g>
   <g id="line2d_43">
    <g clip-path="url(#p1171d511c9)">
     <use style="fill:#808080;stroke:#808080;" x="73.832727" xlink:href="#m4a818f7636" y="249.89886"/>
     <use style="fill:#808080;stroke:#808080;" x="90.229421" xlink:href="#m4a818f7636" y="204.735581"/>
     <use style="fill:#808080;stroke:#808080;" x="106.626116" xlink:href="#m4a818f7636" y="171.631043"/>
     <use style="fill:#808080;stroke:#808080;" x="123.02281" xlink:href="#m4a818f7636" y="143.798588"/>
     <use style="fill:#808080;stroke:#808080;" x="139.419504" xlink:href="#m4a818f7636" y="119.865548"/>
     <use style="fill:#808080;stroke:#808080;" x="155.816198" xlink:href="#m4a818f7636" y="100.668443"/>
     <use style="fill:#808080;stroke:#808080;" x="172.212893" xlink:href="#m4a818f7636" y="87.911094"/>
     <use style="fill:#808080;stroke:#808080;" x="188.609587" xlink:href="#m4a818f7636" y="79.686395"/>
     <use style="fill:#808080;stroke:#808080;" x="205.006281" xlink:href="#m4a818f7636" y="73.16811"/>
     <use style="fill:#808080;stroke:#808080;" x="221.402975" xlink:href="#m4a818f7636" y="68.505876"/>
     <use style="fill:#808080;stroke:#808080;" x="237.799669" xlink:href="#m4a818f7636" y="65.559119"/>
     <use style="fill:#808080;stroke:#808080;" x="254.196364" xlink:href="#m4a818f7636" y="63.452966"/>
     <use style="fill:#808080;stroke:#808080;" x="270.593058" xlink:href="#m4a818f7636" y="61.867034"/>
     <use style="fill:#808080;stroke:#808080;" x="286.989752" xlink:href="#m4a818f7636" y="60.610006"/>
     <use style="fill:#808080;stroke:#808080;" x="303.386446" xlink:href="#m4a818f7636" y="59.833286"/>
     <use style="fill:#808080;stroke:#808080;" x="319.78314" xlink:href="#m4a818f7636" y="59.710607"/>
     <use style="fill:#808080;stroke:#808080;" x="336.179835" xlink:href="#m4a818f7636" y="59.628619"/>
     <use style="fill:#808080;stroke:#808080;" x="352.576529" xlink:href="#m4a818f7636" y="59.496862"/>
     <use style="fill:#808080;stroke:#808080;" x="368.973223" xlink:href="#m4a818f7636" y="59.524673"/>
     <use style="fill:#808080;stroke:#808080;" x="385.369917" xlink:href="#m4a818f7636" y="60.007439"/>
    </g>
   </g>
   <g id="patch_3">
    <path d="M 57.6 307.584 
L 57.6 41.472 
" style="fill:none;stroke:#000000;stroke-linecap:square;stroke-linejoin:miter;stroke-width:0.8;"/>
   </g>
   <g id="patch_4">
    <path d="M 414.72 307.584 
L 414.72 41.472 
" style="fill:none;stroke:#000000;stroke-linecap:square;stroke-linejoin:miter;stroke-width:0.8;"/>
   </g>
   <g id="patch_5">
    <path d="M 57.6 307.584 
L 414.72 307.584 
" style="fill:none;stroke:#000000;stroke-linecap:square;stroke-linejoin:miter;stroke-width:0.8;"/>
   </g>
   <g id="patch_6">
    <path d="M 57.6 41.472 
L 414.72 41.472 
" style="fill:none;stroke:#000000;stroke-linecap:square;stroke-linejoin:miter;stroke-width:0.8;"/>
   </g>
   <g id="legend_1">
    <g id="patch_7">
     <path d="M 64.6 36.472 
L 592.1 36.472 
Q 594.1 36.472 594.1 34.472 
L 594.1 5.272 
Q 594.1 3.272 592.1 3.272 
L 64.6 3.272 
Q 62.6 3.272 62.6 5.272 
L 62.6 34.472 
Q 62.6 36.472 64.6 36.472 
z
" style="fill:#ffffff;opacity:0.8;stroke:#cccccc;stroke-linejoin:miter;"/>
    </g>
    <g id="line2d_44">
     <path d="M 66.6 11.472 
L 86.6 11.472 
" style="fill:none;stroke:#0000ff;stroke-linecap:square;stroke-width:2;"/>
    </g>
    <g id="line2d_45"/>
    <g id="text_17">
     <!-- $\mathrm{Opt. \ policy \  on \ MDP}$ -->
     <g transform="translate(94.6 14.972)scale(0.1 -0.1)">
      <defs>
       <path d="M 39.40625 66.21875 
Q 28.65625 66.21875 22.328125 58.203125 
Q 16.015625 50.203125 16.015625 36.375 
Q 16.015625 22.609375 22.328125 14.59375 
Q 28.65625 6.59375 39.40625 6.59375 
Q 50.140625 6.59375 56.421875 14.59375 
Q 62.703125 22.609375 62.703125 36.375 
Q 62.703125 50.203125 56.421875 58.203125 
Q 50.140625 66.21875 39.40625 66.21875 
z
M 39.40625 74.21875 
Q 54.734375 74.21875 63.90625 63.9375 
Q 73.09375 53.65625 73.09375 36.375 
Q 73.09375 19.140625 63.90625 8.859375 
Q 54.734375 -1.421875 39.40625 -1.421875 
Q 24.03125 -1.421875 14.8125 8.828125 
Q 5.609375 19.09375 5.609375 36.375 
Q 5.609375 53.65625 14.8125 63.9375 
Q 24.03125 74.21875 39.40625 74.21875 
z
" id="DejaVuSans-79"/>
       <path d="M 10.6875 12.40625 
L 21 12.40625 
L 21 0 
L 10.6875 0 
z
" id="DejaVuSans-46"/>
       <path d="M 30.609375 48.390625 
Q 23.390625 48.390625 19.1875 42.75 
Q 14.984375 37.109375 14.984375 27.296875 
Q 14.984375 17.484375 19.15625 11.84375 
Q 23.34375 6.203125 30.609375 6.203125 
Q 37.796875 6.203125 41.984375 11.859375 
Q 46.1875 17.53125 46.1875 27.296875 
Q 46.1875 37.015625 41.984375 42.703125 
Q 37.796875 48.390625 30.609375 48.390625 
z
M 30.609375 56 
Q 42.328125 56 49.015625 48.375 
Q 55.71875 40.765625 55.71875 27.296875 
Q 55.71875 13.875 49.015625 6.21875 
Q 42.328125 -1.421875 30.609375 -1.421875 
Q 18.84375 -1.421875 12.171875 6.21875 
Q 5.515625 13.875 5.515625 27.296875 
Q 5.515625 40.765625 12.171875 48.375 
Q 18.84375 56 30.609375 56 
z
" id="DejaVuSans-111"/>
       <path d="M 32.171875 -5.078125 
Q 28.375 -14.84375 24.75 -17.8125 
Q 21.140625 -20.796875 15.09375 -20.796875 
L 7.90625 -20.796875 
L 7.90625 -13.28125 
L 13.1875 -13.28125 
Q 16.890625 -13.28125 18.9375 -11.515625 
Q 21 -9.765625 23.484375 -3.21875 
L 25.09375 0.875 
L 2.984375 54.6875 
L 12.5 54.6875 
L 29.59375 11.921875 
L 46.6875 54.6875 
L 56.203125 54.6875 
z
" id="DejaVuSans-121"/>
       <path d="M 19.671875 64.796875 
L 19.671875 8.109375 
L 31.59375 8.109375 
Q 46.6875 8.109375 53.6875 14.9375 
Q 60.6875 21.78125 60.6875 36.53125 
Q 60.6875 51.171875 53.6875 57.984375 
Q 46.6875 64.796875 31.59375 64.796875 
z
M 9.8125 72.90625 
L 30.078125 72.90625 
Q 51.265625 72.90625 61.171875 64.09375 
Q 71.09375 55.28125 71.09375 36.53125 
Q 71.09375 17.671875 61.125 8.828125 
Q 51.171875 0 30.078125 0 
L 9.8125 0 
z
" id="DejaVuSans-68"/>
       <path d="M 19.671875 64.796875 
L 19.671875 37.40625 
L 32.078125 37.40625 
Q 38.96875 37.40625 42.71875 40.96875 
Q 46.484375 44.53125 46.484375 51.125 
Q 46.484375 57.671875 42.71875 61.234375 
Q 38.96875 64.796875 32.078125 64.796875 
z
M 9.8125 72.90625 
L 32.078125 72.90625 
Q 44.34375 72.90625 50.609375 67.359375 
Q 56.890625 61.8125 56.890625 51.125 
Q 56.890625 40.328125 50.609375 34.8125 
Q 44.34375 29.296875 32.078125 29.296875 
L 19.671875 29.296875 
L 19.671875 0 
L 9.8125 0 
z
" id="DejaVuSans-80"/>
      </defs>
      <use transform="translate(0 0.015625)" xlink:href="#DejaVuSans-79"/>
      <use transform="translate(78.710938 0.015625)" xlink:href="#DejaVuSans-112"/>
      <use transform="translate(142.1875 0.015625)" xlink:href="#DejaVuSans-116"/>
      <use transform="translate(181.396484 0.015625)" xlink:href="#DejaVuSans-46"/>
      <use transform="translate(265.136394 0.015625)" xlink:href="#DejaVuSans-112"/>
      <use transform="translate(328.612957 0.015625)" xlink:href="#DejaVuSans-111"/>
      <use transform="translate(389.794597 0.015625)" xlink:href="#DejaVuSans-108"/>
      <use transform="translate(417.5778 0.015625)" xlink:href="#DejaVuSans-105"/>
      <use transform="translate(445.361003 0.015625)" xlink:href="#DejaVuSans-99"/>
      <use transform="translate(500.341472 0.015625)" xlink:href="#DejaVuSans-121"/>
      <use transform="translate(591.991538 0.015625)" xlink:href="#DejaVuSans-111"/>
      <use transform="translate(653.173179 0.015625)" xlink:href="#DejaVuSans-110"/>
      <use transform="translate(749.022463 0.015625)" xlink:href="#DejaVuSans-77"/>
      <use transform="translate(835.30176 0.015625)" xlink:href="#DejaVuSans-68"/>
      <use transform="translate(912.303713 0.015625)" xlink:href="#DejaVuSans-80"/>
     </g>
    </g>
    <g id="line2d_46">
     <path d="M 66.6 26.272 
L 86.6 26.272 
" style="fill:none;stroke:#4b0082;stroke-linecap:square;stroke-width:2;"/>
    </g>
    <g id="line2d_47"/>
    <g id="text_18">
     <!-- $\mathrm{Opt. \ FSC \ on  \ POMDP, |n|=5}$ -->
     <g transform="translate(94.6 29.772)scale(0.1 -0.1)">
      <defs>
       <path d="M 9.8125 72.90625 
L 51.703125 72.90625 
L 51.703125 64.59375 
L 19.671875 64.59375 
L 19.671875 43.109375 
L 48.578125 43.109375 
L 48.578125 34.8125 
L 19.671875 34.8125 
L 19.671875 0 
L 9.8125 0 
z
" id="DejaVuSans-70"/>
       <path d="M 53.515625 70.515625 
L 53.515625 60.890625 
Q 47.90625 63.578125 42.921875 64.890625 
Q 37.9375 66.21875 33.296875 66.21875 
Q 25.25 66.21875 20.875 63.09375 
Q 16.5 59.96875 16.5 54.203125 
Q 16.5 49.359375 19.40625 46.890625 
Q 22.3125 44.4375 30.421875 42.921875 
L 36.375 41.703125 
Q 47.40625 39.59375 52.65625 34.296875 
Q 57.90625 29 57.90625 20.125 
Q 57.90625 9.515625 50.796875 4.046875 
Q 43.703125 -1.421875 29.984375 -1.421875 
Q 24.8125 -1.421875 18.96875 -0.25 
Q 13.140625 0.921875 6.890625 3.21875 
L 6.890625 13.375 
Q 12.890625 10.015625 18.65625 8.296875 
Q 24.421875 6.59375 29.984375 6.59375 
Q 38.421875 6.59375 43.015625 9.90625 
Q 47.609375 13.234375 47.609375 19.390625 
Q 47.609375 24.75 44.3125 27.78125 
Q 41.015625 30.8125 33.5 32.328125 
L 27.484375 33.5 
Q 16.453125 35.6875 11.515625 40.375 
Q 6.59375 45.0625 6.59375 53.421875 
Q 6.59375 63.09375 13.40625 68.65625 
Q 20.21875 74.21875 32.171875 74.21875 
Q 37.3125 74.21875 42.625 73.28125 
Q 47.953125 72.359375 53.515625 70.515625 
z
" id="DejaVuSans-83"/>
       <path d="M 64.40625 67.28125 
L 64.40625 56.890625 
Q 59.421875 61.53125 53.78125 63.8125 
Q 48.140625 66.109375 41.796875 66.109375 
Q 29.296875 66.109375 22.65625 58.46875 
Q 16.015625 50.828125 16.015625 36.375 
Q 16.015625 21.96875 22.65625 14.328125 
Q 29.296875 6.6875 41.796875 6.6875 
Q 48.140625 6.6875 53.78125 8.984375 
Q 59.421875 11.28125 64.40625 15.921875 
L 64.40625 5.609375 
Q 59.234375 2.09375 53.4375 0.328125 
Q 47.65625 -1.421875 41.21875 -1.421875 
Q 24.65625 -1.421875 15.125 8.703125 
Q 5.609375 18.84375 5.609375 36.375 
Q 5.609375 53.953125 15.125 64.078125 
Q 24.65625 74.21875 41.21875 74.21875 
Q 47.75 74.21875 53.53125 72.484375 
Q 59.328125 70.75 64.40625 67.28125 
z
" id="DejaVuSans-67"/>
       <path d="M 11.71875 12.40625 
L 22.015625 12.40625 
L 22.015625 4 
L 14.015625 -11.625 
L 7.71875 -11.625 
L 11.71875 4 
z
" id="DejaVuSans-44"/>
       <path d="M 21 76.421875 
L 21 -23.578125 
L 12.703125 -23.578125 
L 12.703125 76.421875 
z
" id="DejaVuSans-124"/>
       <path d="M 10.59375 45.40625 
L 73.1875 45.40625 
L 73.1875 37.203125 
L 10.59375 37.203125 
z
M 10.59375 25.484375 
L 73.1875 25.484375 
L 73.1875 17.1875 
L 10.59375 17.1875 
z
" id="DejaVuSans-61"/>
      </defs>
      <use transform="translate(0 0.578125)" xlink:href="#DejaVuSans-79"/>
      <use transform="translate(78.710938 0.578125)" xlink:href="#DejaVuSans-112"/>
      <use transform="translate(142.1875 0.578125)" xlink:href="#DejaVuSans-116"/>
      <use transform="translate(181.396484 0.578125)" xlink:href="#DejaVuSans-46"/>
      <use transform="translate(265.136394 0.578125)" xlink:href="#DejaVuSans-70"/>
      <use transform="translate(322.655925 0.578125)" xlink:href="#DejaVuSans-83"/>
      <use transform="translate(386.132488 0.578125)" xlink:href="#DejaVuSans-67"/>
      <use transform="translate(488.427085 0.578125)" xlink:href="#DejaVuSans-111"/>
      <use transform="translate(549.608726 0.578125)" xlink:href="#DejaVuSans-110"/>
      <use transform="translate(645.45801 0.578125)" xlink:href="#DejaVuSans-80"/>
      <use transform="translate(705.760745 0.578125)" xlink:href="#DejaVuSans-79"/>
      <use transform="translate(784.471682 0.578125)" xlink:href="#DejaVuSans-77"/>
      <use transform="translate(870.750979 0.578125)" xlink:href="#DejaVuSans-68"/>
      <use transform="translate(947.752932 0.578125)" xlink:href="#DejaVuSans-80"/>
      <use transform="translate(1008.055667 0.578125)" xlink:href="#DejaVuSans-44"/>
      <use transform="translate(1059.325198 0.578125)" xlink:href="#DejaVuSans-124"/>
      <use transform="translate(1093.016604 0.578125)" xlink:href="#DejaVuSans-110"/>
      <use transform="translate(1156.39551 0.578125)" xlink:href="#DejaVuSans-124"/>
      <use transform="translate(1209.569338 0.578125)" xlink:href="#DejaVuSans-61"/>
      <use transform="translate(1312.840823 0.578125)" xlink:href="#DejaVuSans-53"/>
     </g>
    </g>
    <g id="line2d_48">
     <path d="M 242.3 11.472 
L 262.3 11.472 
" style="fill:none;stroke:#008000;stroke-linecap:square;stroke-width:2;"/>
    </g>
    <g id="line2d_49"/>
    <g id="text_19">
     <!-- $\mathrm{Opt. \ FSC \ on  \ POMDP, |n|=10}$ -->
     <g transform="translate(270.3 14.972)scale(0.1 -0.1)">
      <use transform="translate(0 0.578125)" xlink:href="#DejaVuSans-79"/>
      <use transform="translate(78.710938 0.578125)" xlink:href="#DejaVuSans-112"/>
      <use transform="translate(142.1875 0.578125)" xlink:href="#DejaVuSans-116"/>
      <use transform="translate(181.396484 0.578125)" xlink:href="#DejaVuSans-46"/>
      <use transform="translate(265.136394 0.578125)" xlink:href="#DejaVuSans-70"/>
      <use transform="translate(322.655925 0.578125)" xlink:href="#DejaVuSans-83"/>
      <use transform="translate(386.132488 0.578125)" xlink:href="#DejaVuSans-67"/>
      <use transform="translate(488.427085 0.578125)" xlink:href="#DejaVuSans-111"/>
      <use transform="translate(549.608726 0.578125)" xlink:href="#DejaVuSans-110"/>
      <use transform="translate(645.45801 0.578125)" xlink:href="#DejaVuSans-80"/>
      <use transform="translate(705.760745 0.578125)" xlink:href="#DejaVuSans-79"/>
      <use transform="translate(784.471682 0.578125)" xlink:href="#DejaVuSans-77"/>
      <use transform="translate(870.750979 0.578125)" xlink:href="#DejaVuSans-68"/>
      <use transform="translate(947.752932 0.578125)" xlink:href="#DejaVuSans-80"/>
      <use transform="translate(1008.055667 0.578125)" xlink:href="#DejaVuSans-44"/>
      <use transform="translate(1059.325198 0.578125)" xlink:href="#DejaVuSans-124"/>
      <use transform="translate(1093.016604 0.578125)" xlink:href="#DejaVuSans-110"/>
      <use transform="translate(1156.39551 0.578125)" xlink:href="#DejaVuSans-124"/>
      <use transform="translate(1209.569338 0.578125)" xlink:href="#DejaVuSans-61"/>
      <use transform="translate(1312.840823 0.578125)" xlink:href="#DejaVuSans-49"/>
      <use transform="translate(1376.46387 0.578125)" xlink:href="#DejaVuSans-48"/>
     </g>
    </g>
    <g id="line2d_50">
     <path d="M 242.3 26.572 
L 262.3 26.572 
" style="fill:none;stroke:#ff0000;stroke-linecap:square;stroke-width:2;"/>
    </g>
    <g id="line2d_51"/>
    <g id="text_20">
     <!-- $\mathrm{Opt. \ FSC \ on  \ POMDP, |n|=15}$ -->
     <g transform="translate(270.3 30.072)scale(0.1 -0.1)">
      <use transform="translate(0 0.578125)" xlink:href="#DejaVuSans-79"/>
      <use transform="translate(78.710938 0.578125)" xlink:href="#DejaVuSans-112"/>
      <use transform="translate(142.1875 0.578125)" xlink:href="#DejaVuSans-116"/>
      <use transform="translate(181.396484 0.578125)" xlink:href="#DejaVuSans-46"/>
      <use transform="translate(265.136394 0.578125)" xlink:href="#DejaVuSans-70"/>
      <use transform="translate(322.655925 0.578125)" xlink:href="#DejaVuSans-83"/>
      <use transform="translate(386.132488 0.578125)" xlink:href="#DejaVuSans-67"/>
      <use transform="translate(488.427085 0.578125)" xlink:href="#DejaVuSans-111"/>
      <use transform="translate(549.608726 0.578125)" xlink:href="#DejaVuSans-110"/>
      <use transform="translate(645.45801 0.578125)" xlink:href="#DejaVuSans-80"/>
      <use transform="translate(705.760745 0.578125)" xlink:href="#DejaVuSans-79"/>
      <use transform="translate(784.471682 0.578125)" xlink:href="#DejaVuSans-77"/>
      <use transform="translate(870.750979 0.578125)" xlink:href="#DejaVuSans-68"/>
      <use transform="translate(947.752932 0.578125)" xlink:href="#DejaVuSans-80"/>
      <use transform="translate(1008.055667 0.578125)" xlink:href="#DejaVuSans-44"/>
      <use transform="translate(1059.325198 0.578125)" xlink:href="#DejaVuSans-124"/>
      <use transform="translate(1093.016604 0.578125)" xlink:href="#DejaVuSans-110"/>
      <use transform="translate(1156.39551 0.578125)" xlink:href="#DejaVuSans-124"/>
      <use transform="translate(1209.569338 0.578125)" xlink:href="#DejaVuSans-61"/>
      <use transform="translate(1312.840823 0.578125)" xlink:href="#DejaVuSans-49"/>
      <use transform="translate(1376.46387 0.578125)" xlink:href="#DejaVuSans-53"/>
     </g>
    </g>
    <g id="line2d_52">
     <path d="M 424.4 11.472 
L 444.4 11.472 
" style="fill:none;stroke:#808080;stroke-linecap:square;stroke-width:2;"/>
    </g>
    <g id="line2d_53"/>
    <g id="text_21">
     <!-- $\mathrm{Opt. \ FSC \ on  \ POMDP, |n|=1}$ -->
     <g transform="translate(452.4 14.972)scale(0.1 -0.1)">
      <use transform="translate(0 0.578125)" xlink:href="#DejaVuSans-79"/>
      <use transform="translate(78.710938 0.578125)" xlink:href="#DejaVuSans-112"/>
      <use transform="translate(142.1875 0.578125)" xlink:href="#DejaVuSans-116"/>
      <use transform="translate(181.396484 0.578125)" xlink:href="#DejaVuSans-46"/>
      <use transform="translate(265.136394 0.578125)" xlink:href="#DejaVuSans-70"/>
      <use transform="translate(322.655925 0.578125)" xlink:href="#DejaVuSans-83"/>
      <use transform="translate(386.132488 0.578125)" xlink:href="#DejaVuSans-67"/>
      <use transform="translate(488.427085 0.578125)" xlink:href="#DejaVuSans-111"/>
      <use transform="translate(549.608726 0.578125)" xlink:href="#DejaVuSans-110"/>
      <use transform="translate(645.45801 0.578125)" xlink:href="#DejaVuSans-80"/>
      <use transform="translate(705.760745 0.578125)" xlink:href="#DejaVuSans-79"/>
      <use transform="translate(784.471682 0.578125)" xlink:href="#DejaVuSans-77"/>
      <use transform="translate(870.750979 0.578125)" xlink:href="#DejaVuSans-68"/>
      <use transform="translate(947.752932 0.578125)" xlink:href="#DejaVuSans-80"/>
      <use transform="translate(1008.055667 0.578125)" xlink:href="#DejaVuSans-44"/>
      <use transform="translate(1059.325198 0.578125)" xlink:href="#DejaVuSans-124"/>
      <use transform="translate(1093.016604 0.578125)" xlink:href="#DejaVuSans-110"/>
      <use transform="translate(1156.39551 0.578125)" xlink:href="#DejaVuSans-124"/>
      <use transform="translate(1209.569338 0.578125)" xlink:href="#DejaVuSans-61"/>
      <use transform="translate(1312.840823 0.578125)" xlink:href="#DejaVuSans-49"/>
     </g>
    </g>
   </g>
  </g>
 </g>
 <defs>
  <clipPath id="p1171d511c9">
   <rect height="266.112" width="357.12" x="57.6" y="41.472"/>
  </clipPath>
 </defs>
</svg>
