<?xml version="1.0" encoding="utf-8" standalone="no"?>
<!DOCTYPE svg PUBLIC "-//W3C//DTD SVG 1.1//EN"
  "http://www.w3.org/Graphics/SVG/1.1/DTD/svg11.dtd">
<!-- Created with matplotlib (https://matplotlib.org/) -->
<svg height="345.6pt" version="1.1" viewBox="0 0 460.8 345.6" width="460.8pt" xmlns="http://www.w3.org/2000/svg" xmlns:xlink="http://www.w3.org/1999/xlink">
 <metadata>
  <rdf:RDF xmlns:cc="http://creativecommons.org/ns#" xmlns:dc="http://purl.org/dc/elements/1.1/" xmlns:rdf="http://www.w3.org/1999/02/22-rdf-syntax-ns#">
   <cc:Work>
    <dc:type rdf:resource="http://purl.org/dc/dcmitype/StillImage"/>
    <dc:date>2021-05-25T20:13:03.040659</dc:date>
    <dc:format>image/svg+xml</dc:format>
    <dc:creator>
     <cc:Agent>
      <dc:title>Matplotlib v3.3.4, https://matplotlib.org/</dc:title>
     </cc:Agent>
    </dc:creator>
   </cc:Work>
  </rdf:RDF>
 </metadata>
 <defs>
  <style type="text/css">*{stroke-linecap:butt;stroke-linejoin:round;}</style>
 </defs>
 <g id="figure_1">
  <g id="patch_1">
   <path d="M 0 345.6 
L 460.8 345.6 
L 460.8 0 
L 0 0 
z
" style="fill:none;"/>
  </g>
  <g id="axes_1">
   <g id="patch_2">
    <path d="M 57.6 307.584 
L 414.72 307.584 
L 414.72 41.472 
L 57.6 41.472 
z
" style="fill:none;"/>
   </g>
   <g id="matplotlib.axis_1">
    <g id="xtick_1">
     <g id="line2d_1">
      <path clip-path="url(#p26488540fb)" d="M 73.832727 307.584 
L 73.832727 41.472 
" style="fill:none;stroke:#b0b0b0;stroke-linecap:square;stroke-width:0.8;"/>
     </g>
     <g id="line2d_2">
      <defs>
       <path d="M 0 0 
L 0 3.5 
" id="m856d568821" style="stroke:#000000;stroke-width:0.8;"/>
      </defs>
      <g>
       <use style="stroke:#000000;stroke-width:0.8;" x="73.832727" xlink:href="#m856d568821" y="307.584"/>
      </g>
     </g>
     <g id="text_1">
      <!-- 0 -->
      <g transform="translate(70.651477 322.182437)scale(0.1 -0.1)">
       <defs>
        <path d="M 31.78125 66.40625 
Q 24.171875 66.40625 20.328125 58.90625 
Q 16.5 51.421875 16.5 36.375 
Q 16.5 21.390625 20.328125 13.890625 
Q 24.171875 6.390625 31.78125 6.390625 
Q 39.453125 6.390625 43.28125 13.890625 
Q 47.125 21.390625 47.125 36.375 
Q 47.125 51.421875 43.28125 58.90625 
Q 39.453125 66.40625 31.78125 66.40625 
z
M 31.78125 74.21875 
Q 44.046875 74.21875 50.515625 64.515625 
Q 56.984375 54.828125 56.984375 36.375 
Q 56.984375 17.96875 50.515625 8.265625 
Q 44.046875 -1.421875 31.78125 -1.421875 
Q 19.53125 -1.421875 13.0625 8.265625 
Q 6.59375 17.96875 6.59375 36.375 
Q 6.59375 54.828125 13.0625 64.515625 
Q 19.53125 74.21875 31.78125 74.21875 
z
" id="DejaVuSans-48"/>
       </defs>
       <use xlink:href="#DejaVuSans-48"/>
      </g>
     </g>
    </g>
    <g id="xtick_2">
     <g id="line2d_3">
      <path clip-path="url(#p26488540fb)" d="M 139.419504 307.584 
L 139.419504 41.472 
" style="fill:none;stroke:#b0b0b0;stroke-linecap:square;stroke-width:0.8;"/>
     </g>
     <g id="line2d_4">
      <g>
       <use style="stroke:#000000;stroke-width:0.8;" x="139.419504" xlink:href="#m856d568821" y="307.584"/>
      </g>
     </g>
     <g id="text_2">
      <!-- 20 -->
      <g transform="translate(133.057004 322.182437)scale(0.1 -0.1)">
       <defs>
        <path d="M 19.1875 8.296875 
L 53.609375 8.296875 
L 53.609375 0 
L 7.328125 0 
L 7.328125 8.296875 
Q 12.9375 14.109375 22.625 23.890625 
Q 32.328125 33.6875 34.8125 36.53125 
Q 39.546875 41.84375 41.421875 45.53125 
Q 43.3125 49.21875 43.3125 52.78125 
Q 43.3125 58.59375 39.234375 62.25 
Q 35.15625 65.921875 28.609375 65.921875 
Q 23.96875 65.921875 18.8125 64.3125 
Q 13.671875 62.703125 7.8125 59.421875 
L 7.8125 69.390625 
Q 13.765625 71.78125 18.9375 73 
Q 24.125 74.21875 28.421875 74.21875 
Q 39.75 74.21875 46.484375 68.546875 
Q 53.21875 62.890625 53.21875 53.421875 
Q 53.21875 48.921875 51.53125 44.890625 
Q 49.859375 40.875 45.40625 35.40625 
Q 44.1875 33.984375 37.640625 27.21875 
Q 31.109375 20.453125 19.1875 8.296875 
z
" id="DejaVuSans-50"/>
       </defs>
       <use xlink:href="#DejaVuSans-50"/>
       <use x="63.623047" xlink:href="#DejaVuSans-48"/>
      </g>
     </g>
    </g>
    <g id="xtick_3">
     <g id="line2d_5">
      <path clip-path="url(#p26488540fb)" d="M 205.006281 307.584 
L 205.006281 41.472 
" style="fill:none;stroke:#b0b0b0;stroke-linecap:square;stroke-width:0.8;"/>
     </g>
     <g id="line2d_6">
      <g>
       <use style="stroke:#000000;stroke-width:0.8;" x="205.006281" xlink:href="#m856d568821" y="307.584"/>
      </g>
     </g>
     <g id="text_3">
      <!-- 40 -->
      <g transform="translate(198.643781 322.182437)scale(0.1 -0.1)">
       <defs>
        <path d="M 37.796875 64.3125 
L 12.890625 25.390625 
L 37.796875 25.390625 
z
M 35.203125 72.90625 
L 47.609375 72.90625 
L 47.609375 25.390625 
L 58.015625 25.390625 
L 58.015625 17.1875 
L 47.609375 17.1875 
L 47.609375 0 
L 37.796875 0 
L 37.796875 17.1875 
L 4.890625 17.1875 
L 4.890625 26.703125 
z
" id="DejaVuSans-52"/>
       </defs>
       <use xlink:href="#DejaVuSans-52"/>
       <use x="63.623047" xlink:href="#DejaVuSans-48"/>
      </g>
     </g>
    </g>
    <g id="xtick_4">
     <g id="line2d_7">
      <path clip-path="url(#p26488540fb)" d="M 270.593058 307.584 
L 270.593058 41.472 
" style="fill:none;stroke:#b0b0b0;stroke-linecap:square;stroke-width:0.8;"/>
     </g>
     <g id="line2d_8">
      <g>
       <use style="stroke:#000000;stroke-width:0.8;" x="270.593058" xlink:href="#m856d568821" y="307.584"/>
      </g>
     </g>
     <g id="text_4">
      <!-- 60 -->
      <g transform="translate(264.230558 322.182437)scale(0.1 -0.1)">
       <defs>
        <path d="M 33.015625 40.375 
Q 26.375 40.375 22.484375 35.828125 
Q 18.609375 31.296875 18.609375 23.390625 
Q 18.609375 15.53125 22.484375 10.953125 
Q 26.375 6.390625 33.015625 6.390625 
Q 39.65625 6.390625 43.53125 10.953125 
Q 47.40625 15.53125 47.40625 23.390625 
Q 47.40625 31.296875 43.53125 35.828125 
Q 39.65625 40.375 33.015625 40.375 
z
M 52.59375 71.296875 
L 52.59375 62.3125 
Q 48.875 64.0625 45.09375 64.984375 
Q 41.3125 65.921875 37.59375 65.921875 
Q 27.828125 65.921875 22.671875 59.328125 
Q 17.53125 52.734375 16.796875 39.40625 
Q 19.671875 43.65625 24.015625 45.921875 
Q 28.375 48.1875 33.59375 48.1875 
Q 44.578125 48.1875 50.953125 41.515625 
Q 57.328125 34.859375 57.328125 23.390625 
Q 57.328125 12.15625 50.6875 5.359375 
Q 44.046875 -1.421875 33.015625 -1.421875 
Q 20.359375 -1.421875 13.671875 8.265625 
Q 6.984375 17.96875 6.984375 36.375 
Q 6.984375 53.65625 15.1875 63.9375 
Q 23.390625 74.21875 37.203125 74.21875 
Q 40.921875 74.21875 44.703125 73.484375 
Q 48.484375 72.75 52.59375 71.296875 
z
" id="DejaVuSans-54"/>
       </defs>
       <use xlink:href="#DejaVuSans-54"/>
       <use x="63.623047" xlink:href="#DejaVuSans-48"/>
      </g>
     </g>
    </g>
    <g id="xtick_5">
     <g id="line2d_9">
      <path clip-path="url(#p26488540fb)" d="M 336.179835 307.584 
L 336.179835 41.472 
" style="fill:none;stroke:#b0b0b0;stroke-linecap:square;stroke-width:0.8;"/>
     </g>
     <g id="line2d_10">
      <g>
       <use style="stroke:#000000;stroke-width:0.8;" x="336.179835" xlink:href="#m856d568821" y="307.584"/>
      </g>
     </g>
     <g id="text_5">
      <!-- 80 -->
      <g transform="translate(329.817335 322.182437)scale(0.1 -0.1)">
       <defs>
        <path d="M 31.78125 34.625 
Q 24.75 34.625 20.71875 30.859375 
Q 16.703125 27.09375 16.703125 20.515625 
Q 16.703125 13.921875 20.71875 10.15625 
Q 24.75 6.390625 31.78125 6.390625 
Q 38.8125 6.390625 42.859375 10.171875 
Q 46.921875 13.96875 46.921875 20.515625 
Q 46.921875 27.09375 42.890625 30.859375 
Q 38.875 34.625 31.78125 34.625 
z
M 21.921875 38.8125 
Q 15.578125 40.375 12.03125 44.71875 
Q 8.5 49.078125 8.5 55.328125 
Q 8.5 64.0625 14.71875 69.140625 
Q 20.953125 74.21875 31.78125 74.21875 
Q 42.671875 74.21875 48.875 69.140625 
Q 55.078125 64.0625 55.078125 55.328125 
Q 55.078125 49.078125 51.53125 44.71875 
Q 48 40.375 41.703125 38.8125 
Q 48.828125 37.15625 52.796875 32.3125 
Q 56.78125 27.484375 56.78125 20.515625 
Q 56.78125 9.90625 50.3125 4.234375 
Q 43.84375 -1.421875 31.78125 -1.421875 
Q 19.734375 -1.421875 13.25 4.234375 
Q 6.78125 9.90625 6.78125 20.515625 
Q 6.78125 27.484375 10.78125 32.3125 
Q 14.796875 37.15625 21.921875 38.8125 
z
M 18.3125 54.390625 
Q 18.3125 48.734375 21.84375 45.5625 
Q 25.390625 42.390625 31.78125 42.390625 
Q 38.140625 42.390625 41.71875 45.5625 
Q 45.3125 48.734375 45.3125 54.390625 
Q 45.3125 60.0625 41.71875 63.234375 
Q 38.140625 66.40625 31.78125 66.40625 
Q 25.390625 66.40625 21.84375 63.234375 
Q 18.3125 60.0625 18.3125 54.390625 
z
" id="DejaVuSans-56"/>
       </defs>
       <use xlink:href="#DejaVuSans-56"/>
       <use x="63.623047" xlink:href="#DejaVuSans-48"/>
      </g>
     </g>
    </g>
    <g id="xtick_6">
     <g id="line2d_11">
      <path clip-path="url(#p26488540fb)" d="M 401.766612 307.584 
L 401.766612 41.472 
" style="fill:none;stroke:#b0b0b0;stroke-linecap:square;stroke-width:0.8;"/>
     </g>
     <g id="line2d_12">
      <g>
       <use style="stroke:#000000;stroke-width:0.8;" x="401.766612" xlink:href="#m856d568821" y="307.584"/>
      </g>
     </g>
     <g id="text_6">
      <!-- 100 -->
      <g transform="translate(392.222862 322.182437)scale(0.1 -0.1)">
       <defs>
        <path d="M 12.40625 8.296875 
L 28.515625 8.296875 
L 28.515625 63.921875 
L 10.984375 60.40625 
L 10.984375 69.390625 
L 28.421875 72.90625 
L 38.28125 72.90625 
L 38.28125 8.296875 
L 54.390625 8.296875 
L 54.390625 0 
L 12.40625 0 
z
" id="DejaVuSans-49"/>
       </defs>
       <use xlink:href="#DejaVuSans-49"/>
       <use x="63.623047" xlink:href="#DejaVuSans-48"/>
       <use x="127.246094" xlink:href="#DejaVuSans-48"/>
      </g>
     </g>
    </g>
    <g id="text_7">
     <!-- $\mathrm{Time \ steps}$ -->
     <g transform="translate(208.71 335.862125)scale(0.1 -0.1)">
      <defs>
       <path d="M -0.296875 72.90625 
L 61.375 72.90625 
L 61.375 64.59375 
L 35.5 64.59375 
L 35.5 0 
L 25.59375 0 
L 25.59375 64.59375 
L -0.296875 64.59375 
z
" id="DejaVuSans-84"/>
       <path d="M 9.421875 54.6875 
L 18.40625 54.6875 
L 18.40625 0 
L 9.421875 0 
z
M 9.421875 75.984375 
L 18.40625 75.984375 
L 18.40625 64.59375 
L 9.421875 64.59375 
z
" id="DejaVuSans-105"/>
       <path d="M 52 44.1875 
Q 55.375 50.25 60.0625 53.125 
Q 64.75 56 71.09375 56 
Q 79.640625 56 84.28125 50.015625 
Q 88.921875 44.046875 88.921875 33.015625 
L 88.921875 0 
L 79.890625 0 
L 79.890625 32.71875 
Q 79.890625 40.578125 77.09375 44.375 
Q 74.3125 48.1875 68.609375 48.1875 
Q 61.625 48.1875 57.5625 43.546875 
Q 53.515625 38.921875 53.515625 30.90625 
L 53.515625 0 
L 44.484375 0 
L 44.484375 32.71875 
Q 44.484375 40.625 41.703125 44.40625 
Q 38.921875 48.1875 33.109375 48.1875 
Q 26.21875 48.1875 22.15625 43.53125 
Q 18.109375 38.875 18.109375 30.90625 
L 18.109375 0 
L 9.078125 0 
L 9.078125 54.6875 
L 18.109375 54.6875 
L 18.109375 46.1875 
Q 21.1875 51.21875 25.484375 53.609375 
Q 29.78125 56 35.6875 56 
Q 41.65625 56 45.828125 52.96875 
Q 50 49.953125 52 44.1875 
z
" id="DejaVuSans-109"/>
       <path d="M 56.203125 29.59375 
L 56.203125 25.203125 
L 14.890625 25.203125 
Q 15.484375 15.921875 20.484375 11.0625 
Q 25.484375 6.203125 34.421875 6.203125 
Q 39.59375 6.203125 44.453125 7.46875 
Q 49.3125 8.734375 54.109375 11.28125 
L 54.109375 2.78125 
Q 49.265625 0.734375 44.1875 -0.34375 
Q 39.109375 -1.421875 33.890625 -1.421875 
Q 20.796875 -1.421875 13.15625 6.1875 
Q 5.515625 13.8125 5.515625 26.8125 
Q 5.515625 40.234375 12.765625 48.109375 
Q 20.015625 56 32.328125 56 
Q 43.359375 56 49.78125 48.890625 
Q 56.203125 41.796875 56.203125 29.59375 
z
M 47.21875 32.234375 
Q 47.125 39.59375 43.09375 43.984375 
Q 39.0625 48.390625 32.421875 48.390625 
Q 24.90625 48.390625 20.390625 44.140625 
Q 15.875 39.890625 15.1875 32.171875 
z
" id="DejaVuSans-101"/>
       <path d="M 44.28125 53.078125 
L 44.28125 44.578125 
Q 40.484375 46.53125 36.375 47.5 
Q 32.28125 48.484375 27.875 48.484375 
Q 21.1875 48.484375 17.84375 46.4375 
Q 14.5 44.390625 14.5 40.28125 
Q 14.5 37.15625 16.890625 35.375 
Q 19.28125 33.59375 26.515625 31.984375 
L 29.59375 31.296875 
Q 39.15625 29.25 43.1875 25.515625 
Q 47.21875 21.78125 47.21875 15.09375 
Q 47.21875 7.46875 41.1875 3.015625 
Q 35.15625 -1.421875 24.609375 -1.421875 
Q 20.21875 -1.421875 15.453125 -0.5625 
Q 10.6875 0.296875 5.421875 2 
L 5.421875 11.28125 
Q 10.40625 8.6875 15.234375 7.390625 
Q 20.0625 6.109375 24.8125 6.109375 
Q 31.15625 6.109375 34.5625 8.28125 
Q 37.984375 10.453125 37.984375 14.40625 
Q 37.984375 18.0625 35.515625 20.015625 
Q 33.0625 21.96875 24.703125 23.78125 
L 21.578125 24.515625 
Q 13.234375 26.265625 9.515625 29.90625 
Q 5.8125 33.546875 5.8125 39.890625 
Q 5.8125 47.609375 11.28125 51.796875 
Q 16.75 56 26.8125 56 
Q 31.78125 56 36.171875 55.265625 
Q 40.578125 54.546875 44.28125 53.078125 
z
" id="DejaVuSans-115"/>
       <path d="M 18.3125 70.21875 
L 18.3125 54.6875 
L 36.8125 54.6875 
L 36.8125 47.703125 
L 18.3125 47.703125 
L 18.3125 18.015625 
Q 18.3125 11.328125 20.140625 9.421875 
Q 21.96875 7.515625 27.59375 7.515625 
L 36.8125 7.515625 
L 36.8125 0 
L 27.59375 0 
Q 17.1875 0 13.234375 3.875 
Q 9.28125 7.765625 9.28125 18.015625 
L 9.28125 47.703125 
L 2.6875 47.703125 
L 2.6875 54.6875 
L 9.28125 54.6875 
L 9.28125 70.21875 
z
" id="DejaVuSans-116"/>
       <path d="M 18.109375 8.203125 
L 18.109375 -20.796875 
L 9.078125 -20.796875 
L 9.078125 54.6875 
L 18.109375 54.6875 
L 18.109375 46.390625 
Q 20.953125 51.265625 25.265625 53.625 
Q 29.59375 56 35.59375 56 
Q 45.5625 56 51.78125 48.09375 
Q 58.015625 40.1875 58.015625 27.296875 
Q 58.015625 14.40625 51.78125 6.484375 
Q 45.5625 -1.421875 35.59375 -1.421875 
Q 29.59375 -1.421875 25.265625 0.953125 
Q 20.953125 3.328125 18.109375 8.203125 
z
M 48.6875 27.296875 
Q 48.6875 37.203125 44.609375 42.84375 
Q 40.53125 48.484375 33.40625 48.484375 
Q 26.265625 48.484375 22.1875 42.84375 
Q 18.109375 37.203125 18.109375 27.296875 
Q 18.109375 17.390625 22.1875 11.75 
Q 26.265625 6.109375 33.40625 6.109375 
Q 40.53125 6.109375 44.609375 11.75 
Q 48.6875 17.390625 48.6875 27.296875 
z
" id="DejaVuSans-112"/>
      </defs>
      <use transform="translate(0 0.015625)" xlink:href="#DejaVuSans-84"/>
      <use transform="translate(61.083984 0.015625)" xlink:href="#DejaVuSans-105"/>
      <use transform="translate(88.867188 0.015625)" xlink:href="#DejaVuSans-109"/>
      <use transform="translate(186.279297 0.015625)" xlink:href="#DejaVuSans-101"/>
      <use transform="translate(280.273113 0.015625)" xlink:href="#DejaVuSans-115"/>
      <use transform="translate(332.372722 0.015625)" xlink:href="#DejaVuSans-116"/>
      <use transform="translate(371.581707 0.015625)" xlink:href="#DejaVuSans-101"/>
      <use transform="translate(433.105144 0.015625)" xlink:href="#DejaVuSans-112"/>
      <use transform="translate(496.581707 0.015625)" xlink:href="#DejaVuSans-115"/>
     </g>
    </g>
   </g>
   <g id="matplotlib.axis_2">
    <g id="ytick_1">
     <g id="line2d_13">
      <path clip-path="url(#p26488540fb)" d="M 57.6 282.3841 
L 414.72 282.3841 
" style="fill:none;stroke:#b0b0b0;stroke-linecap:square;stroke-width:0.8;"/>
     </g>
     <g id="line2d_14">
      <defs>
       <path d="M 0 0 
L -3.5 0 
" id="m798b51badc" style="stroke:#000000;stroke-width:0.8;"/>
      </defs>
      <g>
       <use style="stroke:#000000;stroke-width:0.8;" x="57.6" xlink:href="#m798b51badc" y="282.3841"/>
      </g>
     </g>
     <g id="text_8">
      <!-- −20 -->
      <g transform="translate(29.495313 286.183319)scale(0.1 -0.1)">
       <defs>
        <path d="M 10.59375 35.5 
L 73.1875 35.5 
L 73.1875 27.203125 
L 10.59375 27.203125 
z
" id="DejaVuSans-8722"/>
       </defs>
       <use xlink:href="#DejaVuSans-8722"/>
       <use x="83.789062" xlink:href="#DejaVuSans-50"/>
       <use x="147.412109" xlink:href="#DejaVuSans-48"/>
      </g>
     </g>
    </g>
    <g id="ytick_2">
     <g id="line2d_15">
      <path clip-path="url(#p26488540fb)" d="M 57.6 226.068813 
L 414.72 226.068813 
" style="fill:none;stroke:#b0b0b0;stroke-linecap:square;stroke-width:0.8;"/>
     </g>
     <g id="line2d_16">
      <g>
       <use style="stroke:#000000;stroke-width:0.8;" x="57.6" xlink:href="#m798b51badc" y="226.068813"/>
      </g>
     </g>
     <g id="text_9">
      <!-- 0 -->
      <g transform="translate(44.2375 229.868032)scale(0.1 -0.1)">
       <use xlink:href="#DejaVuSans-48"/>
      </g>
     </g>
    </g>
    <g id="ytick_3">
     <g id="line2d_17">
      <path clip-path="url(#p26488540fb)" d="M 57.6 169.753526 
L 414.72 169.753526 
" style="fill:none;stroke:#b0b0b0;stroke-linecap:square;stroke-width:0.8;"/>
     </g>
     <g id="line2d_18">
      <g>
       <use style="stroke:#000000;stroke-width:0.8;" x="57.6" xlink:href="#m798b51badc" y="169.753526"/>
      </g>
     </g>
     <g id="text_10">
      <!-- 20 -->
      <g transform="translate(37.875 173.552745)scale(0.1 -0.1)">
       <use xlink:href="#DejaVuSans-50"/>
       <use x="63.623047" xlink:href="#DejaVuSans-48"/>
      </g>
     </g>
    </g>
    <g id="ytick_4">
     <g id="line2d_19">
      <path clip-path="url(#p26488540fb)" d="M 57.6 113.438239 
L 414.72 113.438239 
" style="fill:none;stroke:#b0b0b0;stroke-linecap:square;stroke-width:0.8;"/>
     </g>
     <g id="line2d_20">
      <g>
       <use style="stroke:#000000;stroke-width:0.8;" x="57.6" xlink:href="#m798b51badc" y="113.438239"/>
      </g>
     </g>
     <g id="text_11">
      <!-- 40 -->
      <g transform="translate(37.875 117.237458)scale(0.1 -0.1)">
       <use xlink:href="#DejaVuSans-52"/>
       <use x="63.623047" xlink:href="#DejaVuSans-48"/>
      </g>
     </g>
    </g>
    <g id="ytick_5">
     <g id="line2d_21">
      <path clip-path="url(#p26488540fb)" d="M 57.6 57.122952 
L 414.72 57.122952 
" style="fill:none;stroke:#b0b0b0;stroke-linecap:square;stroke-width:0.8;"/>
     </g>
     <g id="line2d_22">
      <g>
       <use style="stroke:#000000;stroke-width:0.8;" x="57.6" xlink:href="#m798b51badc" y="57.122952"/>
      </g>
     </g>
     <g id="text_12">
      <!-- 60 -->
      <g transform="translate(37.875 60.922171)scale(0.1 -0.1)">
       <use xlink:href="#DejaVuSans-54"/>
       <use x="63.623047" xlink:href="#DejaVuSans-48"/>
      </g>
     </g>
    </g>
    <g id="text_13">
     <!-- $\mathrm{Mean \ accumulated \ reward}$ -->
     <g transform="translate(23.415625 241.378)rotate(-90)scale(0.1 -0.1)">
      <defs>
       <path d="M 9.8125 72.90625 
L 24.515625 72.90625 
L 43.109375 23.296875 
L 61.8125 72.90625 
L 76.515625 72.90625 
L 76.515625 0 
L 66.890625 0 
L 66.890625 64.015625 
L 48.09375 14.015625 
L 38.1875 14.015625 
L 19.390625 64.015625 
L 19.390625 0 
L 9.8125 0 
z
" id="DejaVuSans-77"/>
       <path d="M 34.28125 27.484375 
Q 23.390625 27.484375 19.1875 25 
Q 14.984375 22.515625 14.984375 16.5 
Q 14.984375 11.71875 18.140625 8.90625 
Q 21.296875 6.109375 26.703125 6.109375 
Q 34.1875 6.109375 38.703125 11.40625 
Q 43.21875 16.703125 43.21875 25.484375 
L 43.21875 27.484375 
z
M 52.203125 31.203125 
L 52.203125 0 
L 43.21875 0 
L 43.21875 8.296875 
Q 40.140625 3.328125 35.546875 0.953125 
Q 30.953125 -1.421875 24.3125 -1.421875 
Q 15.921875 -1.421875 10.953125 3.296875 
Q 6 8.015625 6 15.921875 
Q 6 25.140625 12.171875 29.828125 
Q 18.359375 34.515625 30.609375 34.515625 
L 43.21875 34.515625 
L 43.21875 35.40625 
Q 43.21875 41.609375 39.140625 45 
Q 35.0625 48.390625 27.6875 48.390625 
Q 23 48.390625 18.546875 47.265625 
Q 14.109375 46.140625 10.015625 43.890625 
L 10.015625 52.203125 
Q 14.9375 54.109375 19.578125 55.046875 
Q 24.21875 56 28.609375 56 
Q 40.484375 56 46.34375 49.84375 
Q 52.203125 43.703125 52.203125 31.203125 
z
" id="DejaVuSans-97"/>
       <path d="M 54.890625 33.015625 
L 54.890625 0 
L 45.90625 0 
L 45.90625 32.71875 
Q 45.90625 40.484375 42.875 44.328125 
Q 39.84375 48.1875 33.796875 48.1875 
Q 26.515625 48.1875 22.3125 43.546875 
Q 18.109375 38.921875 18.109375 30.90625 
L 18.109375 0 
L 9.078125 0 
L 9.078125 54.6875 
L 18.109375 54.6875 
L 18.109375 46.1875 
Q 21.34375 51.125 25.703125 53.5625 
Q 30.078125 56 35.796875 56 
Q 45.21875 56 50.046875 50.171875 
Q 54.890625 44.34375 54.890625 33.015625 
z
" id="DejaVuSans-110"/>
       <path d="M 48.78125 52.59375 
L 48.78125 44.1875 
Q 44.96875 46.296875 41.140625 47.34375 
Q 37.3125 48.390625 33.40625 48.390625 
Q 24.65625 48.390625 19.8125 42.84375 
Q 14.984375 37.3125 14.984375 27.296875 
Q 14.984375 17.28125 19.8125 11.734375 
Q 24.65625 6.203125 33.40625 6.203125 
Q 37.3125 6.203125 41.140625 7.25 
Q 44.96875 8.296875 48.78125 10.40625 
L 48.78125 2.09375 
Q 45.015625 0.34375 40.984375 -0.53125 
Q 36.96875 -1.421875 32.421875 -1.421875 
Q 20.0625 -1.421875 12.78125 6.34375 
Q 5.515625 14.109375 5.515625 27.296875 
Q 5.515625 40.671875 12.859375 48.328125 
Q 20.21875 56 33.015625 56 
Q 37.15625 56 41.109375 55.140625 
Q 45.0625 54.296875 48.78125 52.59375 
z
" id="DejaVuSans-99"/>
       <path d="M 8.5 21.578125 
L 8.5 54.6875 
L 17.484375 54.6875 
L 17.484375 21.921875 
Q 17.484375 14.15625 20.5 10.265625 
Q 23.53125 6.390625 29.59375 6.390625 
Q 36.859375 6.390625 41.078125 11.03125 
Q 45.3125 15.671875 45.3125 23.6875 
L 45.3125 54.6875 
L 54.296875 54.6875 
L 54.296875 0 
L 45.3125 0 
L 45.3125 8.40625 
Q 42.046875 3.421875 37.71875 1 
Q 33.40625 -1.421875 27.6875 -1.421875 
Q 18.265625 -1.421875 13.375 4.4375 
Q 8.5 10.296875 8.5 21.578125 
z
M 31.109375 56 
z
" id="DejaVuSans-117"/>
       <path d="M 9.421875 75.984375 
L 18.40625 75.984375 
L 18.40625 0 
L 9.421875 0 
z
" id="DejaVuSans-108"/>
       <path d="M 45.40625 46.390625 
L 45.40625 75.984375 
L 54.390625 75.984375 
L 54.390625 0 
L 45.40625 0 
L 45.40625 8.203125 
Q 42.578125 3.328125 38.25 0.953125 
Q 33.9375 -1.421875 27.875 -1.421875 
Q 17.96875 -1.421875 11.734375 6.484375 
Q 5.515625 14.40625 5.515625 27.296875 
Q 5.515625 40.1875 11.734375 48.09375 
Q 17.96875 56 27.875 56 
Q 33.9375 56 38.25 53.625 
Q 42.578125 51.265625 45.40625 46.390625 
z
M 14.796875 27.296875 
Q 14.796875 17.390625 18.875 11.75 
Q 22.953125 6.109375 30.078125 6.109375 
Q 37.203125 6.109375 41.296875 11.75 
Q 45.40625 17.390625 45.40625 27.296875 
Q 45.40625 37.203125 41.296875 42.84375 
Q 37.203125 48.484375 30.078125 48.484375 
Q 22.953125 48.484375 18.875 42.84375 
Q 14.796875 37.203125 14.796875 27.296875 
z
" id="DejaVuSans-100"/>
       <path d="M 41.109375 46.296875 
Q 39.59375 47.171875 37.8125 47.578125 
Q 36.03125 48 33.890625 48 
Q 26.265625 48 22.1875 43.046875 
Q 18.109375 38.09375 18.109375 28.8125 
L 18.109375 0 
L 9.078125 0 
L 9.078125 54.6875 
L 18.109375 54.6875 
L 18.109375 46.1875 
Q 20.953125 51.171875 25.484375 53.578125 
Q 30.03125 56 36.53125 56 
Q 37.453125 56 38.578125 55.875 
Q 39.703125 55.765625 41.0625 55.515625 
z
" id="DejaVuSans-114"/>
       <path d="M 4.203125 54.6875 
L 13.1875 54.6875 
L 24.421875 12.015625 
L 35.59375 54.6875 
L 46.1875 54.6875 
L 57.421875 12.015625 
L 68.609375 54.6875 
L 77.59375 54.6875 
L 63.28125 0 
L 52.6875 0 
L 40.921875 44.828125 
L 29.109375 0 
L 18.5 0 
z
" id="DejaVuSans-119"/>
      </defs>
      <use transform="translate(0 0.015625)" xlink:href="#DejaVuSans-77"/>
      <use transform="translate(86.279297 0.015625)" xlink:href="#DejaVuSans-101"/>
      <use transform="translate(147.802734 0.015625)" xlink:href="#DejaVuSans-97"/>
      <use transform="translate(209.082031 0.015625)" xlink:href="#DejaVuSans-110"/>
      <use transform="translate(304.931316 0.015625)" xlink:href="#DejaVuSans-97"/>
      <use transform="translate(366.210613 0.015625)" xlink:href="#DejaVuSans-99"/>
      <use transform="translate(421.191082 0.015625)" xlink:href="#DejaVuSans-99"/>
      <use transform="translate(476.17155 0.015625)" xlink:href="#DejaVuSans-117"/>
      <use transform="translate(539.550457 0.015625)" xlink:href="#DejaVuSans-109"/>
      <use transform="translate(636.962566 0.015625)" xlink:href="#DejaVuSans-117"/>
      <use transform="translate(700.341472 0.015625)" xlink:href="#DejaVuSans-108"/>
      <use transform="translate(728.124675 0.015625)" xlink:href="#DejaVuSans-97"/>
      <use transform="translate(789.403972 0.015625)" xlink:href="#DejaVuSans-116"/>
      <use transform="translate(828.612957 0.015625)" xlink:href="#DejaVuSans-101"/>
      <use transform="translate(890.136394 0.015625)" xlink:href="#DejaVuSans-100"/>
      <use transform="translate(986.083335 0.015625)" xlink:href="#DejaVuSans-114"/>
      <use transform="translate(1027.196616 0.015625)" xlink:href="#DejaVuSans-101"/>
      <use transform="translate(1088.720054 0.015625)" xlink:href="#DejaVuSans-119"/>
      <use transform="translate(1170.507163 0.015625)" xlink:href="#DejaVuSans-97"/>
      <use transform="translate(1231.78646 0.015625)" xlink:href="#DejaVuSans-114"/>
      <use transform="translate(1272.899741 0.015625)" xlink:href="#DejaVuSans-100"/>
     </g>
    </g>
   </g>
   <g id="LineCollection_1">
    <path clip-path="url(#p26488540fb)" d="M 73.832727 226.068813 
L 73.832727 226.068813 
" style="fill:none;stroke:#0000ff;stroke-width:1.5;"/>
    <path clip-path="url(#p26488540fb)" d="M 90.229421 251.350793 
L 90.229421 121.095353 
" style="fill:none;stroke:#0000ff;stroke-width:1.5;"/>
    <path clip-path="url(#p26488540fb)" d="M 106.626116 176.655148 
L 106.626116 58.276669 
" style="fill:none;stroke:#0000ff;stroke-width:1.5;"/>
    <path clip-path="url(#p26488540fb)" d="M 123.02281 126.739745 
L 123.02281 62.329747 
" style="fill:none;stroke:#0000ff;stroke-width:1.5;"/>
    <path clip-path="url(#p26488540fb)" d="M 139.419504 110.656529 
L 139.419504 69.872186 
" style="fill:none;stroke:#0000ff;stroke-width:1.5;"/>
    <path clip-path="url(#p26488540fb)" d="M 155.816198 108.053714 
L 155.816198 71.495679 
" style="fill:none;stroke:#0000ff;stroke-width:1.5;"/>
    <path clip-path="url(#p26488540fb)" d="M 172.212893 107.34249 
L 172.212893 71.926734 
" style="fill:none;stroke:#0000ff;stroke-width:1.5;"/>
    <path clip-path="url(#p26488540fb)" d="M 188.609587 107.34249 
L 188.609587 71.926734 
" style="fill:none;stroke:#0000ff;stroke-width:1.5;"/>
    <path clip-path="url(#p26488540fb)" d="M 205.006281 107.34249 
L 205.006281 71.926734 
" style="fill:none;stroke:#0000ff;stroke-width:1.5;"/>
    <path clip-path="url(#p26488540fb)" d="M 221.402975 107.34249 
L 221.402975 71.926734 
" style="fill:none;stroke:#0000ff;stroke-width:1.5;"/>
    <path clip-path="url(#p26488540fb)" d="M 237.799669 107.34249 
L 237.799669 71.926734 
" style="fill:none;stroke:#0000ff;stroke-width:1.5;"/>
    <path clip-path="url(#p26488540fb)" d="M 254.196364 107.34249 
L 254.196364 71.926734 
" style="fill:none;stroke:#0000ff;stroke-width:1.5;"/>
    <path clip-path="url(#p26488540fb)" d="M 270.593058 107.34249 
L 270.593058 71.926734 
" style="fill:none;stroke:#0000ff;stroke-width:1.5;"/>
    <path clip-path="url(#p26488540fb)" d="M 286.989752 107.34249 
L 286.989752 71.926734 
" style="fill:none;stroke:#0000ff;stroke-width:1.5;"/>
    <path clip-path="url(#p26488540fb)" d="M 303.386446 107.34249 
L 303.386446 71.926734 
" style="fill:none;stroke:#0000ff;stroke-width:1.5;"/>
    <path clip-path="url(#p26488540fb)" d="M 319.78314 107.34249 
L 319.78314 71.926734 
" style="fill:none;stroke:#0000ff;stroke-width:1.5;"/>
    <path clip-path="url(#p26488540fb)" d="M 336.179835 107.34249 
L 336.179835 71.926734 
" style="fill:none;stroke:#0000ff;stroke-width:1.5;"/>
    <path clip-path="url(#p26488540fb)" d="M 352.576529 107.34249 
L 352.576529 71.926734 
" style="fill:none;stroke:#0000ff;stroke-width:1.5;"/>
    <path clip-path="url(#p26488540fb)" d="M 368.973223 107.34249 
L 368.973223 71.926734 
" style="fill:none;stroke:#0000ff;stroke-width:1.5;"/>
    <path clip-path="url(#p26488540fb)" d="M 385.369917 107.34249 
L 385.369917 71.926734 
" style="fill:none;stroke:#0000ff;stroke-width:1.5;"/>
   </g>
   <g id="LineCollection_2">
    <path clip-path="url(#p26488540fb)" d="M 73.832727 226.068813 
L 73.832727 226.068813 
" style="fill:none;stroke:#ffd700;stroke-width:1.5;"/>
    <path clip-path="url(#p26488540fb)" d="M 90.229421 272.797093 
L 90.229421 158.468962 
" style="fill:none;stroke:#ffd700;stroke-width:1.5;"/>
    <path clip-path="url(#p26488540fb)" d="M 106.626116 282.159762 
L 106.626116 117.171865 
" style="fill:none;stroke:#ffd700;stroke-width:1.5;"/>
    <path clip-path="url(#p26488540fb)" d="M 123.02281 286.772866 
L 123.02281 99.848964 
" style="fill:none;stroke:#ffd700;stroke-width:1.5;"/>
    <path clip-path="url(#p26488540fb)" d="M 139.419504 290.248587 
L 139.419504 91.374134 
" style="fill:none;stroke:#ffd700;stroke-width:1.5;"/>
    <path clip-path="url(#p26488540fb)" d="M 155.816198 290.603896 
L 155.816198 87.051132 
" style="fill:none;stroke:#ffd700;stroke-width:1.5;"/>
    <path clip-path="url(#p26488540fb)" d="M 172.212893 290.795578 
L 172.212893 83.598232 
" style="fill:none;stroke:#ffd700;stroke-width:1.5;"/>
    <path clip-path="url(#p26488540fb)" d="M 188.609587 291.567642 
L 188.609587 81.887392 
" style="fill:none;stroke:#ffd700;stroke-width:1.5;"/>
    <path clip-path="url(#p26488540fb)" d="M 205.006281 292.183994 
L 205.006281 80.658611 
" style="fill:none;stroke:#ffd700;stroke-width:1.5;"/>
    <path clip-path="url(#p26488540fb)" d="M 221.402975 294.564565 
L 221.402975 78.855835 
" style="fill:none;stroke:#ffd700;stroke-width:1.5;"/>
    <path clip-path="url(#p26488540fb)" d="M 237.799669 295.488 
L 237.799669 77.961402 
" style="fill:none;stroke:#ffd700;stroke-width:1.5;"/>
    <path clip-path="url(#p26488540fb)" d="M 254.196364 294.878568 
L 254.196364 78.051326 
" style="fill:none;stroke:#ffd700;stroke-width:1.5;"/>
    <path clip-path="url(#p26488540fb)" d="M 270.593058 295.266718 
L 270.593058 77.665709 
" style="fill:none;stroke:#ffd700;stroke-width:1.5;"/>
    <path clip-path="url(#p26488540fb)" d="M 286.989752 295.094193 
L 286.989752 77.638879 
" style="fill:none;stroke:#ffd700;stroke-width:1.5;"/>
    <path clip-path="url(#p26488540fb)" d="M 303.386446 293.979893 
L 303.386446 78.263517 
" style="fill:none;stroke:#ffd700;stroke-width:1.5;"/>
    <path clip-path="url(#p26488540fb)" d="M 319.78314 293.636222 
L 319.78314 78.365033 
" style="fill:none;stroke:#ffd700;stroke-width:1.5;"/>
    <path clip-path="url(#p26488540fb)" d="M 336.179835 293.397978 
L 336.179835 78.443904 
" style="fill:none;stroke:#ffd700;stroke-width:1.5;"/>
    <path clip-path="url(#p26488540fb)" d="M 352.576529 293.599753 
L 352.576529 78.248042 
" style="fill:none;stroke:#ffd700;stroke-width:1.5;"/>
    <path clip-path="url(#p26488540fb)" d="M 368.973223 293.876336 
L 368.973223 78.032844 
" style="fill:none;stroke:#ffd700;stroke-width:1.5;"/>
    <path clip-path="url(#p26488540fb)" d="M 385.369917 293.925009 
L 385.369917 77.931515 
" style="fill:none;stroke:#ffd700;stroke-width:1.5;"/>
   </g>
   <g id="LineCollection_3">
    <path clip-path="url(#p26488540fb)" d="M 73.832727 226.068813 
L 73.832727 226.068813 
" style="fill:none;stroke:#4b0082;stroke-width:1.5;"/>
    <path clip-path="url(#p26488540fb)" d="M 90.229421 264.182707 
L 90.229421 171.27771 
" style="fill:none;stroke:#4b0082;stroke-width:1.5;"/>
    <path clip-path="url(#p26488540fb)" d="M 106.626116 269.194416 
L 106.626116 133.272565 
" style="fill:none;stroke:#4b0082;stroke-width:1.5;"/>
    <path clip-path="url(#p26488540fb)" d="M 123.02281 262.594042 
L 123.02281 103.479466 
" style="fill:none;stroke:#4b0082;stroke-width:1.5;"/>
    <path clip-path="url(#p26488540fb)" d="M 139.419504 251.203616 
L 139.419504 82.848174 
" style="fill:none;stroke:#4b0082;stroke-width:1.5;"/>
    <path clip-path="url(#p26488540fb)" d="M 155.816198 237.818379 
L 155.816198 69.423956 
" style="fill:none;stroke:#4b0082;stroke-width:1.5;"/>
    <path clip-path="url(#p26488540fb)" d="M 172.212893 225.966259 
L 172.212893 61.440987 
" style="fill:none;stroke:#4b0082;stroke-width:1.5;"/>
    <path clip-path="url(#p26488540fb)" d="M 188.609587 216.894594 
L 188.609587 57.657843 
" style="fill:none;stroke:#4b0082;stroke-width:1.5;"/>
    <path clip-path="url(#p26488540fb)" d="M 205.006281 210.669047 
L 205.006281 55.431873 
" style="fill:none;stroke:#4b0082;stroke-width:1.5;"/>
    <path clip-path="url(#p26488540fb)" d="M 221.402975 203.346819 
L 221.402975 54.378048 
" style="fill:none;stroke:#4b0082;stroke-width:1.5;"/>
    <path clip-path="url(#p26488540fb)" d="M 237.799669 197.361852 
L 237.799669 54.130602 
" style="fill:none;stroke:#4b0082;stroke-width:1.5;"/>
    <path clip-path="url(#p26488540fb)" d="M 254.196364 190.984352 
L 254.196364 54.377338 
" style="fill:none;stroke:#4b0082;stroke-width:1.5;"/>
    <path clip-path="url(#p26488540fb)" d="M 270.593058 186.786105 
L 270.593058 54.862999 
" style="fill:none;stroke:#4b0082;stroke-width:1.5;"/>
    <path clip-path="url(#p26488540fb)" d="M 286.989752 184.855129 
L 286.989752 55.560671 
" style="fill:none;stroke:#4b0082;stroke-width:1.5;"/>
    <path clip-path="url(#p26488540fb)" d="M 303.386446 182.825741 
L 303.386446 55.892153 
" style="fill:none;stroke:#4b0082;stroke-width:1.5;"/>
    <path clip-path="url(#p26488540fb)" d="M 319.78314 181.25501 
L 319.78314 56.198887 
" style="fill:none;stroke:#4b0082;stroke-width:1.5;"/>
    <path clip-path="url(#p26488540fb)" d="M 336.179835 179.694916 
L 336.179835 56.565097 
" style="fill:none;stroke:#4b0082;stroke-width:1.5;"/>
    <path clip-path="url(#p26488540fb)" d="M 352.576529 177.964295 
L 352.576529 57.229107 
" style="fill:none;stroke:#4b0082;stroke-width:1.5;"/>
    <path clip-path="url(#p26488540fb)" d="M 368.973223 177.45211 
L 368.973223 57.34455 
" style="fill:none;stroke:#4b0082;stroke-width:1.5;"/>
    <path clip-path="url(#p26488540fb)" d="M 385.369917 176.440582 
L 385.369917 57.812354 
" style="fill:none;stroke:#4b0082;stroke-width:1.5;"/>
   </g>
   <g id="LineCollection_4">
    <path clip-path="url(#p26488540fb)" d="M 73.832727 226.068813 
L 73.832727 226.068813 
" style="fill:none;stroke:#ff0000;stroke-width:1.5;"/>
    <path clip-path="url(#p26488540fb)" d="M 90.229421 245.135016 
L 90.229421 205.549113 
" style="fill:none;stroke:#ff0000;stroke-width:1.5;"/>
    <path clip-path="url(#p26488540fb)" d="M 106.626116 251.744928 
L 106.626116 196.272391 
" style="fill:none;stroke:#ff0000;stroke-width:1.5;"/>
    <path clip-path="url(#p26488540fb)" d="M 123.02281 205.455448 
L 123.02281 69.786288 
" style="fill:none;stroke:#ff0000;stroke-width:1.5;"/>
    <path clip-path="url(#p26488540fb)" d="M 139.419504 147.924677 
L 139.419504 59.723509 
" style="fill:none;stroke:#ff0000;stroke-width:1.5;"/>
    <path clip-path="url(#p26488540fb)" d="M 155.816198 129.688733 
L 155.816198 63.989039 
" style="fill:none;stroke:#ff0000;stroke-width:1.5;"/>
    <path clip-path="url(#p26488540fb)" d="M 172.212893 123.591793 
L 172.212893 66.212332 
" style="fill:none;stroke:#ff0000;stroke-width:1.5;"/>
    <path clip-path="url(#p26488540fb)" d="M 188.609587 120.27601 
L 188.609587 67.771641 
" style="fill:none;stroke:#ff0000;stroke-width:1.5;"/>
    <path clip-path="url(#p26488540fb)" d="M 205.006281 118.410037 
L 205.006281 68.683633 
" style="fill:none;stroke:#ff0000;stroke-width:1.5;"/>
    <path clip-path="url(#p26488540fb)" d="M 221.402975 117.558997 
L 221.402975 69.135116 
" style="fill:none;stroke:#ff0000;stroke-width:1.5;"/>
    <path clip-path="url(#p26488540fb)" d="M 237.799669 116.055598 
L 237.799669 69.953158 
" style="fill:none;stroke:#ff0000;stroke-width:1.5;"/>
    <path clip-path="url(#p26488540fb)" d="M 254.196364 115.481877 
L 254.196364 70.257128 
" style="fill:none;stroke:#ff0000;stroke-width:1.5;"/>
    <path clip-path="url(#p26488540fb)" d="M 270.593058 114.878774 
L 270.593058 70.587103 
" style="fill:none;stroke:#ff0000;stroke-width:1.5;"/>
    <path clip-path="url(#p26488540fb)" d="M 286.989752 114.487186 
L 286.989752 70.844097 
" style="fill:none;stroke:#ff0000;stroke-width:1.5;"/>
    <path clip-path="url(#p26488540fb)" d="M 303.386446 114.511474 
L 303.386446 70.82544 
" style="fill:none;stroke:#ff0000;stroke-width:1.5;"/>
    <path clip-path="url(#p26488540fb)" d="M 319.78314 114.535922 
L 319.78314 70.806624 
" style="fill:none;stroke:#ff0000;stroke-width:1.5;"/>
    <path clip-path="url(#p26488540fb)" d="M 336.179835 113.673385 
L 336.179835 71.391809 
" style="fill:none;stroke:#ff0000;stroke-width:1.5;"/>
    <path clip-path="url(#p26488540fb)" d="M 352.576529 113.68523 
L 352.576529 71.382779 
" style="fill:none;stroke:#ff0000;stroke-width:1.5;"/>
    <path clip-path="url(#p26488540fb)" d="M 368.973223 113.329206 
L 368.973223 71.599704 
" style="fill:none;stroke:#ff0000;stroke-width:1.5;"/>
    <path clip-path="url(#p26488540fb)" d="M 385.369917 113.335296 
L 385.369917 71.595023 
" style="fill:none;stroke:#ff0000;stroke-width:1.5;"/>
   </g>
   <g id="LineCollection_5">
    <path clip-path="url(#p26488540fb)" d="M 73.832727 226.068813 
L 73.832727 226.068813 
" style="fill:none;stroke:#008000;stroke-width:1.5;"/>
    <path clip-path="url(#p26488540fb)" d="M 90.229421 260.44991 
L 90.229421 163.125448 
" style="fill:none;stroke:#008000;stroke-width:1.5;"/>
    <path clip-path="url(#p26488540fb)" d="M 106.626116 217.260871 
L 106.626116 68.509853 
" style="fill:none;stroke:#008000;stroke-width:1.5;"/>
    <path clip-path="url(#p26488540fb)" d="M 123.02281 189.92052 
L 123.02281 55.16438 
" style="fill:none;stroke:#008000;stroke-width:1.5;"/>
    <path clip-path="url(#p26488540fb)" d="M 139.419504 183.422422 
L 139.419504 53.568 
" style="fill:none;stroke:#008000;stroke-width:1.5;"/>
    <path clip-path="url(#p26488540fb)" d="M 155.816198 180.841452 
L 155.816198 53.585499 
" style="fill:none;stroke:#008000;stroke-width:1.5;"/>
    <path clip-path="url(#p26488540fb)" d="M 172.212893 180.41665 
L 172.212893 53.621161 
" style="fill:none;stroke:#008000;stroke-width:1.5;"/>
    <path clip-path="url(#p26488540fb)" d="M 188.609587 180.294289 
L 188.609587 53.631455 
" style="fill:none;stroke:#008000;stroke-width:1.5;"/>
    <path clip-path="url(#p26488540fb)" d="M 205.006281 180.294289 
L 205.006281 53.631455 
" style="fill:none;stroke:#008000;stroke-width:1.5;"/>
    <path clip-path="url(#p26488540fb)" d="M 221.402975 180.294289 
L 221.402975 53.631455 
" style="fill:none;stroke:#008000;stroke-width:1.5;"/>
    <path clip-path="url(#p26488540fb)" d="M 237.799669 180.294289 
L 237.799669 53.631455 
" style="fill:none;stroke:#008000;stroke-width:1.5;"/>
    <path clip-path="url(#p26488540fb)" d="M 254.196364 180.294289 
L 254.196364 53.631455 
" style="fill:none;stroke:#008000;stroke-width:1.5;"/>
    <path clip-path="url(#p26488540fb)" d="M 270.593058 180.294289 
L 270.593058 53.631455 
" style="fill:none;stroke:#008000;stroke-width:1.5;"/>
    <path clip-path="url(#p26488540fb)" d="M 286.989752 180.294289 
L 286.989752 53.631455 
" style="fill:none;stroke:#008000;stroke-width:1.5;"/>
    <path clip-path="url(#p26488540fb)" d="M 303.386446 180.294289 
L 303.386446 53.631455 
" style="fill:none;stroke:#008000;stroke-width:1.5;"/>
    <path clip-path="url(#p26488540fb)" d="M 319.78314 180.294289 
L 319.78314 53.631455 
" style="fill:none;stroke:#008000;stroke-width:1.5;"/>
    <path clip-path="url(#p26488540fb)" d="M 336.179835 180.294289 
L 336.179835 53.631455 
" style="fill:none;stroke:#008000;stroke-width:1.5;"/>
    <path clip-path="url(#p26488540fb)" d="M 352.576529 180.294289 
L 352.576529 53.631455 
" style="fill:none;stroke:#008000;stroke-width:1.5;"/>
    <path clip-path="url(#p26488540fb)" d="M 368.973223 180.294289 
L 368.973223 53.631455 
" style="fill:none;stroke:#008000;stroke-width:1.5;"/>
    <path clip-path="url(#p26488540fb)" d="M 385.369917 180.294289 
L 385.369917 53.631455 
" style="fill:none;stroke:#008000;stroke-width:1.5;"/>
   </g>
   <g id="LineCollection_6">
    <path clip-path="url(#p26488540fb)" d="M 73.832727 226.068813 
L 73.832727 226.068813 
" style="fill:none;stroke:#808000;stroke-width:1.5;"/>
    <path clip-path="url(#p26488540fb)" d="M 90.229421 255.670543 
L 90.229421 178.156731 
" style="fill:none;stroke:#808000;stroke-width:1.5;"/>
    <path clip-path="url(#p26488540fb)" d="M 106.626116 209.097161 
L 106.626116 69.756075 
" style="fill:none;stroke:#808000;stroke-width:1.5;"/>
    <path clip-path="url(#p26488540fb)" d="M 123.02281 158.557951 
L 123.02281 56.46782 
" style="fill:none;stroke:#808000;stroke-width:1.5;"/>
    <path clip-path="url(#p26488540fb)" d="M 139.419504 136.469369 
L 139.419504 59.482696 
" style="fill:none;stroke:#808000;stroke-width:1.5;"/>
    <path clip-path="url(#p26488540fb)" d="M 155.816198 122.166781 
L 155.816198 65.140042 
" style="fill:none;stroke:#808000;stroke-width:1.5;"/>
    <path clip-path="url(#p26488540fb)" d="M 172.212893 117.958607 
L 172.212893 67.402523 
" style="fill:none;stroke:#808000;stroke-width:1.5;"/>
    <path clip-path="url(#p26488540fb)" d="M 188.609587 116.745025 
L 188.609587 68.065623 
" style="fill:none;stroke:#808000;stroke-width:1.5;"/>
    <path clip-path="url(#p26488540fb)" d="M 205.006281 114.979992 
L 205.006281 69.131502 
" style="fill:none;stroke:#808000;stroke-width:1.5;"/>
    <path clip-path="url(#p26488540fb)" d="M 221.402975 114.510382 
L 221.402975 69.462858 
" style="fill:none;stroke:#808000;stroke-width:1.5;"/>
    <path clip-path="url(#p26488540fb)" d="M 237.799669 114.200132 
L 237.799669 69.632602 
" style="fill:none;stroke:#808000;stroke-width:1.5;"/>
    <path clip-path="url(#p26488540fb)" d="M 254.196364 114.200132 
L 254.196364 69.632602 
" style="fill:none;stroke:#808000;stroke-width:1.5;"/>
    <path clip-path="url(#p26488540fb)" d="M 270.593058 114.200132 
L 270.593058 69.632602 
" style="fill:none;stroke:#808000;stroke-width:1.5;"/>
    <path clip-path="url(#p26488540fb)" d="M 286.989752 114.200132 
L 286.989752 69.632602 
" style="fill:none;stroke:#808000;stroke-width:1.5;"/>
    <path clip-path="url(#p26488540fb)" d="M 303.386446 114.200132 
L 303.386446 69.632602 
" style="fill:none;stroke:#808000;stroke-width:1.5;"/>
    <path clip-path="url(#p26488540fb)" d="M 319.78314 114.200132 
L 319.78314 69.632602 
" style="fill:none;stroke:#808000;stroke-width:1.5;"/>
    <path clip-path="url(#p26488540fb)" d="M 336.179835 114.200132 
L 336.179835 69.632602 
" style="fill:none;stroke:#808000;stroke-width:1.5;"/>
    <path clip-path="url(#p26488540fb)" d="M 352.576529 114.200132 
L 352.576529 69.632602 
" style="fill:none;stroke:#808000;stroke-width:1.5;"/>
    <path clip-path="url(#p26488540fb)" d="M 368.973223 114.200132 
L 368.973223 69.632602 
" style="fill:none;stroke:#808000;stroke-width:1.5;"/>
    <path clip-path="url(#p26488540fb)" d="M 385.369917 114.200132 
L 385.369917 69.632602 
" style="fill:none;stroke:#808000;stroke-width:1.5;"/>
   </g>
   <g id="line2d_23">
    <path clip-path="url(#p26488540fb)" d="M 73.832727 226.068813 
L 77.112066 226.35039 
L 80.391405 215.636407 
L 83.670744 206.460253 
L 86.950083 199.2778 
L 90.229421 186.223072 
L 93.50876 172.437796 
L 96.788099 156.4282 
L 100.067438 141.357668 
L 103.346777 128.790913 
L 106.626116 117.465911 
L 109.905455 109.637799 
L 113.184793 103.553783 
L 116.464132 99.639722 
L 119.743471 96.421729 
L 123.02281 94.534742 
L 126.302149 92.503167 
L 129.581488 91.382636 
L 136.140165 90.544106 
L 142.698843 89.913657 
L 149.257521 89.844387 
L 155.816198 89.774697 
L 162.374876 89.704868 
L 168.933554 89.634609 
L 398.487273 89.634609 
" style="fill:none;stroke:#0000ff;stroke-linecap:square;stroke-width:2;"/>
   </g>
   <g id="line2d_24">
    <defs>
     <path d="M 6 0 
L -6 -0 
" id="mccf2ca2b90" style="stroke:#0000ff;"/>
    </defs>
    <g clip-path="url(#p26488540fb)">
     <use style="fill:#0000ff;stroke:#0000ff;" x="73.832727" xlink:href="#mccf2ca2b90" y="226.068813"/>
     <use style="fill:#0000ff;stroke:#0000ff;" x="90.229421" xlink:href="#mccf2ca2b90" y="251.350794"/>
     <use style="fill:#0000ff;stroke:#0000ff;" x="106.626116" xlink:href="#mccf2ca2b90" y="176.655148"/>
     <use style="fill:#0000ff;stroke:#0000ff;" x="123.02281" xlink:href="#mccf2ca2b90" y="126.739746"/>
     <use style="fill:#0000ff;stroke:#0000ff;" x="139.419504" xlink:href="#mccf2ca2b90" y="110.656525"/>
     <use style="fill:#0000ff;stroke:#0000ff;" x="155.816198" xlink:href="#mccf2ca2b90" y="108.053717"/>
     <use style="fill:#0000ff;stroke:#0000ff;" x="172.212893" xlink:href="#mccf2ca2b90" y="107.342493"/>
     <use style="fill:#0000ff;stroke:#0000ff;" x="188.609587" xlink:href="#mccf2ca2b90" y="107.342493"/>
     <use style="fill:#0000ff;stroke:#0000ff;" x="205.006281" xlink:href="#mccf2ca2b90" y="107.342493"/>
     <use style="fill:#0000ff;stroke:#0000ff;" x="221.402975" xlink:href="#mccf2ca2b90" y="107.342493"/>
     <use style="fill:#0000ff;stroke:#0000ff;" x="237.799669" xlink:href="#mccf2ca2b90" y="107.342493"/>
     <use style="fill:#0000ff;stroke:#0000ff;" x="254.196364" xlink:href="#mccf2ca2b90" y="107.342493"/>
     <use style="fill:#0000ff;stroke:#0000ff;" x="270.593058" xlink:href="#mccf2ca2b90" y="107.342493"/>
     <use style="fill:#0000ff;stroke:#0000ff;" x="286.989752" xlink:href="#mccf2ca2b90" y="107.342493"/>
     <use style="fill:#0000ff;stroke:#0000ff;" x="303.386446" xlink:href="#mccf2ca2b90" y="107.342493"/>
     <use style="fill:#0000ff;stroke:#0000ff;" x="319.78314" xlink:href="#mccf2ca2b90" y="107.342493"/>
     <use style="fill:#0000ff;stroke:#0000ff;" x="336.179835" xlink:href="#mccf2ca2b90" y="107.342493"/>
     <use style="fill:#0000ff;stroke:#0000ff;" x="352.576529" xlink:href="#mccf2ca2b90" y="107.342493"/>
     <use style="fill:#0000ff;stroke:#0000ff;" x="368.973223" xlink:href="#mccf2ca2b90" y="107.342493"/>
     <use style="fill:#0000ff;stroke:#0000ff;" x="385.369917" xlink:href="#mccf2ca2b90" y="107.342493"/>
    </g>
   </g>
   <g id="line2d_25">
    <g clip-path="url(#p26488540fb)">
     <use style="fill:#0000ff;stroke:#0000ff;" x="73.832727" xlink:href="#mccf2ca2b90" y="226.068813"/>
     <use style="fill:#0000ff;stroke:#0000ff;" x="90.229421" xlink:href="#mccf2ca2b90" y="121.095349"/>
     <use style="fill:#0000ff;stroke:#0000ff;" x="106.626116" xlink:href="#mccf2ca2b90" y="58.276674"/>
     <use style="fill:#0000ff;stroke:#0000ff;" x="123.02281" xlink:href="#mccf2ca2b90" y="62.329749"/>
     <use style="fill:#0000ff;stroke:#0000ff;" x="139.419504" xlink:href="#mccf2ca2b90" y="69.872185"/>
     <use style="fill:#0000ff;stroke:#0000ff;" x="155.816198" xlink:href="#mccf2ca2b90" y="71.495677"/>
     <use style="fill:#0000ff;stroke:#0000ff;" x="172.212893" xlink:href="#mccf2ca2b90" y="71.926736"/>
     <use style="fill:#0000ff;stroke:#0000ff;" x="188.609587" xlink:href="#mccf2ca2b90" y="71.926736"/>
     <use style="fill:#0000ff;stroke:#0000ff;" x="205.006281" xlink:href="#mccf2ca2b90" y="71.926736"/>
     <use style="fill:#0000ff;stroke:#0000ff;" x="221.402975" xlink:href="#mccf2ca2b90" y="71.926736"/>
     <use style="fill:#0000ff;stroke:#0000ff;" x="237.799669" xlink:href="#mccf2ca2b90" y="71.926736"/>
     <use style="fill:#0000ff;stroke:#0000ff;" x="254.196364" xlink:href="#mccf2ca2b90" y="71.926736"/>
     <use style="fill:#0000ff;stroke:#0000ff;" x="270.593058" xlink:href="#mccf2ca2b90" y="71.926736"/>
     <use style="fill:#0000ff;stroke:#0000ff;" x="286.989752" xlink:href="#mccf2ca2b90" y="71.926736"/>
     <use style="fill:#0000ff;stroke:#0000ff;" x="303.386446" xlink:href="#mccf2ca2b90" y="71.926736"/>
     <use style="fill:#0000ff;stroke:#0000ff;" x="319.78314" xlink:href="#mccf2ca2b90" y="71.926736"/>
     <use style="fill:#0000ff;stroke:#0000ff;" x="336.179835" xlink:href="#mccf2ca2b90" y="71.926736"/>
     <use style="fill:#0000ff;stroke:#0000ff;" x="352.576529" xlink:href="#mccf2ca2b90" y="71.926736"/>
     <use style="fill:#0000ff;stroke:#0000ff;" x="368.973223" xlink:href="#mccf2ca2b90" y="71.926736"/>
     <use style="fill:#0000ff;stroke:#0000ff;" x="385.369917" xlink:href="#mccf2ca2b90" y="71.926736"/>
    </g>
   </g>
   <g id="line2d_26">
    <path clip-path="url(#p26488540fb)" d="M 73.832727 226.068813 
L 77.112066 226.35039 
L 80.391405 223.337522 
L 83.670744 220.957356 
L 86.950083 218.841732 
L 90.229421 215.633028 
L 93.50876 211.190174 
L 96.788099 208.077909 
L 100.067438 205.776866 
L 103.346777 202.545496 
L 106.626116 199.665813 
L 113.184793 196.443029 
L 116.464132 194.681205 
L 119.743471 194.105102 
L 123.02281 193.310915 
L 126.302149 192.918396 
L 129.581488 192.084509 
L 132.860826 191.485736 
L 136.140165 191.445894 
L 139.419504 190.811361 
L 145.978182 189.9396 
L 149.257521 189.29479 
L 152.53686 189.125421 
L 155.816198 188.827514 
L 159.095537 188.401066 
L 162.374876 188.268162 
L 165.654215 187.739784 
L 172.212893 187.196904 
L 175.492231 187.31024 
L 182.050909 186.929266 
L 185.330248 187.039643 
L 188.609587 186.727517 
L 198.447603 186.390329 
L 221.402975 186.7102 
L 224.682314 186.688097 
L 227.961653 186.778482 
L 231.240992 186.742018 
L 234.520331 186.789744 
L 244.358347 186.663881 
L 247.637686 186.696263 
L 254.196364 186.464947 
L 257.475702 186.29952 
L 270.593058 186.466214 
L 293.54843 186.215751 
L 296.827769 186.076654 
L 303.386446 186.121706 
L 306.665785 185.996403 
L 329.621157 186.045821 
L 342.738512 185.89405 
L 398.487273 185.872793 
" style="fill:none;stroke:#ffd700;stroke-linecap:square;stroke-width:2;"/>
   </g>
   <g id="line2d_27">
    <defs>
     <path d="M 6 0 
L -6 -0 
" id="m94b1da0935" style="stroke:#ffd700;"/>
    </defs>
    <g clip-path="url(#p26488540fb)">
     <use style="fill:#ffd700;stroke:#ffd700;" x="73.832727" xlink:href="#m94b1da0935" y="226.068813"/>
     <use style="fill:#ffd700;stroke:#ffd700;" x="90.229421" xlink:href="#m94b1da0935" y="272.797092"/>
     <use style="fill:#ffd700;stroke:#ffd700;" x="106.626116" xlink:href="#m94b1da0935" y="282.159763"/>
     <use style="fill:#ffd700;stroke:#ffd700;" x="123.02281" xlink:href="#m94b1da0935" y="286.772867"/>
     <use style="fill:#ffd700;stroke:#ffd700;" x="139.419504" xlink:href="#m94b1da0935" y="290.248587"/>
     <use style="fill:#ffd700;stroke:#ffd700;" x="155.816198" xlink:href="#m94b1da0935" y="290.603898"/>
     <use style="fill:#ffd700;stroke:#ffd700;" x="172.212893" xlink:href="#m94b1da0935" y="290.795577"/>
     <use style="fill:#ffd700;stroke:#ffd700;" x="188.609587" xlink:href="#m94b1da0935" y="291.567644"/>
     <use style="fill:#ffd700;stroke:#ffd700;" x="205.006281" xlink:href="#m94b1da0935" y="292.183996"/>
     <use style="fill:#ffd700;stroke:#ffd700;" x="221.402975" xlink:href="#m94b1da0935" y="294.564566"/>
     <use style="fill:#ffd700;stroke:#ffd700;" x="237.799669" xlink:href="#m94b1da0935" y="295.488"/>
     <use style="fill:#ffd700;stroke:#ffd700;" x="254.196364" xlink:href="#m94b1da0935" y="294.878566"/>
     <use style="fill:#ffd700;stroke:#ffd700;" x="270.593058" xlink:href="#m94b1da0935" y="295.266719"/>
     <use style="fill:#ffd700;stroke:#ffd700;" x="286.989752" xlink:href="#m94b1da0935" y="295.094192"/>
     <use style="fill:#ffd700;stroke:#ffd700;" x="303.386446" xlink:href="#m94b1da0935" y="293.979891"/>
     <use style="fill:#ffd700;stroke:#ffd700;" x="319.78314" xlink:href="#m94b1da0935" y="293.636223"/>
     <use style="fill:#ffd700;stroke:#ffd700;" x="336.179835" xlink:href="#m94b1da0935" y="293.397976"/>
     <use style="fill:#ffd700;stroke:#ffd700;" x="352.576529" xlink:href="#m94b1da0935" y="293.599751"/>
     <use style="fill:#ffd700;stroke:#ffd700;" x="368.973223" xlink:href="#m94b1da0935" y="293.876334"/>
     <use style="fill:#ffd700;stroke:#ffd700;" x="385.369917" xlink:href="#m94b1da0935" y="293.925008"/>
    </g>
   </g>
   <g id="line2d_28">
    <g clip-path="url(#p26488540fb)">
     <use style="fill:#ffd700;stroke:#ffd700;" x="73.832727" xlink:href="#m94b1da0935" y="226.068813"/>
     <use style="fill:#ffd700;stroke:#ffd700;" x="90.229421" xlink:href="#m94b1da0935" y="158.468959"/>
     <use style="fill:#ffd700;stroke:#ffd700;" x="106.626116" xlink:href="#m94b1da0935" y="117.171868"/>
     <use style="fill:#ffd700;stroke:#ffd700;" x="123.02281" xlink:href="#m94b1da0935" y="99.848962"/>
     <use style="fill:#ffd700;stroke:#ffd700;" x="139.419504" xlink:href="#m94b1da0935" y="91.374139"/>
     <use style="fill:#ffd700;stroke:#ffd700;" x="155.816198" xlink:href="#m94b1da0935" y="87.051136"/>
     <use style="fill:#ffd700;stroke:#ffd700;" x="172.212893" xlink:href="#m94b1da0935" y="83.598231"/>
     <use style="fill:#ffd700;stroke:#ffd700;" x="188.609587" xlink:href="#m94b1da0935" y="81.88739"/>
     <use style="fill:#ffd700;stroke:#ffd700;" x="205.006281" xlink:href="#m94b1da0935" y="80.658608"/>
     <use style="fill:#ffd700;stroke:#ffd700;" x="221.402975" xlink:href="#m94b1da0935" y="78.855833"/>
     <use style="fill:#ffd700;stroke:#ffd700;" x="237.799669" xlink:href="#m94b1da0935" y="77.961406"/>
     <use style="fill:#ffd700;stroke:#ffd700;" x="254.196364" xlink:href="#m94b1da0935" y="78.051322"/>
     <use style="fill:#ffd700;stroke:#ffd700;" x="270.593058" xlink:href="#m94b1da0935" y="77.665709"/>
     <use style="fill:#ffd700;stroke:#ffd700;" x="286.989752" xlink:href="#m94b1da0935" y="77.638878"/>
     <use style="fill:#ffd700;stroke:#ffd700;" x="303.386446" xlink:href="#m94b1da0935" y="78.263516"/>
     <use style="fill:#ffd700;stroke:#ffd700;" x="319.78314" xlink:href="#m94b1da0935" y="78.365032"/>
     <use style="fill:#ffd700;stroke:#ffd700;" x="336.179835" xlink:href="#m94b1da0935" y="78.443905"/>
     <use style="fill:#ffd700;stroke:#ffd700;" x="352.576529" xlink:href="#m94b1da0935" y="78.248038"/>
     <use style="fill:#ffd700;stroke:#ffd700;" x="368.973223" xlink:href="#m94b1da0935" y="78.032847"/>
     <use style="fill:#ffd700;stroke:#ffd700;" x="385.369917" xlink:href="#m94b1da0935" y="77.931513"/>
    </g>
   </g>
   <g id="line2d_29">
    <path clip-path="url(#p26488540fb)" d="M 73.832727 226.068813 
L 77.112066 226.35039 
L 80.391405 223.71765 
L 83.670744 222.740157 
L 86.950083 220.528797 
L 90.229421 217.730209 
L 93.50876 214.668488 
L 96.788099 211.976898 
L 100.067438 208.122961 
L 103.346777 205.414196 
L 109.905455 197.085589 
L 116.464132 189.789802 
L 119.743471 185.798455 
L 123.02281 183.036754 
L 126.302149 179.621371 
L 129.581488 175.748008 
L 132.860826 172.908028 
L 139.419504 167.025894 
L 142.698843 163.5328 
L 145.978182 161.440123 
L 149.257521 158.11766 
L 152.53686 155.689066 
L 155.816198 153.621169 
L 162.374876 149.048506 
L 165.654215 147.233464 
L 168.933554 145.132903 
L 172.212893 143.703624 
L 175.492231 142.693465 
L 178.77157 141.821847 
L 182.050909 139.990898 
L 185.330248 138.831929 
L 188.609587 137.27622 
L 191.888926 136.167794 
L 201.726942 133.75862 
L 208.28562 132.27035 
L 211.564959 130.840931 
L 227.961653 127.6066 
L 231.240992 126.75835 
L 234.520331 126.063002 
L 237.799669 125.746231 
L 241.079008 125.175331 
L 244.358347 124.349745 
L 247.637686 123.916688 
L 250.917025 123.102509 
L 254.196364 122.680849 
L 257.475702 122.004642 
L 264.03438 121.268037 
L 267.313719 121.15202 
L 273.872397 120.566771 
L 280.431074 120.37375 
L 296.827769 119.739079 
L 300.107107 119.464822 
L 303.386446 119.358945 
L 306.665785 119.154237 
L 313.224463 119.180425 
L 316.503802 118.707797 
L 319.78314 118.726949 
L 323.062479 118.534916 
L 332.900496 118.266717 
L 336.179835 118.130002 
L 339.459174 117.852232 
L 342.738512 117.714679 
L 349.29719 117.664281 
L 355.855868 117.599371 
L 362.414545 117.534333 
L 365.693884 117.396082 
L 372.252562 117.330184 
L 385.369917 117.126465 
L 398.487273 117.076625 
" style="fill:none;stroke:#4b0082;stroke-linecap:square;stroke-width:2;"/>
   </g>
   <g id="line2d_30">
    <defs>
     <path d="M 6 0 
L -6 -0 
" id="mee6435aace" style="stroke:#4b0082;"/>
    </defs>
    <g clip-path="url(#p26488540fb)">
     <use style="fill:#4b0082;stroke:#4b0082;" x="73.832727" xlink:href="#mee6435aace" y="226.068813"/>
     <use style="fill:#4b0082;stroke:#4b0082;" x="90.229421" xlink:href="#mee6435aace" y="264.182708"/>
     <use style="fill:#4b0082;stroke:#4b0082;" x="106.626116" xlink:href="#mee6435aace" y="269.194416"/>
     <use style="fill:#4b0082;stroke:#4b0082;" x="123.02281" xlink:href="#mee6435aace" y="262.594041"/>
     <use style="fill:#4b0082;stroke:#4b0082;" x="139.419504" xlink:href="#mee6435aace" y="251.203617"/>
     <use style="fill:#4b0082;stroke:#4b0082;" x="155.816198" xlink:href="#mee6435aace" y="237.818379"/>
     <use style="fill:#4b0082;stroke:#4b0082;" x="172.212893" xlink:href="#mee6435aace" y="225.966259"/>
     <use style="fill:#4b0082;stroke:#4b0082;" x="188.609587" xlink:href="#mee6435aace" y="216.894594"/>
     <use style="fill:#4b0082;stroke:#4b0082;" x="205.006281" xlink:href="#mee6435aace" y="210.669048"/>
     <use style="fill:#4b0082;stroke:#4b0082;" x="221.402975" xlink:href="#mee6435aace" y="203.346818"/>
     <use style="fill:#4b0082;stroke:#4b0082;" x="237.799669" xlink:href="#mee6435aace" y="197.361852"/>
     <use style="fill:#4b0082;stroke:#4b0082;" x="254.196364" xlink:href="#mee6435aace" y="190.984352"/>
     <use style="fill:#4b0082;stroke:#4b0082;" x="270.593058" xlink:href="#mee6435aace" y="186.786106"/>
     <use style="fill:#4b0082;stroke:#4b0082;" x="286.989752" xlink:href="#mee6435aace" y="184.855128"/>
     <use style="fill:#4b0082;stroke:#4b0082;" x="303.386446" xlink:href="#mee6435aace" y="182.825742"/>
     <use style="fill:#4b0082;stroke:#4b0082;" x="319.78314" xlink:href="#mee6435aace" y="181.255011"/>
     <use style="fill:#4b0082;stroke:#4b0082;" x="336.179835" xlink:href="#mee6435aace" y="179.694916"/>
     <use style="fill:#4b0082;stroke:#4b0082;" x="352.576529" xlink:href="#mee6435aace" y="177.964296"/>
     <use style="fill:#4b0082;stroke:#4b0082;" x="368.973223" xlink:href="#mee6435aace" y="177.452109"/>
     <use style="fill:#4b0082;stroke:#4b0082;" x="385.369917" xlink:href="#mee6435aace" y="176.44058"/>
    </g>
   </g>
   <g id="line2d_31">
    <g clip-path="url(#p26488540fb)">
     <use style="fill:#4b0082;stroke:#4b0082;" x="73.832727" xlink:href="#mee6435aace" y="226.068813"/>
     <use style="fill:#4b0082;stroke:#4b0082;" x="90.229421" xlink:href="#mee6435aace" y="171.27771"/>
     <use style="fill:#4b0082;stroke:#4b0082;" x="106.626116" xlink:href="#mee6435aace" y="133.272566"/>
     <use style="fill:#4b0082;stroke:#4b0082;" x="123.02281" xlink:href="#mee6435aace" y="103.479464"/>
     <use style="fill:#4b0082;stroke:#4b0082;" x="139.419504" xlink:href="#mee6435aace" y="82.848177"/>
     <use style="fill:#4b0082;stroke:#4b0082;" x="155.816198" xlink:href="#mee6435aace" y="69.423962"/>
     <use style="fill:#4b0082;stroke:#4b0082;" x="172.212893" xlink:href="#mee6435aace" y="61.440982"/>
     <use style="fill:#4b0082;stroke:#4b0082;" x="188.609587" xlink:href="#mee6435aace" y="57.657847"/>
     <use style="fill:#4b0082;stroke:#4b0082;" x="205.006281" xlink:href="#mee6435aace" y="55.431876"/>
     <use style="fill:#4b0082;stroke:#4b0082;" x="221.402975" xlink:href="#mee6435aace" y="54.378048"/>
     <use style="fill:#4b0082;stroke:#4b0082;" x="237.799669" xlink:href="#mee6435aace" y="54.130601"/>
     <use style="fill:#4b0082;stroke:#4b0082;" x="254.196364" xlink:href="#mee6435aace" y="54.377339"/>
     <use style="fill:#4b0082;stroke:#4b0082;" x="270.593058" xlink:href="#mee6435aace" y="54.862996"/>
     <use style="fill:#4b0082;stroke:#4b0082;" x="286.989752" xlink:href="#mee6435aace" y="55.560675"/>
     <use style="fill:#4b0082;stroke:#4b0082;" x="303.386446" xlink:href="#mee6435aace" y="55.892151"/>
     <use style="fill:#4b0082;stroke:#4b0082;" x="319.78314" xlink:href="#mee6435aace" y="56.19889"/>
     <use style="fill:#4b0082;stroke:#4b0082;" x="336.179835" xlink:href="#mee6435aace" y="56.565093"/>
     <use style="fill:#4b0082;stroke:#4b0082;" x="352.576529" xlink:href="#mee6435aace" y="57.229108"/>
     <use style="fill:#4b0082;stroke:#4b0082;" x="368.973223" xlink:href="#mee6435aace" y="57.344545"/>
     <use style="fill:#4b0082;stroke:#4b0082;" x="385.369917" xlink:href="#mee6435aace" y="57.812349"/>
    </g>
   </g>
   <g id="line2d_32">
    <path clip-path="url(#p26488540fb)" d="M 73.832727 226.068813 
L 77.112066 226.35039 
L 80.391405 225.280399 
L 83.670744 225.217748 
L 90.229421 225.342064 
L 93.50876 225.276739 
L 96.788099 225.407813 
L 100.067438 225.341501 
L 103.346777 224.584624 
L 106.626116 224.008659 
L 109.905455 223.994158 
L 113.184793 190.823469 
L 116.464132 167.736737 
L 119.743471 148.052713 
L 123.02281 137.62087 
L 126.302149 126.745546 
L 132.860826 112.243228 
L 136.140165 106.793173 
L 139.419504 103.824098 
L 142.698843 101.397888 
L 149.257521 98.841741 
L 152.53686 97.883532 
L 155.816198 96.838888 
L 159.095537 96.0737 
L 162.374876 95.51815 
L 165.654215 95.102258 
L 185.330248 94.287381 
L 188.609587 94.023822 
L 195.168264 93.960191 
L 205.006281 93.546834 
L 214.844298 93.483621 
L 218.123636 93.345091 
L 231.240992 93.282437 
L 234.520331 93.213875 
L 237.799669 93.004377 
L 250.917025 92.938769 
L 260.755041 92.800937 
L 273.872397 92.733643 
L 280.431074 92.664512 
L 326.341818 92.602008 
L 332.900496 92.532319 
L 398.487273 92.465723 
" style="fill:none;stroke:#ff0000;stroke-linecap:square;stroke-width:2;"/>
   </g>
   <g id="line2d_33">
    <defs>
     <path d="M 6 0 
L -6 -0 
" id="m29cad4039a" style="stroke:#ff0000;"/>
    </defs>
    <g clip-path="url(#p26488540fb)">
     <use style="fill:#ff0000;stroke:#ff0000;" x="73.832727" xlink:href="#m29cad4039a" y="226.068813"/>
     <use style="fill:#ff0000;stroke:#ff0000;" x="90.229421" xlink:href="#m29cad4039a" y="245.135017"/>
     <use style="fill:#ff0000;stroke:#ff0000;" x="106.626116" xlink:href="#m29cad4039a" y="251.744926"/>
     <use style="fill:#ff0000;stroke:#ff0000;" x="123.02281" xlink:href="#m29cad4039a" y="205.455448"/>
     <use style="fill:#ff0000;stroke:#ff0000;" x="139.419504" xlink:href="#m29cad4039a" y="147.924677"/>
     <use style="fill:#ff0000;stroke:#ff0000;" x="155.816198" xlink:href="#m29cad4039a" y="129.688735"/>
     <use style="fill:#ff0000;stroke:#ff0000;" x="172.212893" xlink:href="#m29cad4039a" y="123.591797"/>
     <use style="fill:#ff0000;stroke:#ff0000;" x="188.609587" xlink:href="#m29cad4039a" y="120.276015"/>
     <use style="fill:#ff0000;stroke:#ff0000;" x="205.006281" xlink:href="#m29cad4039a" y="118.410038"/>
     <use style="fill:#ff0000;stroke:#ff0000;" x="221.402975" xlink:href="#m29cad4039a" y="117.558995"/>
     <use style="fill:#ff0000;stroke:#ff0000;" x="237.799669" xlink:href="#m29cad4039a" y="116.055601"/>
     <use style="fill:#ff0000;stroke:#ff0000;" x="254.196364" xlink:href="#m29cad4039a" y="115.481877"/>
     <use style="fill:#ff0000;stroke:#ff0000;" x="270.593058" xlink:href="#m29cad4039a" y="114.878775"/>
     <use style="fill:#ff0000;stroke:#ff0000;" x="286.989752" xlink:href="#m29cad4039a" y="114.48719"/>
     <use style="fill:#ff0000;stroke:#ff0000;" x="303.386446" xlink:href="#m29cad4039a" y="114.511476"/>
     <use style="fill:#ff0000;stroke:#ff0000;" x="319.78314" xlink:href="#m29cad4039a" y="114.535924"/>
     <use style="fill:#ff0000;stroke:#ff0000;" x="336.179835" xlink:href="#m29cad4039a" y="113.673387"/>
     <use style="fill:#ff0000;stroke:#ff0000;" x="352.576529" xlink:href="#m29cad4039a" y="113.685235"/>
     <use style="fill:#ff0000;stroke:#ff0000;" x="368.973223" xlink:href="#m29cad4039a" y="113.329204"/>
     <use style="fill:#ff0000;stroke:#ff0000;" x="385.369917" xlink:href="#m29cad4039a" y="113.335295"/>
    </g>
   </g>
   <g id="line2d_34">
    <g clip-path="url(#p26488540fb)">
     <use style="fill:#ff0000;stroke:#ff0000;" x="73.832727" xlink:href="#m29cad4039a" y="226.068813"/>
     <use style="fill:#ff0000;stroke:#ff0000;" x="90.229421" xlink:href="#m29cad4039a" y="205.549113"/>
     <use style="fill:#ff0000;stroke:#ff0000;" x="106.626116" xlink:href="#m29cad4039a" y="196.27239"/>
     <use style="fill:#ff0000;stroke:#ff0000;" x="123.02281" xlink:href="#m29cad4039a" y="69.786287"/>
     <use style="fill:#ff0000;stroke:#ff0000;" x="139.419504" xlink:href="#m29cad4039a" y="59.723515"/>
     <use style="fill:#ff0000;stroke:#ff0000;" x="155.816198" xlink:href="#m29cad4039a" y="63.989042"/>
     <use style="fill:#ff0000;stroke:#ff0000;" x="172.212893" xlink:href="#m29cad4039a" y="66.212327"/>
     <use style="fill:#ff0000;stroke:#ff0000;" x="188.609587" xlink:href="#m29cad4039a" y="67.77164"/>
     <use style="fill:#ff0000;stroke:#ff0000;" x="205.006281" xlink:href="#m29cad4039a" y="68.683629"/>
     <use style="fill:#ff0000;stroke:#ff0000;" x="221.402975" xlink:href="#m29cad4039a" y="69.135118"/>
     <use style="fill:#ff0000;stroke:#ff0000;" x="237.799669" xlink:href="#m29cad4039a" y="69.953153"/>
     <use style="fill:#ff0000;stroke:#ff0000;" x="254.196364" xlink:href="#m29cad4039a" y="70.257131"/>
     <use style="fill:#ff0000;stroke:#ff0000;" x="270.593058" xlink:href="#m29cad4039a" y="70.587104"/>
     <use style="fill:#ff0000;stroke:#ff0000;" x="286.989752" xlink:href="#m29cad4039a" y="70.8441"/>
     <use style="fill:#ff0000;stroke:#ff0000;" x="303.386446" xlink:href="#m29cad4039a" y="70.825442"/>
     <use style="fill:#ff0000;stroke:#ff0000;" x="319.78314" xlink:href="#m29cad4039a" y="70.806623"/>
     <use style="fill:#ff0000;stroke:#ff0000;" x="336.179835" xlink:href="#m29cad4039a" y="71.391809"/>
     <use style="fill:#ff0000;stroke:#ff0000;" x="352.576529" xlink:href="#m29cad4039a" y="71.382775"/>
     <use style="fill:#ff0000;stroke:#ff0000;" x="368.973223" xlink:href="#m29cad4039a" y="71.599706"/>
     <use style="fill:#ff0000;stroke:#ff0000;" x="385.369917" xlink:href="#m29cad4039a" y="71.595023"/>
    </g>
   </g>
   <g id="line2d_35">
    <path clip-path="url(#p26488540fb)" d="M 73.832727 226.068813 
L 77.112066 226.35039 
L 80.391405 225.970262 
L 83.670744 225.908878 
L 86.950083 222.396493 
L 90.229421 211.787679 
L 93.50876 198.30059 
L 100.067438 165.343475 
L 103.346777 151.827524 
L 106.626116 142.885364 
L 109.905455 134.937025 
L 113.184793 129.660141 
L 116.464132 126.313886 
L 119.743471 124.296672 
L 123.02281 122.542448 
L 126.302149 120.882693 
L 132.860826 119.382876 
L 136.140165 118.855211 
L 139.419504 118.495216 
L 142.698843 117.824068 
L 145.978182 117.475202 
L 149.257521 117.421281 
L 152.53686 117.254447 
L 182.050909 116.962875 
L 398.487273 116.962875 
" style="fill:none;stroke:#008000;stroke-linecap:square;stroke-width:2;"/>
   </g>
   <g id="line2d_36">
    <defs>
     <path d="M 6 0 
L -6 -0 
" id="m8e94904eba" style="stroke:#008000;"/>
    </defs>
    <g clip-path="url(#p26488540fb)">
     <use style="fill:#008000;stroke:#008000;" x="73.832727" xlink:href="#m8e94904eba" y="226.068813"/>
     <use style="fill:#008000;stroke:#008000;" x="90.229421" xlink:href="#m8e94904eba" y="260.449908"/>
     <use style="fill:#008000;stroke:#008000;" x="106.626116" xlink:href="#m8e94904eba" y="217.260871"/>
     <use style="fill:#008000;stroke:#008000;" x="123.02281" xlink:href="#m8e94904eba" y="189.920521"/>
     <use style="fill:#008000;stroke:#008000;" x="139.419504" xlink:href="#m8e94904eba" y="183.422423"/>
     <use style="fill:#008000;stroke:#008000;" x="155.816198" xlink:href="#m8e94904eba" y="180.841452"/>
     <use style="fill:#008000;stroke:#008000;" x="172.212893" xlink:href="#m8e94904eba" y="180.41665"/>
     <use style="fill:#008000;stroke:#008000;" x="188.609587" xlink:href="#m8e94904eba" y="180.294291"/>
     <use style="fill:#008000;stroke:#008000;" x="205.006281" xlink:href="#m8e94904eba" y="180.294291"/>
     <use style="fill:#008000;stroke:#008000;" x="221.402975" xlink:href="#m8e94904eba" y="180.294291"/>
     <use style="fill:#008000;stroke:#008000;" x="237.799669" xlink:href="#m8e94904eba" y="180.294291"/>
     <use style="fill:#008000;stroke:#008000;" x="254.196364" xlink:href="#m8e94904eba" y="180.294291"/>
     <use style="fill:#008000;stroke:#008000;" x="270.593058" xlink:href="#m8e94904eba" y="180.294291"/>
     <use style="fill:#008000;stroke:#008000;" x="286.989752" xlink:href="#m8e94904eba" y="180.294291"/>
     <use style="fill:#008000;stroke:#008000;" x="303.386446" xlink:href="#m8e94904eba" y="180.294291"/>
     <use style="fill:#008000;stroke:#008000;" x="319.78314" xlink:href="#m8e94904eba" y="180.294291"/>
     <use style="fill:#008000;stroke:#008000;" x="336.179835" xlink:href="#m8e94904eba" y="180.294291"/>
     <use style="fill:#008000;stroke:#008000;" x="352.576529" xlink:href="#m8e94904eba" y="180.294291"/>
     <use style="fill:#008000;stroke:#008000;" x="368.973223" xlink:href="#m8e94904eba" y="180.294291"/>
     <use style="fill:#008000;stroke:#008000;" x="385.369917" xlink:href="#m8e94904eba" y="180.294291"/>
    </g>
   </g>
   <g id="line2d_37">
    <g clip-path="url(#p26488540fb)">
     <use style="fill:#008000;stroke:#008000;" x="73.832727" xlink:href="#m8e94904eba" y="226.068813"/>
     <use style="fill:#008000;stroke:#008000;" x="90.229421" xlink:href="#m8e94904eba" y="163.125448"/>
     <use style="fill:#008000;stroke:#008000;" x="106.626116" xlink:href="#m8e94904eba" y="68.509857"/>
     <use style="fill:#008000;stroke:#008000;" x="123.02281" xlink:href="#m8e94904eba" y="55.164375"/>
     <use style="fill:#008000;stroke:#008000;" x="139.419504" xlink:href="#m8e94904eba" y="53.568004"/>
     <use style="fill:#008000;stroke:#008000;" x="155.816198" xlink:href="#m8e94904eba" y="53.585502"/>
     <use style="fill:#008000;stroke:#008000;" x="172.212893" xlink:href="#m8e94904eba" y="53.621163"/>
     <use style="fill:#008000;stroke:#008000;" x="188.609587" xlink:href="#m8e94904eba" y="53.631453"/>
     <use style="fill:#008000;stroke:#008000;" x="205.006281" xlink:href="#m8e94904eba" y="53.631453"/>
     <use style="fill:#008000;stroke:#008000;" x="221.402975" xlink:href="#m8e94904eba" y="53.631453"/>
     <use style="fill:#008000;stroke:#008000;" x="237.799669" xlink:href="#m8e94904eba" y="53.631453"/>
     <use style="fill:#008000;stroke:#008000;" x="254.196364" xlink:href="#m8e94904eba" y="53.631453"/>
     <use style="fill:#008000;stroke:#008000;" x="270.593058" xlink:href="#m8e94904eba" y="53.631453"/>
     <use style="fill:#008000;stroke:#008000;" x="286.989752" xlink:href="#m8e94904eba" y="53.631453"/>
     <use style="fill:#008000;stroke:#008000;" x="303.386446" xlink:href="#m8e94904eba" y="53.631453"/>
     <use style="fill:#008000;stroke:#008000;" x="319.78314" xlink:href="#m8e94904eba" y="53.631453"/>
     <use style="fill:#008000;stroke:#008000;" x="336.179835" xlink:href="#m8e94904eba" y="53.631453"/>
     <use style="fill:#008000;stroke:#008000;" x="352.576529" xlink:href="#m8e94904eba" y="53.631453"/>
     <use style="fill:#008000;stroke:#008000;" x="368.973223" xlink:href="#m8e94904eba" y="53.631453"/>
     <use style="fill:#008000;stroke:#008000;" x="385.369917" xlink:href="#m8e94904eba" y="53.631453"/>
    </g>
   </g>
   <g id="line2d_38">
    <path clip-path="url(#p26488540fb)" d="M 73.832727 226.068813 
L 77.112066 226.35039 
L 80.391405 225.477503 
L 83.670744 225.41626 
L 86.950083 225.691501 
L 90.229421 216.913637 
L 93.50876 202.288981 
L 100.067438 165.550154 
L 103.346777 151.974508 
L 106.626116 139.42662 
L 109.905455 129.344917 
L 113.184793 122.649592 
L 119.743471 111.232655 
L 123.02281 107.512882 
L 126.302149 104.334589 
L 129.581488 101.980474 
L 132.860826 99.762355 
L 136.140165 98.79275 
L 139.419504 97.976036 
L 145.978182 95.956985 
L 149.257521 95.050034 
L 155.816198 93.653409 
L 159.095537 93.304961 
L 165.654215 92.95834 
L 168.933554 92.749271 
L 191.888926 92.195128 
L 195.168264 92.054901 
L 221.402975 91.986618 
L 227.961653 91.91637 
L 398.487273 91.91637 
" style="fill:none;stroke:#808000;stroke-linecap:square;stroke-width:2;"/>
   </g>
   <g id="line2d_39">
    <defs>
     <path d="M 6 0 
L -6 -0 
" id="mb37529d083" style="stroke:#808000;"/>
    </defs>
    <g clip-path="url(#p26488540fb)">
     <use style="fill:#808000;stroke:#808000;" x="73.832727" xlink:href="#mb37529d083" y="226.068813"/>
     <use style="fill:#808000;stroke:#808000;" x="90.229421" xlink:href="#mb37529d083" y="255.670543"/>
     <use style="fill:#808000;stroke:#808000;" x="106.626116" xlink:href="#mb37529d083" y="209.097161"/>
     <use style="fill:#808000;stroke:#808000;" x="123.02281" xlink:href="#mb37529d083" y="158.557951"/>
     <use style="fill:#808000;stroke:#808000;" x="139.419504" xlink:href="#mb37529d083" y="136.469366"/>
     <use style="fill:#808000;stroke:#808000;" x="155.816198" xlink:href="#mb37529d083" y="122.166782"/>
     <use style="fill:#808000;stroke:#808000;" x="172.212893" xlink:href="#mb37529d083" y="117.958603"/>
     <use style="fill:#808000;stroke:#808000;" x="188.609587" xlink:href="#mb37529d083" y="116.74502"/>
     <use style="fill:#808000;stroke:#808000;" x="205.006281" xlink:href="#mb37529d083" y="114.97999"/>
     <use style="fill:#808000;stroke:#808000;" x="221.402975" xlink:href="#mb37529d083" y="114.510381"/>
     <use style="fill:#808000;stroke:#808000;" x="237.799669" xlink:href="#mb37529d083" y="114.200129"/>
     <use style="fill:#808000;stroke:#808000;" x="254.196364" xlink:href="#mb37529d083" y="114.200129"/>
     <use style="fill:#808000;stroke:#808000;" x="270.593058" xlink:href="#mb37529d083" y="114.200129"/>
     <use style="fill:#808000;stroke:#808000;" x="286.989752" xlink:href="#mb37529d083" y="114.200129"/>
     <use style="fill:#808000;stroke:#808000;" x="303.386446" xlink:href="#mb37529d083" y="114.200129"/>
     <use style="fill:#808000;stroke:#808000;" x="319.78314" xlink:href="#mb37529d083" y="114.200129"/>
     <use style="fill:#808000;stroke:#808000;" x="336.179835" xlink:href="#mb37529d083" y="114.200129"/>
     <use style="fill:#808000;stroke:#808000;" x="352.576529" xlink:href="#mb37529d083" y="114.200129"/>
     <use style="fill:#808000;stroke:#808000;" x="368.973223" xlink:href="#mb37529d083" y="114.200129"/>
     <use style="fill:#808000;stroke:#808000;" x="385.369917" xlink:href="#mb37529d083" y="114.200129"/>
    </g>
   </g>
   <g id="line2d_40">
    <g clip-path="url(#p26488540fb)">
     <use style="fill:#808000;stroke:#808000;" x="73.832727" xlink:href="#mb37529d083" y="226.068813"/>
     <use style="fill:#808000;stroke:#808000;" x="90.229421" xlink:href="#mb37529d083" y="178.156732"/>
     <use style="fill:#808000;stroke:#808000;" x="106.626116" xlink:href="#mb37529d083" y="69.756072"/>
     <use style="fill:#808000;stroke:#808000;" x="123.02281" xlink:href="#mb37529d083" y="56.467819"/>
     <use style="fill:#808000;stroke:#808000;" x="139.419504" xlink:href="#mb37529d083" y="59.482695"/>
     <use style="fill:#808000;stroke:#808000;" x="155.816198" xlink:href="#mb37529d083" y="65.140046"/>
     <use style="fill:#808000;stroke:#808000;" x="172.212893" xlink:href="#mb37529d083" y="67.402526"/>
     <use style="fill:#808000;stroke:#808000;" x="188.609587" xlink:href="#mb37529d083" y="68.065618"/>
     <use style="fill:#808000;stroke:#808000;" x="205.006281" xlink:href="#mb37529d083" y="69.131498"/>
     <use style="fill:#808000;stroke:#808000;" x="221.402975" xlink:href="#mb37529d083" y="69.462856"/>
     <use style="fill:#808000;stroke:#808000;" x="237.799669" xlink:href="#mb37529d083" y="69.6326"/>
     <use style="fill:#808000;stroke:#808000;" x="254.196364" xlink:href="#mb37529d083" y="69.6326"/>
     <use style="fill:#808000;stroke:#808000;" x="270.593058" xlink:href="#mb37529d083" y="69.6326"/>
     <use style="fill:#808000;stroke:#808000;" x="286.989752" xlink:href="#mb37529d083" y="69.6326"/>
     <use style="fill:#808000;stroke:#808000;" x="303.386446" xlink:href="#mb37529d083" y="69.6326"/>
     <use style="fill:#808000;stroke:#808000;" x="319.78314" xlink:href="#mb37529d083" y="69.6326"/>
     <use style="fill:#808000;stroke:#808000;" x="336.179835" xlink:href="#mb37529d083" y="69.6326"/>
     <use style="fill:#808000;stroke:#808000;" x="352.576529" xlink:href="#mb37529d083" y="69.6326"/>
     <use style="fill:#808000;stroke:#808000;" x="368.973223" xlink:href="#mb37529d083" y="69.6326"/>
     <use style="fill:#808000;stroke:#808000;" x="385.369917" xlink:href="#mb37529d083" y="69.6326"/>
    </g>
   </g>
   <g id="patch_3">
    <path d="M 57.6 307.584 
L 57.6 41.472 
" style="fill:none;stroke:#000000;stroke-linecap:square;stroke-linejoin:miter;stroke-width:0.8;"/>
   </g>
   <g id="patch_4">
    <path d="M 414.72 307.584 
L 414.72 41.472 
" style="fill:none;stroke:#000000;stroke-linecap:square;stroke-linejoin:miter;stroke-width:0.8;"/>
   </g>
   <g id="patch_5">
    <path d="M 57.6 307.584 
L 414.72 307.584 
" style="fill:none;stroke:#000000;stroke-linecap:square;stroke-linejoin:miter;stroke-width:0.8;"/>
   </g>
   <g id="patch_6">
    <path d="M 57.6 41.472 
L 414.72 41.472 
" style="fill:none;stroke:#000000;stroke-linecap:square;stroke-linejoin:miter;stroke-width:0.8;"/>
   </g>
   <g id="legend_1">
    <g id="patch_7">
     <path d="M 64.6 36.472 
L 568.5 36.472 
Q 570.5 36.472 570.5 34.472 
L 570.5 5.272 
Q 570.5 3.272 568.5 3.272 
L 64.6 3.272 
Q 62.6 3.272 62.6 5.272 
L 62.6 34.472 
Q 62.6 36.472 64.6 36.472 
z
" style="fill:#ffffff;opacity:0.8;stroke:#cccccc;stroke-linejoin:miter;"/>
    </g>
    <g id="line2d_41">
     <path d="M 66.6 11.472 
L 86.6 11.472 
" style="fill:none;stroke:#0000ff;stroke-linecap:square;stroke-width:2;"/>
    </g>
    <g id="line2d_42"/>
    <g id="text_14">
     <!-- $\mathrm{Opt. \ policy \  on \ MDP, \ N=5}$ -->
     <g transform="translate(94.6 14.972)scale(0.1 -0.1)">
      <defs>
       <path d="M 39.40625 66.21875 
Q 28.65625 66.21875 22.328125 58.203125 
Q 16.015625 50.203125 16.015625 36.375 
Q 16.015625 22.609375 22.328125 14.59375 
Q 28.65625 6.59375 39.40625 6.59375 
Q 50.140625 6.59375 56.421875 14.59375 
Q 62.703125 22.609375 62.703125 36.375 
Q 62.703125 50.203125 56.421875 58.203125 
Q 50.140625 66.21875 39.40625 66.21875 
z
M 39.40625 74.21875 
Q 54.734375 74.21875 63.90625 63.9375 
Q 73.09375 53.65625 73.09375 36.375 
Q 73.09375 19.140625 63.90625 8.859375 
Q 54.734375 -1.421875 39.40625 -1.421875 
Q 24.03125 -1.421875 14.8125 8.828125 
Q 5.609375 19.09375 5.609375 36.375 
Q 5.609375 53.65625 14.8125 63.9375 
Q 24.03125 74.21875 39.40625 74.21875 
z
" id="DejaVuSans-79"/>
       <path d="M 10.6875 12.40625 
L 21 12.40625 
L 21 0 
L 10.6875 0 
z
" id="DejaVuSans-46"/>
       <path d="M 30.609375 48.390625 
Q 23.390625 48.390625 19.1875 42.75 
Q 14.984375 37.109375 14.984375 27.296875 
Q 14.984375 17.484375 19.15625 11.84375 
Q 23.34375 6.203125 30.609375 6.203125 
Q 37.796875 6.203125 41.984375 11.859375 
Q 46.1875 17.53125 46.1875 27.296875 
Q 46.1875 37.015625 41.984375 42.703125 
Q 37.796875 48.390625 30.609375 48.390625 
z
M 30.609375 56 
Q 42.328125 56 49.015625 48.375 
Q 55.71875 40.765625 55.71875 27.296875 
Q 55.71875 13.875 49.015625 6.21875 
Q 42.328125 -1.421875 30.609375 -1.421875 
Q 18.84375 -1.421875 12.171875 6.21875 
Q 5.515625 13.875 5.515625 27.296875 
Q 5.515625 40.765625 12.171875 48.375 
Q 18.84375 56 30.609375 56 
z
" id="DejaVuSans-111"/>
       <path d="M 32.171875 -5.078125 
Q 28.375 -14.84375 24.75 -17.8125 
Q 21.140625 -20.796875 15.09375 -20.796875 
L 7.90625 -20.796875 
L 7.90625 -13.28125 
L 13.1875 -13.28125 
Q 16.890625 -13.28125 18.9375 -11.515625 
Q 21 -9.765625 23.484375 -3.21875 
L 25.09375 0.875 
L 2.984375 54.6875 
L 12.5 54.6875 
L 29.59375 11.921875 
L 46.6875 54.6875 
L 56.203125 54.6875 
z
" id="DejaVuSans-121"/>
       <path d="M 19.671875 64.796875 
L 19.671875 8.109375 
L 31.59375 8.109375 
Q 46.6875 8.109375 53.6875 14.9375 
Q 60.6875 21.78125 60.6875 36.53125 
Q 60.6875 51.171875 53.6875 57.984375 
Q 46.6875 64.796875 31.59375 64.796875 
z
M 9.8125 72.90625 
L 30.078125 72.90625 
Q 51.265625 72.90625 61.171875 64.09375 
Q 71.09375 55.28125 71.09375 36.53125 
Q 71.09375 17.671875 61.125 8.828125 
Q 51.171875 0 30.078125 0 
L 9.8125 0 
z
" id="DejaVuSans-68"/>
       <path d="M 19.671875 64.796875 
L 19.671875 37.40625 
L 32.078125 37.40625 
Q 38.96875 37.40625 42.71875 40.96875 
Q 46.484375 44.53125 46.484375 51.125 
Q 46.484375 57.671875 42.71875 61.234375 
Q 38.96875 64.796875 32.078125 64.796875 
z
M 9.8125 72.90625 
L 32.078125 72.90625 
Q 44.34375 72.90625 50.609375 67.359375 
Q 56.890625 61.8125 56.890625 51.125 
Q 56.890625 40.328125 50.609375 34.8125 
Q 44.34375 29.296875 32.078125 29.296875 
L 19.671875 29.296875 
L 19.671875 0 
L 9.8125 0 
z
" id="DejaVuSans-80"/>
       <path d="M 11.71875 12.40625 
L 22.015625 12.40625 
L 22.015625 4 
L 14.015625 -11.625 
L 7.71875 -11.625 
L 11.71875 4 
z
" id="DejaVuSans-44"/>
       <path d="M 9.8125 72.90625 
L 23.09375 72.90625 
L 55.421875 11.921875 
L 55.421875 72.90625 
L 64.984375 72.90625 
L 64.984375 0 
L 51.703125 0 
L 19.390625 60.984375 
L 19.390625 0 
L 9.8125 0 
z
" id="DejaVuSans-78"/>
       <path d="M 10.59375 45.40625 
L 73.1875 45.40625 
L 73.1875 37.203125 
L 10.59375 37.203125 
z
M 10.59375 25.484375 
L 73.1875 25.484375 
L 73.1875 17.1875 
L 10.59375 17.1875 
z
" id="DejaVuSans-61"/>
       <path d="M 10.796875 72.90625 
L 49.515625 72.90625 
L 49.515625 64.59375 
L 19.828125 64.59375 
L 19.828125 46.734375 
Q 21.96875 47.46875 24.109375 47.828125 
Q 26.265625 48.1875 28.421875 48.1875 
Q 40.625 48.1875 47.75 41.5 
Q 54.890625 34.8125 54.890625 23.390625 
Q 54.890625 11.625 47.5625 5.09375 
Q 40.234375 -1.421875 26.90625 -1.421875 
Q 22.3125 -1.421875 17.546875 -0.640625 
Q 12.796875 0.140625 7.71875 1.703125 
L 7.71875 11.625 
Q 12.109375 9.234375 16.796875 8.0625 
Q 21.484375 6.890625 26.703125 6.890625 
Q 35.15625 6.890625 40.078125 11.328125 
Q 45.015625 15.765625 45.015625 23.390625 
Q 45.015625 31 40.078125 35.4375 
Q 35.15625 39.890625 26.703125 39.890625 
Q 22.75 39.890625 18.8125 39.015625 
Q 14.890625 38.140625 10.796875 36.28125 
z
" id="DejaVuSans-53"/>
      </defs>
      <use transform="translate(0 0.015625)" xlink:href="#DejaVuSans-79"/>
      <use transform="translate(78.710938 0.015625)" xlink:href="#DejaVuSans-112"/>
      <use transform="translate(142.1875 0.015625)" xlink:href="#DejaVuSans-116"/>
      <use transform="translate(181.396484 0.015625)" xlink:href="#DejaVuSans-46"/>
      <use transform="translate(265.136394 0.015625)" xlink:href="#DejaVuSans-112"/>
      <use transform="translate(328.612957 0.015625)" xlink:href="#DejaVuSans-111"/>
      <use transform="translate(389.794597 0.015625)" xlink:href="#DejaVuSans-108"/>
      <use transform="translate(417.5778 0.015625)" xlink:href="#DejaVuSans-105"/>
      <use transform="translate(445.361003 0.015625)" xlink:href="#DejaVuSans-99"/>
      <use transform="translate(500.341472 0.015625)" xlink:href="#DejaVuSans-121"/>
      <use transform="translate(591.991538 0.015625)" xlink:href="#DejaVuSans-111"/>
      <use transform="translate(653.173179 0.015625)" xlink:href="#DejaVuSans-110"/>
      <use transform="translate(749.022463 0.015625)" xlink:href="#DejaVuSans-77"/>
      <use transform="translate(835.30176 0.015625)" xlink:href="#DejaVuSans-68"/>
      <use transform="translate(912.303713 0.015625)" xlink:href="#DejaVuSans-80"/>
      <use transform="translate(972.606448 0.015625)" xlink:href="#DejaVuSans-44"/>
      <use transform="translate(1056.346357 0.015625)" xlink:href="#DejaVuSans-78"/>
      <use transform="translate(1150.633467 0.015625)" xlink:href="#DejaVuSans-61"/>
      <use transform="translate(1253.904951 0.015625)" xlink:href="#DejaVuSans-53"/>
     </g>
    </g>
    <g id="line2d_43">
     <path d="M 66.6 26.272 
L 86.6 26.272 
" style="fill:none;stroke:#ffd700;stroke-linecap:square;stroke-width:2;"/>
    </g>
    <g id="line2d_44"/>
    <g id="text_15">
     <!-- $\mathrm{Learned \ policy, \ |n|=1}$ -->
     <g transform="translate(94.6 29.772)scale(0.1 -0.1)">
      <defs>
       <path d="M 9.8125 72.90625 
L 19.671875 72.90625 
L 19.671875 8.296875 
L 55.171875 8.296875 
L 55.171875 0 
L 9.8125 0 
z
" id="DejaVuSans-76"/>
       <path d="M 21 76.421875 
L 21 -23.578125 
L 12.703125 -23.578125 
L 12.703125 76.421875 
z
" id="DejaVuSans-124"/>
      </defs>
      <use transform="translate(0 0.578125)" xlink:href="#DejaVuSans-76"/>
      <use transform="translate(55.712891 0.578125)" xlink:href="#DejaVuSans-101"/>
      <use transform="translate(117.236328 0.578125)" xlink:href="#DejaVuSans-97"/>
      <use transform="translate(178.515625 0.578125)" xlink:href="#DejaVuSans-114"/>
      <use transform="translate(219.628906 0.578125)" xlink:href="#DejaVuSans-110"/>
      <use transform="translate(283.007812 0.578125)" xlink:href="#DejaVuSans-101"/>
      <use transform="translate(344.53125 0.578125)" xlink:href="#DejaVuSans-100"/>
      <use transform="translate(440.478191 0.578125)" xlink:href="#DejaVuSans-112"/>
      <use transform="translate(503.954753 0.578125)" xlink:href="#DejaVuSans-111"/>
      <use transform="translate(565.136394 0.578125)" xlink:href="#DejaVuSans-108"/>
      <use transform="translate(592.919597 0.578125)" xlink:href="#DejaVuSans-105"/>
      <use transform="translate(620.7028 0.578125)" xlink:href="#DejaVuSans-99"/>
      <use transform="translate(675.683269 0.578125)" xlink:href="#DejaVuSans-121"/>
      <use transform="translate(734.862957 0.578125)" xlink:href="#DejaVuSans-44"/>
      <use transform="translate(818.602866 0.578125)" xlink:href="#DejaVuSans-124"/>
      <use transform="translate(852.294272 0.578125)" xlink:href="#DejaVuSans-110"/>
      <use transform="translate(915.673179 0.578125)" xlink:href="#DejaVuSans-124"/>
      <use transform="translate(968.847007 0.578125)" xlink:href="#DejaVuSans-61"/>
      <use transform="translate(1072.118491 0.578125)" xlink:href="#DejaVuSans-49"/>
     </g>
    </g>
    <g id="line2d_45">
     <path d="M 236.4 11.472 
L 256.4 11.472 
" style="fill:none;stroke:#4b0082;stroke-linecap:square;stroke-width:2;"/>
    </g>
    <g id="line2d_46"/>
    <g id="text_16">
     <!-- $\mathrm{Guided \ policy, \ |n|=1}$ -->
     <g transform="translate(264.4 14.972)scale(0.1 -0.1)">
      <defs>
       <path d="M 59.515625 10.40625 
L 59.515625 29.984375 
L 43.40625 29.984375 
L 43.40625 38.09375 
L 69.28125 38.09375 
L 69.28125 6.78125 
Q 63.578125 2.734375 56.6875 0.65625 
Q 49.8125 -1.421875 42 -1.421875 
Q 24.90625 -1.421875 15.25 8.5625 
Q 5.609375 18.5625 5.609375 36.375 
Q 5.609375 54.25 15.25 64.234375 
Q 24.90625 74.21875 42 74.21875 
Q 49.125 74.21875 55.546875 72.453125 
Q 61.96875 70.703125 67.390625 67.28125 
L 67.390625 56.78125 
Q 61.921875 61.421875 55.765625 63.765625 
Q 49.609375 66.109375 42.828125 66.109375 
Q 29.4375 66.109375 22.71875 58.640625 
Q 16.015625 51.171875 16.015625 36.375 
Q 16.015625 21.625 22.71875 14.15625 
Q 29.4375 6.6875 42.828125 6.6875 
Q 48.046875 6.6875 52.140625 7.59375 
Q 56.25 8.5 59.515625 10.40625 
z
" id="DejaVuSans-71"/>
      </defs>
      <use transform="translate(0 0.578125)" xlink:href="#DejaVuSans-71"/>
      <use transform="translate(77.490234 0.578125)" xlink:href="#DejaVuSans-117"/>
      <use transform="translate(140.869141 0.578125)" xlink:href="#DejaVuSans-105"/>
      <use transform="translate(168.652344 0.578125)" xlink:href="#DejaVuSans-100"/>
      <use transform="translate(232.128906 0.578125)" xlink:href="#DejaVuSans-101"/>
      <use transform="translate(293.652344 0.578125)" xlink:href="#DejaVuSans-100"/>
      <use transform="translate(389.599285 0.578125)" xlink:href="#DejaVuSans-112"/>
      <use transform="translate(453.075847 0.578125)" xlink:href="#DejaVuSans-111"/>
      <use transform="translate(514.257488 0.578125)" xlink:href="#DejaVuSans-108"/>
      <use transform="translate(542.040691 0.578125)" xlink:href="#DejaVuSans-105"/>
      <use transform="translate(569.823894 0.578125)" xlink:href="#DejaVuSans-99"/>
      <use transform="translate(624.804363 0.578125)" xlink:href="#DejaVuSans-121"/>
      <use transform="translate(683.98405 0.578125)" xlink:href="#DejaVuSans-44"/>
      <use transform="translate(767.72396 0.578125)" xlink:href="#DejaVuSans-124"/>
      <use transform="translate(801.415366 0.578125)" xlink:href="#DejaVuSans-110"/>
      <use transform="translate(864.794272 0.578125)" xlink:href="#DejaVuSans-124"/>
      <use transform="translate(917.968101 0.578125)" xlink:href="#DejaVuSans-61"/>
      <use transform="translate(1021.239585 0.578125)" xlink:href="#DejaVuSans-49"/>
     </g>
    </g>
    <g id="line2d_47">
     <path d="M 236.4 26.572 
L 256.4 26.572 
" style="fill:none;stroke:#ff0000;stroke-linecap:square;stroke-width:2;"/>
    </g>
    <g id="line2d_48"/>
    <g id="text_17">
     <!-- $\mathrm{Opt. \ FSC \  on \ POMDP, |n|=15}$ -->
     <g transform="translate(264.4 30.072)scale(0.1 -0.1)">
      <defs>
       <path d="M 9.8125 72.90625 
L 51.703125 72.90625 
L 51.703125 64.59375 
L 19.671875 64.59375 
L 19.671875 43.109375 
L 48.578125 43.109375 
L 48.578125 34.8125 
L 19.671875 34.8125 
L 19.671875 0 
L 9.8125 0 
z
" id="DejaVuSans-70"/>
       <path d="M 53.515625 70.515625 
L 53.515625 60.890625 
Q 47.90625 63.578125 42.921875 64.890625 
Q 37.9375 66.21875 33.296875 66.21875 
Q 25.25 66.21875 20.875 63.09375 
Q 16.5 59.96875 16.5 54.203125 
Q 16.5 49.359375 19.40625 46.890625 
Q 22.3125 44.4375 30.421875 42.921875 
L 36.375 41.703125 
Q 47.40625 39.59375 52.65625 34.296875 
Q 57.90625 29 57.90625 20.125 
Q 57.90625 9.515625 50.796875 4.046875 
Q 43.703125 -1.421875 29.984375 -1.421875 
Q 24.8125 -1.421875 18.96875 -0.25 
Q 13.140625 0.921875 6.890625 3.21875 
L 6.890625 13.375 
Q 12.890625 10.015625 18.65625 8.296875 
Q 24.421875 6.59375 29.984375 6.59375 
Q 38.421875 6.59375 43.015625 9.90625 
Q 47.609375 13.234375 47.609375 19.390625 
Q 47.609375 24.75 44.3125 27.78125 
Q 41.015625 30.8125 33.5 32.328125 
L 27.484375 33.5 
Q 16.453125 35.6875 11.515625 40.375 
Q 6.59375 45.0625 6.59375 53.421875 
Q 6.59375 63.09375 13.40625 68.65625 
Q 20.21875 74.21875 32.171875 74.21875 
Q 37.3125 74.21875 42.625 73.28125 
Q 47.953125 72.359375 53.515625 70.515625 
z
" id="DejaVuSans-83"/>
       <path d="M 64.40625 67.28125 
L 64.40625 56.890625 
Q 59.421875 61.53125 53.78125 63.8125 
Q 48.140625 66.109375 41.796875 66.109375 
Q 29.296875 66.109375 22.65625 58.46875 
Q 16.015625 50.828125 16.015625 36.375 
Q 16.015625 21.96875 22.65625 14.328125 
Q 29.296875 6.6875 41.796875 6.6875 
Q 48.140625 6.6875 53.78125 8.984375 
Q 59.421875 11.28125 64.40625 15.921875 
L 64.40625 5.609375 
Q 59.234375 2.09375 53.4375 0.328125 
Q 47.65625 -1.421875 41.21875 -1.421875 
Q 24.65625 -1.421875 15.125 8.703125 
Q 5.609375 18.84375 5.609375 36.375 
Q 5.609375 53.953125 15.125 64.078125 
Q 24.65625 74.21875 41.21875 74.21875 
Q 47.75 74.21875 53.53125 72.484375 
Q 59.328125 70.75 64.40625 67.28125 
z
" id="DejaVuSans-67"/>
      </defs>
      <use transform="translate(0 0.578125)" xlink:href="#DejaVuSans-79"/>
      <use transform="translate(78.710938 0.578125)" xlink:href="#DejaVuSans-112"/>
      <use transform="translate(142.1875 0.578125)" xlink:href="#DejaVuSans-116"/>
      <use transform="translate(181.396484 0.578125)" xlink:href="#DejaVuSans-46"/>
      <use transform="translate(265.136394 0.578125)" xlink:href="#DejaVuSans-70"/>
      <use transform="translate(322.655925 0.578125)" xlink:href="#DejaVuSans-83"/>
      <use transform="translate(386.132488 0.578125)" xlink:href="#DejaVuSans-67"/>
      <use transform="translate(488.427085 0.578125)" xlink:href="#DejaVuSans-111"/>
      <use transform="translate(549.608726 0.578125)" xlink:href="#DejaVuSans-110"/>
      <use transform="translate(645.45801 0.578125)" xlink:href="#DejaVuSans-80"/>
      <use transform="translate(705.760745 0.578125)" xlink:href="#DejaVuSans-79"/>
      <use transform="translate(784.471682 0.578125)" xlink:href="#DejaVuSans-77"/>
      <use transform="translate(870.750979 0.578125)" xlink:href="#DejaVuSans-68"/>
      <use transform="translate(947.752932 0.578125)" xlink:href="#DejaVuSans-80"/>
      <use transform="translate(1008.055667 0.578125)" xlink:href="#DejaVuSans-44"/>
      <use transform="translate(1059.325198 0.578125)" xlink:href="#DejaVuSans-124"/>
      <use transform="translate(1093.016604 0.578125)" xlink:href="#DejaVuSans-110"/>
      <use transform="translate(1156.39551 0.578125)" xlink:href="#DejaVuSans-124"/>
      <use transform="translate(1209.569338 0.578125)" xlink:href="#DejaVuSans-61"/>
      <use transform="translate(1312.840823 0.578125)" xlink:href="#DejaVuSans-49"/>
      <use transform="translate(1376.46387 0.578125)" xlink:href="#DejaVuSans-53"/>
     </g>
    </g>
    <g id="line2d_49">
     <path d="M 418.5 11.472 
L 438.5 11.472 
" style="fill:none;stroke:#008000;stroke-linecap:square;stroke-width:2;"/>
    </g>
    <g id="line2d_50"/>
    <g id="text_18">
     <!-- $\mathrm{Learned \ policy, \ |n|=10}$ -->
     <g transform="translate(446.5 14.972)scale(0.1 -0.1)">
      <use transform="translate(0 0.578125)" xlink:href="#DejaVuSans-76"/>
      <use transform="translate(55.712891 0.578125)" xlink:href="#DejaVuSans-101"/>
      <use transform="translate(117.236328 0.578125)" xlink:href="#DejaVuSans-97"/>
      <use transform="translate(178.515625 0.578125)" xlink:href="#DejaVuSans-114"/>
      <use transform="translate(219.628906 0.578125)" xlink:href="#DejaVuSans-110"/>
      <use transform="translate(283.007812 0.578125)" xlink:href="#DejaVuSans-101"/>
      <use transform="translate(344.53125 0.578125)" xlink:href="#DejaVuSans-100"/>
      <use transform="translate(440.478191 0.578125)" xlink:href="#DejaVuSans-112"/>
      <use transform="translate(503.954753 0.578125)" xlink:href="#DejaVuSans-111"/>
      <use transform="translate(565.136394 0.578125)" xlink:href="#DejaVuSans-108"/>
      <use transform="translate(592.919597 0.578125)" xlink:href="#DejaVuSans-105"/>
      <use transform="translate(620.7028 0.578125)" xlink:href="#DejaVuSans-99"/>
      <use transform="translate(675.683269 0.578125)" xlink:href="#DejaVuSans-121"/>
      <use transform="translate(734.862957 0.578125)" xlink:href="#DejaVuSans-44"/>
      <use transform="translate(818.602866 0.578125)" xlink:href="#DejaVuSans-124"/>
      <use transform="translate(852.294272 0.578125)" xlink:href="#DejaVuSans-110"/>
      <use transform="translate(915.673179 0.578125)" xlink:href="#DejaVuSans-124"/>
      <use transform="translate(968.847007 0.578125)" xlink:href="#DejaVuSans-61"/>
      <use transform="translate(1072.118491 0.578125)" xlink:href="#DejaVuSans-49"/>
      <use transform="translate(1135.741538 0.578125)" xlink:href="#DejaVuSans-48"/>
     </g>
    </g>
    <g id="line2d_51">
     <path d="M 418.5 26.572 
L 438.5 26.572 
" style="fill:none;stroke:#808000;stroke-linecap:square;stroke-width:2;"/>
    </g>
    <g id="line2d_52"/>
    <g id="text_19">
     <!-- $\mathrm{Guided \ policy, \ |n|=10}$ -->
     <g transform="translate(446.5 30.072)scale(0.1 -0.1)">
      <use transform="translate(0 0.578125)" xlink:href="#DejaVuSans-71"/>
      <use transform="translate(77.490234 0.578125)" xlink:href="#DejaVuSans-117"/>
      <use transform="translate(140.869141 0.578125)" xlink:href="#DejaVuSans-105"/>
      <use transform="translate(168.652344 0.578125)" xlink:href="#DejaVuSans-100"/>
      <use transform="translate(232.128906 0.578125)" xlink:href="#DejaVuSans-101"/>
      <use transform="translate(293.652344 0.578125)" xlink:href="#DejaVuSans-100"/>
      <use transform="translate(389.599285 0.578125)" xlink:href="#DejaVuSans-112"/>
      <use transform="translate(453.075847 0.578125)" xlink:href="#DejaVuSans-111"/>
      <use transform="translate(514.257488 0.578125)" xlink:href="#DejaVuSans-108"/>
      <use transform="translate(542.040691 0.578125)" xlink:href="#DejaVuSans-105"/>
      <use transform="translate(569.823894 0.578125)" xlink:href="#DejaVuSans-99"/>
      <use transform="translate(624.804363 0.578125)" xlink:href="#DejaVuSans-121"/>
      <use transform="translate(683.98405 0.578125)" xlink:href="#DejaVuSans-44"/>
      <use transform="translate(767.72396 0.578125)" xlink:href="#DejaVuSans-124"/>
      <use transform="translate(801.415366 0.578125)" xlink:href="#DejaVuSans-110"/>
      <use transform="translate(864.794272 0.578125)" xlink:href="#DejaVuSans-124"/>
      <use transform="translate(917.968101 0.578125)" xlink:href="#DejaVuSans-61"/>
      <use transform="translate(1021.239585 0.578125)" xlink:href="#DejaVuSans-49"/>
      <use transform="translate(1084.862632 0.578125)" xlink:href="#DejaVuSans-48"/>
     </g>
    </g>
   </g>
  </g>
 </g>
 <defs>
  <clipPath id="p26488540fb">
   <rect height="266.112" width="357.12" x="57.6" y="41.472"/>
  </clipPath>
 </defs>
</svg>
